<svg width="1080" height="54" viewBox="0 0 1080 54" fill="none" xmlns="http://www.w3.org/2000/svg">
<g clip-path="url(#clip0_2569_3526)">
<path d="M76.7206 20.8075C75.1028 20.8075 73.4502 20.9807 71.8164 21.29C70.3607 21.5653 69.0192 20.7586 69.0192 19.2444V7.81904C69.0192 6.47949 67.9585 5.39453 66.6489 5.39453H46.8282C45.5446 5.39453 44.494 6.43953 44.4578 7.75243L44.4072 9.63372C44.3681 11.0621 45.5388 12.2077 46.9324 12.1189C47.381 12.0908 48.0437 12.0775 48.5791 12.0775C56.515 12.0775 62.9284 16.7859 64.0383 24.6544C64.2626 26.2456 64.3176 27.6769 64.2699 29.1512C64.2178 30.7394 65.6547 31.9427 67.1684 31.5875L72.0335 30.4463C73.1477 30.1843 74.275 30.7808 74.7381 31.8495C75.7293 34.1363 77.7929 35.5647 80.4729 35.5647C84.6144 35.5647 87.2669 32.5866 87.2669 28.5487C87.2669 22.3957 81.768 20.8075 76.7206 20.8075Z" fill="#F7DA00"/>
<path d="M43.9885 20.8096C42.4705 20.8096 40.925 20.9621 39.3925 21.2359C39.0221 21.304 38.6545 21.3795 38.2855 21.4609C38.1278 21.4964 37.9773 21.412 37.9136 21.2759C37.8919 21.2315 37.8803 21.1811 37.8803 21.1264C37.8803 21.1249 37.8803 21.1234 37.8803 21.1234C37.8803 17.6524 37.3145 14.6729 36.2885 12.1373C35.1743 9.38423 33.5116 7.15511 31.4365 5.39816C26.9635 1.60894 20.5689 0 13.5751 0H0.332829C0.14905 0 0 0.150977 0 0.340437V39.6713L34.4377 31.5941L37.6242 30.8466H37.6271L39.3028 30.4529C39.6226 30.3774 39.9439 30.3729 40.2492 30.4307C41.0089 30.5713 41.6775 31.0923 42.006 31.8546C42.579 33.1779 43.5124 34.2155 44.7178 34.8519C45.5933 35.3152 46.612 35.5683 47.7393 35.5683C51.8809 35.5683 54.5334 32.5902 54.5334 28.5538C54.5348 22.3993 49.0359 20.8096 43.9885 20.8096ZM18.3461 27.2557C14.7226 27.2557 11.7851 24.251 11.7851 20.5447C11.7851 16.8383 14.7226 13.8336 18.3461 13.8336C21.9711 13.8336 24.9087 16.8383 24.9087 20.5447C24.9087 24.251 21.9711 27.2557 18.3461 27.2557Z" fill="#DF1F8D"/>
<path d="M94.4768 5.39453H79.5776C78.2897 5.39453 77.2362 6.44249 77.2015 7.75983L77.1494 9.71513C77.1103 11.1435 78.2781 12.301 79.6731 12.2092C80.1376 12.1781 80.6426 12.1648 81.1983 12.1648C85.9346 12.1648 89.9836 13.6894 92.83 16.4528C94.3509 17.93 96.8558 16.8614 96.8558 14.7166V7.82644C96.8543 6.48393 95.7893 5.39453 94.4768 5.39453Z" fill="#4AB7E8"/>
<mask id="mask0_2569_3526" style="mask-type:luminance" maskUnits="userSpaceOnUse" x="44" y="5" width="44" height="31">
<path d="M76.7479 20.7826C75.1301 20.7826 73.4775 20.9557 71.8438 21.2651C70.388 21.5404 69.0466 20.7337 69.0466 19.2195V7.7956C69.0466 6.45605 67.9858 5.37109 66.6762 5.37109H46.8555C45.572 5.37109 44.5214 6.41609 44.4852 7.72899L44.4345 9.61028C44.3955 11.0386 45.5662 12.1843 46.9597 12.0955C47.4083 12.0674 48.0711 12.054 48.6065 12.054C56.5423 12.054 62.9558 16.7624 64.0657 24.631C64.29 26.2222 64.345 27.6535 64.2972 29.1277C64.2451 30.7159 65.6821 31.9193 67.1957 31.5641L72.0608 30.4229C73.1751 30.1609 74.3024 30.7574 74.7654 31.8261C75.7567 34.1129 77.8202 35.5413 80.5002 35.5413C84.6418 35.5413 87.2943 32.5632 87.2943 28.5253C87.2943 22.3708 81.7939 20.7826 76.7479 20.7826Z" fill="white"/>
</mask>
<g mask="url(#mask0_2569_3526)">
<path d="M96.8464 -0.0859375H0.0234375V41.9611H96.8464V-0.0859375Z" fill="url(#paint0_linear_2569_3526)"/>
</g>
<mask id="mask1_2569_3526" style="mask-type:luminance" maskUnits="userSpaceOnUse" x="77" y="21" width="44" height="31">
<path d="M109.463 36.433C107.845 36.433 106.192 36.2598 104.559 35.9505C103.103 35.6752 101.761 36.4819 101.761 37.9961V49.4214C101.761 50.761 100.701 51.8459 99.3911 51.8459H79.5704C78.2868 51.8459 77.2362 50.801 77.2 49.488L77.1494 47.6068C77.1103 46.1784 78.281 45.0328 79.6746 45.1216C80.1231 45.1497 80.7859 45.163 81.3213 45.163C89.2571 45.163 95.6706 40.4546 96.7805 32.5861C97.0048 30.9949 97.0598 29.5636 97.0121 28.0893C96.96 26.5011 98.3969 25.2977 99.9106 25.653L104.776 26.7942C105.89 27.0562 107.017 26.4597 107.48 25.391C108.472 23.1041 110.535 21.6758 113.215 21.6758C117.357 21.6758 120.009 24.6539 120.009 28.6918C120.009 34.8448 114.509 36.433 109.463 36.433Z" fill="white"/>
</mask>
<g mask="url(#mask1_2569_3526)">
<path d="M129.569 15.2539H32.7461V57.3009H129.569V15.2539Z" fill="url(#paint1_linear_2569_3526)"/>
</g>
<path d="M127.203 51.8128H112.304C111.016 51.8128 109.963 50.7648 109.928 49.4475L109.876 47.4922C109.837 46.0638 111.005 44.9064 112.4 44.9981C112.864 45.0292 113.369 45.0425 113.925 45.0425C118.661 45.0425 122.71 43.518 125.557 40.7545C127.077 39.2773 129.582 40.346 129.582 42.4907V49.3809C129.581 50.7249 128.516 51.8128 127.203 51.8128Z" fill="#F7DA00"/>
<mask id="mask2_2569_3526" style="mask-type:luminance" maskUnits="userSpaceOnUse" x="140" y="21" width="44" height="31">
<path d="M173.205 36.433C171.587 36.433 169.935 36.2598 168.301 35.9505C166.845 35.6752 165.504 36.4819 165.504 37.9961V49.4214C165.504 50.761 164.443 51.8459 163.133 51.8459H143.313C142.029 51.8459 140.978 50.801 140.942 49.488L140.892 47.6068C140.853 46.1784 142.023 45.0328 143.417 45.1216C143.865 45.1497 144.528 45.163 145.064 45.163C152.999 45.163 159.413 40.4546 160.523 32.5861C160.747 30.9949 160.802 29.5636 160.754 28.0893C160.702 26.5011 162.139 25.2977 163.653 25.653L168.518 26.7942C169.632 27.0562 170.759 26.4597 171.222 25.391C172.214 23.1041 174.277 21.6758 176.957 21.6758C181.099 21.6758 183.751 24.6539 183.751 28.6918C183.751 34.8448 178.252 36.433 173.205 36.433Z" fill="white"/>
</mask>
<g mask="url(#mask2_2569_3526)">
<path d="M193.296 15.2539H96.4727V57.3009H193.296V15.2539Z" fill="url(#paint2_linear_2569_3526)"/>
</g>
<path d="M158.172 5.53125H143.273C141.985 5.53125 140.932 6.57921 140.897 7.89655L140.845 9.85185C140.806 11.2802 141.973 12.4377 143.368 12.3459C143.833 12.3148 144.338 12.3015 144.894 12.3015C149.63 12.3015 153.679 13.8261 156.525 16.5895C158.046 18.0668 160.551 16.9981 160.551 14.8533V7.96316C160.548 6.62065 159.485 5.53125 158.172 5.53125Z" fill="#DF1F8D"/>
<mask id="mask3_2569_3526" style="mask-type:luminance" maskUnits="userSpaceOnUse" x="108" y="5" width="43" height="31">
<path d="M140.438 20.9154C138.82 20.9154 137.167 21.0885 135.534 21.3979C134.078 21.6732 132.737 20.8665 132.737 19.3523V7.92841C132.737 6.58887 131.676 5.50391 130.366 5.50391H110.547C109.263 5.50391 108.213 6.5489 108.177 7.86181L108.126 9.74309C108.087 11.1715 109.258 12.3171 110.651 12.2283C111.1 12.2002 111.762 12.1868 112.298 12.1868C120.234 12.1868 126.647 16.8952 127.757 24.7638C127.981 26.355 128.036 27.7863 127.989 29.2605C127.937 30.8487 129.373 32.0521 130.887 31.6969L135.752 30.5557C136.866 30.2937 137.994 30.8902 138.457 31.9589C139.448 34.2457 141.512 35.6741 144.192 35.6741C148.333 35.6741 150.986 32.696 150.986 28.6581C150.984 22.5036 145.485 20.9154 140.438 20.9154Z" fill="white"/>
</mask>
<g mask="url(#mask3_2569_3526)">
<path d="M160.538 0.0429688H63.7148V42.09H160.538V0.0429688Z" fill="url(#paint3_linear_2569_3526)"/>
</g>
<path d="M190.934 51.8128H176.035C174.747 51.8128 173.693 50.7648 173.659 49.4475L173.606 47.4922C173.567 46.0638 174.735 44.9064 176.13 44.9981C176.595 45.0292 177.1 45.0425 177.655 45.0425C182.392 45.0425 186.441 43.518 189.287 40.7545C190.808 39.2773 193.313 40.346 193.313 42.4907V49.3809C193.311 50.7249 192.248 51.8128 190.934 51.8128Z" fill="#4AB7E8"/>
<mask id="mask4_2569_3526" style="mask-type:luminance" maskUnits="userSpaceOnUse" x="206" y="21" width="44" height="31">
<path d="M238.728 36.433C237.111 36.433 235.458 36.2598 233.824 35.9505C232.368 35.6752 231.027 36.4819 231.027 37.9961V49.4214C231.027 50.761 229.966 51.8459 228.657 51.8459H208.836C207.552 51.8459 206.502 50.801 206.466 49.488L206.415 47.6068C206.376 46.1784 207.547 45.0328 208.94 45.1216C209.389 45.1497 210.052 45.163 210.587 45.163C218.523 45.163 224.936 40.4546 226.046 32.5861C226.27 30.9949 226.325 29.5636 226.278 28.0893C226.226 26.5011 227.663 25.2977 229.176 25.653L234.041 26.7942C235.156 27.0562 236.283 26.4597 236.746 25.391C237.737 23.1041 239.801 21.6758 242.481 21.6758C246.622 21.6758 249.275 24.6539 249.275 28.6918C249.275 34.8448 243.774 36.433 238.728 36.433Z" fill="white"/>
</mask>
<g mask="url(#mask4_2569_3526)">
<path d="M258.827 15.2539H162.004V57.3009H258.827V15.2539Z" fill="url(#paint4_linear_2569_3526)"/>
</g>
<path d="M223.699 5.53125H208.8C207.512 5.53125 206.459 6.57921 206.424 7.89655L206.372 9.85185C206.333 11.2802 207.501 12.4377 208.896 12.3459C209.36 12.3148 209.865 12.3015 210.421 12.3015C215.157 12.3015 219.206 13.8261 222.053 16.5895C223.574 18.0668 226.078 16.9981 226.078 14.8533V7.96316C226.077 6.62065 225.012 5.53125 223.699 5.53125Z" fill="#F7DA00"/>
<mask id="mask5_2569_3526" style="mask-type:luminance" maskUnits="userSpaceOnUse" x="173" y="5" width="44" height="31">
<path d="M205.963 20.9154C204.345 20.9154 202.692 21.0885 201.059 21.3979C199.603 21.6732 198.261 20.8665 198.261 19.3523V7.92841C198.261 6.58887 197.201 5.50391 195.891 5.50391H176.07C174.787 5.50391 173.736 6.5489 173.7 7.86181L173.649 9.74309C173.61 11.1715 174.781 12.3171 176.175 12.2283C176.623 12.2002 177.286 12.1868 177.821 12.1868C185.757 12.1868 192.171 16.8952 193.281 24.7638C193.505 26.355 193.56 27.7863 193.512 29.2605C193.46 30.8487 194.897 32.0521 196.411 31.6969L201.276 30.5557C202.39 30.2937 203.517 30.8902 203.98 31.9589C204.972 34.2457 207.035 35.6741 209.715 35.6741C213.857 35.6741 216.509 32.696 216.509 28.6581C216.509 22.5036 211.01 20.9154 205.963 20.9154Z" fill="white"/>
</mask>
<g mask="url(#mask5_2569_3526)">
<path d="M226.065 0.0429688H129.242V42.09H226.065V0.0429688Z" fill="url(#paint5_linear_2569_3526)"/>
</g>
<path d="M260.094 51.8128H245.195C243.907 51.8128 242.853 50.7648 242.819 49.4475L242.767 47.4922C242.728 46.0638 243.895 44.9064 245.29 44.9981C245.755 45.0292 246.26 45.0425 246.816 45.0425C251.552 45.0425 255.601 43.518 258.447 40.7545C259.968 39.2773 262.473 40.346 262.473 42.4907V49.3809C262.472 50.7249 261.406 51.8128 260.094 51.8128Z" fill="#4AB7E8"/>
<mask id="mask6_2569_3526" style="mask-type:luminance" maskUnits="userSpaceOnUse" x="275" y="21" width="44" height="31">
<path d="M307.885 36.433C306.267 36.433 304.614 36.2598 302.98 35.9505C301.525 35.6752 300.183 36.4819 300.183 37.9961V49.4214C300.183 50.761 299.123 51.8459 297.813 51.8459H277.992C276.709 51.8459 275.658 50.801 275.622 49.488L275.571 47.6068C275.532 46.1784 276.703 45.0328 278.096 45.1216C278.545 45.1497 279.208 45.163 279.743 45.163C287.679 45.163 294.093 40.4546 295.202 32.5861C295.427 30.9949 295.482 29.5636 295.434 28.0893C295.382 26.5011 296.819 25.2977 298.332 25.653L303.198 26.7942C304.312 27.0562 305.439 26.4597 305.902 25.391C306.893 23.1041 308.957 21.6758 311.637 21.6758C315.778 21.6758 318.431 24.6539 318.431 28.6918C318.431 34.8448 312.932 36.433 307.885 36.433Z" fill="white"/>
</mask>
<g mask="url(#mask6_2569_3526)">
<path d="M327.983 15.2539H231.16V57.3009H327.983V15.2539Z" fill="url(#paint6_linear_2569_3526)"/>
</g>
<path d="M292.856 5.53125H277.956C276.669 5.53125 275.615 6.57921 275.58 7.89655L275.528 9.85185C275.489 11.2802 276.657 12.4377 278.052 12.3459C278.517 12.3148 279.022 12.3015 279.577 12.3015C284.314 12.3015 288.362 13.8261 291.209 16.5895C292.73 18.0668 295.235 16.9981 295.235 14.8533V7.96316C295.233 6.62065 294.168 5.53125 292.856 5.53125Z" fill="#F7DA00"/>
<mask id="mask7_2569_3526" style="mask-type:luminance" maskUnits="userSpaceOnUse" x="242" y="5" width="44" height="31">
<path d="M275.127 20.9154C273.509 20.9154 271.856 21.0885 270.223 21.3979C268.767 21.6732 267.425 20.8665 267.425 19.3523V7.92841C267.425 6.58887 266.365 5.50391 265.055 5.50391H245.234C243.951 5.50391 242.9 6.5489 242.864 7.86181L242.813 9.74309C242.774 11.1715 243.945 12.3171 245.339 12.2283C245.787 12.2002 246.45 12.1868 246.985 12.1868C254.921 12.1868 261.335 16.8952 262.445 24.7638C262.669 26.355 262.724 27.7863 262.676 29.2605C262.624 30.8487 264.061 32.0521 265.575 31.6969L270.44 30.5557C271.554 30.2937 272.681 30.8902 273.144 31.9589C274.136 34.2457 276.199 35.6741 278.879 35.6741C283.021 35.6741 285.673 32.696 285.673 28.6581C285.673 22.5036 280.173 20.9154 275.127 20.9154Z" fill="white"/>
</mask>
<g mask="url(#mask7_2569_3526)">
<path d="M295.221 0.0429688H198.398V42.09H295.221V0.0429688Z" fill="url(#paint7_linear_2569_3526)"/>
</g>
<path d="M329.254 51.8128H314.355C313.067 51.8128 312.014 50.7648 311.979 49.4475L311.927 47.4922C311.888 46.0638 313.055 44.9064 314.45 44.9981C314.915 45.0292 315.42 45.0425 315.976 45.0425C320.712 45.0425 324.761 43.518 327.607 40.7545C329.128 39.2773 331.633 40.346 331.633 42.4907V49.3809C331.632 50.7249 330.567 51.8128 329.254 51.8128Z" fill="#4AB7E8"/>
<mask id="mask8_2569_3526" style="mask-type:luminance" maskUnits="userSpaceOnUse" x="344" y="21" width="44" height="31">
<path d="M377.041 36.433C375.423 36.433 373.77 36.2598 372.137 35.9505C370.681 35.6752 369.34 36.4819 369.34 37.9961V49.4214C369.34 50.761 368.279 51.8459 366.969 51.8459H347.148C345.865 51.8459 344.814 50.801 344.778 49.488L344.728 47.6068C344.688 46.1784 345.859 45.0328 347.253 45.1216C347.701 45.1497 348.364 45.163 348.899 45.163C356.835 45.163 363.249 40.4546 364.359 32.5861C364.583 30.9949 364.638 29.5636 364.59 28.0893C364.538 26.5011 365.975 25.2977 367.489 25.653L372.354 26.7942C373.468 27.0562 374.595 26.4597 375.058 25.391C376.05 23.1041 378.113 21.6758 380.793 21.6758C384.935 21.6758 387.587 24.6539 387.587 28.6918C387.587 34.8448 382.088 36.433 377.041 36.433Z" fill="white"/>
</mask>
<g mask="url(#mask8_2569_3526)">
<path d="M397.139 15.2539H300.316V57.3009H397.139V15.2539Z" fill="url(#paint8_linear_2569_3526)"/>
</g>
<path d="M362.012 5.53125H347.113C345.825 5.53125 344.771 6.57921 344.737 7.89655L344.685 9.85185C344.645 11.2802 345.813 12.4377 347.208 12.3459C347.673 12.3148 348.178 12.3015 348.733 12.3015C353.47 12.3015 357.519 13.8261 360.365 16.5895C361.886 18.0668 364.391 16.9981 364.391 14.8533V7.96316C364.389 6.62065 363.324 5.53125 362.012 5.53125Z" fill="#F7DA00"/>
<mask id="mask9_2569_3526" style="mask-type:luminance" maskUnits="userSpaceOnUse" x="311" y="5" width="44" height="31">
<path d="M344.283 20.9154C342.665 20.9154 341.013 21.0885 339.379 21.3979C337.923 21.6732 336.582 20.8665 336.582 19.3523V7.92841C336.582 6.58887 335.521 5.50391 334.211 5.50391H314.391C313.107 5.50391 312.057 6.5489 312.02 7.86181L311.97 9.74309C311.931 11.1715 313.101 12.3171 314.495 12.2283C314.943 12.2002 315.606 12.1868 316.142 12.1868C324.077 12.1868 330.491 16.8952 331.601 24.7638C331.825 26.355 331.88 27.7863 331.832 29.2605C331.78 30.8487 333.217 32.0521 334.731 31.6969L339.596 30.5557C340.71 30.2937 341.838 30.8902 342.301 31.9589C343.292 34.2457 345.355 35.6741 348.035 35.6741C352.177 35.6741 354.829 32.696 354.829 28.6581C354.829 22.5036 349.329 20.9154 344.283 20.9154Z" fill="white"/>
</mask>
<g mask="url(#mask9_2569_3526)">
<path d="M364.378 0.0429688H267.555V42.09H364.378V0.0429688Z" fill="url(#paint9_linear_2569_3526)"/>
</g>
<path d="M398.406 51.8128H383.507C382.219 51.8128 381.166 50.7648 381.131 49.4475L381.079 47.4922C381.04 46.0638 382.208 44.9064 383.603 44.9981C384.067 45.0292 384.572 45.0425 385.128 45.0425C389.864 45.0425 393.913 43.518 396.76 40.7545C398.281 39.2773 400.785 40.346 400.785 42.4907V49.3809C400.784 50.7249 399.719 51.8128 398.406 51.8128Z" fill="#4AB7E8"/>
<mask id="mask10_2569_3526" style="mask-type:luminance" maskUnits="userSpaceOnUse" x="413" y="21" width="44" height="31">
<path d="M446.193 36.433C444.575 36.433 442.923 36.2598 441.289 35.9505C439.833 35.6752 438.492 36.4819 438.492 37.9961V49.4214C438.492 50.761 437.431 51.8459 436.122 51.8459H416.301C415.017 51.8459 413.967 50.801 413.931 49.488L413.88 47.6068C413.841 46.1784 415.011 45.0328 416.405 45.1216C416.854 45.1497 417.516 45.163 418.052 45.163C425.988 45.163 432.401 40.4546 433.511 32.5861C433.735 30.9949 433.79 29.5636 433.743 28.0893C433.69 26.5011 435.127 25.2977 436.641 25.653L441.506 26.7942C442.62 27.0562 443.748 26.4597 444.211 25.391C445.202 23.1041 447.266 21.6758 449.946 21.6758C454.087 21.6758 456.74 24.6539 456.74 28.6918C456.74 34.8448 451.241 36.433 446.193 36.433Z" fill="white"/>
</mask>
<g mask="url(#mask10_2569_3526)">
<path d="M466.292 15.2539H369.469V57.3009H466.292V15.2539Z" fill="url(#paint10_linear_2569_3526)"/>
</g>
<path d="M431.164 5.53125H416.265C414.977 5.53125 413.924 6.57921 413.889 7.89655L413.837 9.85185C413.798 11.2802 414.966 12.4377 416.361 12.3459C416.825 12.3148 417.33 12.3015 417.886 12.3015C422.622 12.3015 426.671 13.8261 429.517 16.5895C431.038 18.0668 433.543 16.9981 433.543 14.8533V7.96316C433.542 6.62065 432.477 5.53125 431.164 5.53125Z" fill="#F7DA00"/>
<mask id="mask11_2569_3526" style="mask-type:luminance" maskUnits="userSpaceOnUse" x="381" y="5" width="43" height="31">
<path d="M413.435 20.9154C411.818 20.9154 410.165 21.0885 408.531 21.3979C407.076 21.6732 405.734 20.8665 405.734 19.3523V7.92841C405.734 6.58887 404.673 5.50391 403.364 5.50391H383.543C382.259 5.50391 381.209 6.5489 381.173 7.86181L381.122 9.74309C381.083 11.1715 382.254 12.3171 383.647 12.2283C384.096 12.2002 384.759 12.1868 385.294 12.1868C393.23 12.1868 399.643 16.8952 400.753 24.7638C400.977 26.355 401.032 27.7863 400.985 29.2605C400.933 30.8487 402.37 32.0521 403.883 31.6969L408.748 30.5557C409.863 30.2937 410.99 30.8902 411.453 31.9589C412.444 34.2457 414.508 35.6741 417.188 35.6741C421.329 35.6741 423.982 32.696 423.982 28.6581C423.982 22.5036 418.481 20.9154 413.435 20.9154Z" fill="white"/>
</mask>
<g mask="url(#mask11_2569_3526)">
<path d="M433.53 0.0429688H336.707V42.09H433.53V0.0429688Z" fill="url(#paint11_linear_2569_3526)"/>
</g>
<path d="M467.563 51.8128H452.664C451.376 51.8128 450.322 50.7648 450.287 49.4475L450.235 47.4922C450.196 46.0638 451.364 44.9064 452.759 44.9981C453.224 45.0292 453.729 45.0425 454.284 45.0425C459.021 45.0425 463.07 43.518 465.916 40.7545C467.437 39.2773 469.942 40.346 469.942 42.4907V49.3809C469.94 50.7249 468.875 51.8128 467.563 51.8128Z" fill="#4AB7E8"/>
<mask id="mask12_2569_3526" style="mask-type:luminance" maskUnits="userSpaceOnUse" x="483" y="21" width="43" height="31">
<path d="M515.35 36.433C513.732 36.433 512.079 36.2598 510.445 35.9505C508.99 35.6752 507.648 36.4819 507.648 37.9961V49.4214C507.648 50.761 506.587 51.8459 505.278 51.8459H485.457C484.174 51.8459 483.123 50.801 483.087 49.488L483.036 47.6068C482.997 46.1784 484.168 45.0328 485.561 45.1216C486.01 45.1497 486.673 45.163 487.208 45.163C495.144 45.163 501.557 40.4546 502.667 32.5861C502.892 30.9949 502.947 29.5636 502.899 28.0893C502.847 26.5011 504.284 25.2977 505.797 25.653L510.662 26.7942C511.777 27.0562 512.904 26.4597 513.367 25.391C514.358 23.1041 516.422 21.6758 519.102 21.6758C523.243 21.6758 525.896 24.6539 525.896 28.6918C525.896 34.8448 520.397 36.433 515.35 36.433Z" fill="white"/>
</mask>
<g mask="url(#mask12_2569_3526)">
<path d="M535.448 15.2539H438.625V57.3009H535.448V15.2539Z" fill="url(#paint12_linear_2569_3526)"/>
</g>
<path d="M500.321 5.53125H485.421C484.133 5.53125 483.08 6.57921 483.045 7.89655L482.993 9.85185C482.954 11.2802 484.122 12.4377 485.517 12.3459C485.981 12.3148 486.486 12.3015 487.042 12.3015C491.778 12.3015 495.827 13.8261 498.674 16.5895C500.195 18.0668 502.7 16.9981 502.7 14.8533V7.96316C502.698 6.62065 501.633 5.53125 500.321 5.53125Z" fill="#F7DA00"/>
<mask id="mask13_2569_3526" style="mask-type:luminance" maskUnits="userSpaceOnUse" x="450" y="5" width="44" height="31">
<path d="M482.592 20.9154C480.974 20.9154 479.321 21.0885 477.688 21.3979C476.232 21.6732 474.89 20.8665 474.89 19.3523V7.92841C474.89 6.58887 473.83 5.50391 472.52 5.50391H452.699C451.416 5.50391 450.365 6.5489 450.329 7.86181L450.278 9.74309C450.239 11.1715 451.41 12.3171 452.803 12.2283C453.252 12.2002 453.915 12.1868 454.45 12.1868C462.386 12.1868 468.8 16.8952 469.909 24.7638C470.134 26.355 470.189 27.7863 470.141 29.2605C470.089 30.8487 471.526 32.0521 473.039 31.6969L477.905 30.5557C479.019 30.2937 480.146 30.8902 480.609 31.9589C481.6 34.2457 483.664 35.6741 486.344 35.6741C490.486 35.6741 493.138 32.696 493.138 28.6581C493.138 22.5036 487.638 20.9154 482.592 20.9154Z" fill="white"/>
</mask>
<g mask="url(#mask13_2569_3526)">
<path d="M502.686 0.0429688H405.863V42.09H502.686V0.0429688Z" fill="url(#paint13_linear_2569_3526)"/>
</g>
<path d="M536.715 51.8128H521.816C520.528 51.8128 519.474 50.7648 519.44 49.4475L519.388 47.4922C519.349 46.0638 520.516 44.9064 521.911 44.9981C522.376 45.0292 522.881 45.0425 523.437 45.0425C528.173 45.0425 532.222 43.518 535.068 40.7545C536.589 39.2773 539.094 40.346 539.094 42.4907V49.3809C539.093 50.7249 538.028 51.8128 536.715 51.8128Z" fill="#4AB7E8"/>
<mask id="mask14_2569_3526" style="mask-type:luminance" maskUnits="userSpaceOnUse" x="552" y="21" width="44" height="31">
<path d="M584.502 36.433C582.884 36.433 581.231 36.2598 579.598 35.9505C578.142 35.6752 576.8 36.4819 576.8 37.9961V49.4214C576.8 50.761 575.74 51.8459 574.43 51.8459H554.609C553.326 51.8459 552.275 50.801 552.239 49.488L552.188 47.6068C552.149 46.1784 553.32 45.0328 554.714 45.1216C555.162 45.1497 555.825 45.163 556.36 45.163C564.296 45.163 570.71 40.4546 571.82 32.5861C572.044 30.9949 572.099 29.5636 572.051 28.0893C571.999 26.5011 573.436 25.2977 574.95 25.653L579.815 26.7942C580.929 27.0562 582.056 26.4597 582.519 25.391C583.511 23.1041 585.574 21.6758 588.254 21.6758C592.396 21.6758 595.048 24.6539 595.048 28.6918C595.048 34.8448 589.549 36.433 584.502 36.433Z" fill="white"/>
</mask>
<g mask="url(#mask14_2569_3526)">
<path d="M604.6 15.2539H507.777V57.3009H604.6V15.2539Z" fill="url(#paint14_linear_2569_3526)"/>
</g>
<path d="M569.473 5.53125H554.574C553.286 5.53125 552.232 6.57921 552.198 7.89655L552.145 9.85185C552.106 11.2802 553.274 12.4377 554.669 12.3459C555.134 12.3148 555.639 12.3015 556.194 12.3015C560.931 12.3015 564.98 13.8261 567.826 16.5895C569.347 18.0668 571.852 16.9981 571.852 14.8533V7.96316C571.85 6.62065 570.785 5.53125 569.473 5.53125Z" fill="#F7DA00"/>
<mask id="mask15_2569_3526" style="mask-type:luminance" maskUnits="userSpaceOnUse" x="519" y="5" width="44" height="31">
<path d="M551.744 20.9154C550.126 20.9154 548.474 21.0885 546.84 21.3979C545.384 21.6732 544.043 20.8665 544.043 19.3523V7.92841C544.043 6.58887 542.982 5.50391 541.672 5.50391H521.852C520.568 5.50391 519.517 6.5489 519.481 7.86181L519.431 9.74309C519.392 11.1715 520.562 12.3171 521.956 12.2283C522.404 12.2002 523.067 12.1868 523.603 12.1868C531.538 12.1868 537.952 16.8952 539.062 24.7638C539.286 26.355 539.341 27.7863 539.293 29.2605C539.241 30.8487 540.678 32.0521 542.192 31.6969L547.057 30.5557C548.171 30.2937 549.298 30.8902 549.762 31.9589C550.753 34.2457 552.816 35.6741 555.496 35.6741C559.638 35.6741 562.29 32.696 562.29 28.6581C562.29 22.5036 556.79 20.9154 551.744 20.9154Z" fill="white"/>
</mask>
<g mask="url(#mask15_2569_3526)">
<path d="M571.839 0.0429688H475.016V42.09H571.839V0.0429688Z" fill="url(#paint15_linear_2569_3526)"/>
</g>
<path d="M605.867 51.8128H590.968C589.68 51.8128 588.627 50.7648 588.592 49.4475L588.54 47.4922C588.501 46.0638 589.669 44.9064 591.064 44.9981C591.528 45.0292 592.033 45.0425 592.589 45.0425C597.325 45.0425 601.374 43.518 604.221 40.7545C605.742 39.2773 608.246 40.346 608.246 42.4907V49.3809C608.245 50.7249 607.18 51.8128 605.867 51.8128Z" fill="#4AB7E8"/>
<mask id="mask16_2569_3526" style="mask-type:luminance" maskUnits="userSpaceOnUse" x="621" y="21" width="44" height="31">
<path d="M653.654 36.433C652.036 36.433 650.384 36.2598 648.75 35.9505C647.294 35.6752 645.953 36.4819 645.953 37.9961V49.4214C645.953 50.761 644.892 51.8459 643.582 51.8459H623.762C622.478 51.8459 621.428 50.801 621.391 49.488L621.341 47.6068C621.302 46.1784 622.472 45.0328 623.866 45.1216C624.315 45.1497 624.977 45.163 625.513 45.163C633.449 45.163 639.862 40.4546 640.972 32.5861C641.196 30.9949 641.251 29.5636 641.203 28.0893C641.151 26.5011 642.588 25.2977 644.102 25.653L648.967 26.7942C650.081 27.0562 651.209 26.4597 651.672 25.391C652.663 23.1041 654.726 21.6758 657.406 21.6758C661.548 21.6758 664.201 24.6539 664.201 28.6918C664.201 34.8448 658.702 36.433 653.654 36.433Z" fill="white"/>
</mask>
<g mask="url(#mask16_2569_3526)">
<path d="M673.753 15.2539H576.93V57.3009H673.753V15.2539Z" fill="url(#paint16_linear_2569_3526)"/>
</g>
<path d="M638.625 5.53125H623.726C622.438 5.53125 621.385 6.57921 621.35 7.89655L621.298 9.85185C621.259 11.2802 622.427 12.4377 623.822 12.3459C624.286 12.3148 624.791 12.3015 625.347 12.3015C630.083 12.3015 634.132 13.8261 636.978 16.5895C638.499 18.0668 641.004 16.9981 641.004 14.8533V7.96316C641.003 6.62065 639.938 5.53125 638.625 5.53125Z" fill="#F7DA00"/>
<mask id="mask17_2569_3526" style="mask-type:luminance" maskUnits="userSpaceOnUse" x="588" y="5" width="44" height="31">
<path d="M620.896 20.9154C619.279 20.9154 617.626 21.0885 615.992 21.3979C614.536 21.6732 613.195 20.8665 613.195 19.3523V7.92841C613.195 6.58887 612.134 5.50391 610.825 5.50391H591.004C589.72 5.50391 588.67 6.5489 588.634 7.86181L588.583 9.74309C588.544 11.1715 589.715 12.3171 591.108 12.2283C591.557 12.2002 592.22 12.1868 592.755 12.1868C600.691 12.1868 607.104 16.8952 608.214 24.7638C608.438 26.355 608.493 27.7863 608.446 29.2605C608.394 30.8487 609.831 32.0521 611.344 31.6969L616.209 30.5557C617.324 30.2937 618.451 30.8902 618.914 31.9589C619.905 34.2457 621.969 35.6741 624.649 35.6741C628.79 35.6741 631.443 32.696 631.443 28.6581C631.443 22.5036 625.942 20.9154 620.896 20.9154Z" fill="white"/>
</mask>
<g mask="url(#mask17_2569_3526)">
<path d="M640.991 0.0429688H544.168V42.09H640.991V0.0429688Z" fill="url(#paint17_linear_2569_3526)"/>
</g>
<path d="M675.024 51.8128H660.124C658.837 51.8128 657.783 50.7648 657.748 49.4475L657.696 47.4922C657.657 46.0638 658.825 44.9064 660.22 44.9981C660.684 45.0292 661.19 45.0425 661.745 45.0425C666.482 45.0425 670.53 43.518 673.377 40.7545C674.898 39.2773 677.403 40.346 677.403 42.4907V49.3809C677.401 50.7249 676.336 51.8128 675.024 51.8128Z" fill="#4AB7E8"/>
<mask id="mask18_2569_3526" style="mask-type:luminance" maskUnits="userSpaceOnUse" x="690" y="21" width="44" height="31">
<path d="M722.81 36.433C721.193 36.433 719.54 36.2598 717.906 35.9505C716.45 35.6752 715.109 36.4819 715.109 37.9961V49.4214C715.109 50.761 714.048 51.8459 712.739 51.8459H692.918C691.634 51.8459 690.584 50.801 690.548 49.488L690.497 47.6068C690.458 46.1784 691.629 45.0328 693.022 45.1216C693.471 45.1497 694.134 45.163 694.669 45.163C702.605 45.163 709.018 40.4546 710.128 32.5861C710.352 30.9949 710.407 29.5636 710.36 28.0893C710.308 26.5011 711.745 25.2977 713.258 25.653L718.123 26.7942C719.238 27.0562 720.365 26.4597 720.828 25.391C721.819 23.1041 723.883 21.6758 726.563 21.6758C730.704 21.6758 733.357 24.6539 733.357 28.6918C733.357 34.8448 727.858 36.433 722.81 36.433Z" fill="white"/>
</mask>
<g mask="url(#mask18_2569_3526)">
<path d="M742.909 15.2539H646.086V57.3009H742.909V15.2539Z" fill="url(#paint18_linear_2569_3526)"/>
</g>
<path d="M707.781 5.53125H692.882C691.594 5.53125 690.541 6.57921 690.506 7.89655L690.454 9.85185C690.415 11.2802 691.583 12.4377 692.978 12.3459C693.442 12.3148 693.947 12.3015 694.503 12.3015C699.239 12.3015 703.288 13.8261 706.135 16.5895C707.656 18.0668 710.16 16.9981 710.16 14.8533V7.96316C710.159 6.62065 709.094 5.53125 707.781 5.53125Z" fill="#F7DA00"/>
<mask id="mask19_2569_3526" style="mask-type:luminance" maskUnits="userSpaceOnUse" x="657" y="5" width="44" height="31">
<path d="M690.053 20.9154C688.435 20.9154 686.782 21.0885 685.148 21.3979C683.693 21.6732 682.351 20.8665 682.351 19.3523V7.92841C682.351 6.58887 681.291 5.50391 679.981 5.50391H660.16C658.877 5.50391 657.826 6.5489 657.79 7.86181L657.739 9.74309C657.7 11.1715 658.871 12.3171 660.264 12.2283C660.713 12.2002 661.376 12.1868 661.911 12.1868C669.847 12.1868 676.26 16.8952 677.37 24.7638C677.595 26.355 677.65 27.7863 677.602 29.2605C677.55 30.8487 678.987 32.0521 680.5 31.6969L685.366 30.5557C686.48 30.2937 687.607 30.8902 688.07 31.9589C689.061 34.2457 691.125 35.6741 693.805 35.6741C697.946 35.6741 700.599 32.696 700.599 28.6581C700.599 22.5036 695.099 20.9154 690.053 20.9154Z" fill="white"/>
</mask>
<g mask="url(#mask19_2569_3526)">
<path d="M710.147 0.0429688H613.324V42.09H710.147V0.0429688Z" fill="url(#paint19_linear_2569_3526)"/>
</g>
<path d="M744.176 51.8128H729.277C727.989 51.8128 726.935 50.7648 726.901 49.4475L726.849 47.4922C726.81 46.0638 727.977 44.9064 729.372 44.9981C729.837 45.0292 730.342 45.0425 730.898 45.0425C735.634 45.0425 739.683 43.518 742.529 40.7545C744.05 39.2773 746.555 40.346 746.555 42.4907V49.3809C746.554 50.7249 745.489 51.8128 744.176 51.8128Z" fill="#4AB7E8"/>
<mask id="mask20_2569_3526" style="mask-type:luminance" maskUnits="userSpaceOnUse" x="759" y="21" width="44" height="31">
<path d="M791.963 36.433C790.345 36.433 788.692 36.2598 787.059 35.9505C785.603 35.6752 784.261 36.4819 784.261 37.9961V49.4214C784.261 50.761 783.201 51.8459 781.891 51.8459H762.07C760.787 51.8459 759.736 50.801 759.7 49.488L759.649 47.6068C759.61 46.1784 760.781 45.0328 762.175 45.1216C762.623 45.1497 763.286 45.163 763.821 45.163C771.757 45.163 778.171 40.4546 779.281 32.5861C779.505 30.9949 779.56 29.5636 779.512 28.0893C779.46 26.5011 780.897 25.2977 782.411 25.653L787.276 26.7942C788.39 27.0562 789.517 26.4597 789.98 25.391C790.972 23.1041 793.035 21.6758 795.715 21.6758C799.857 21.6758 802.509 24.6539 802.509 28.6918C802.509 34.8448 797.01 36.433 791.963 36.433Z" fill="white"/>
</mask>
<g mask="url(#mask20_2569_3526)">
<path d="M812.061 15.2539H715.238V57.3009H812.061V15.2539Z" fill="url(#paint20_linear_2569_3526)"/>
</g>
<path d="M776.934 5.53125H762.035C760.747 5.53125 759.693 6.57921 759.659 7.89655L759.606 9.85185C759.567 11.2802 760.735 12.4377 762.13 12.3459C762.595 12.3148 763.1 12.3015 763.655 12.3015C768.392 12.3015 772.441 13.8261 775.287 16.5895C776.808 18.0668 779.313 16.9981 779.313 14.8533V7.96316C779.311 6.62065 778.246 5.53125 776.934 5.53125Z" fill="#F7DA00"/>
<mask id="mask21_2569_3526" style="mask-type:luminance" maskUnits="userSpaceOnUse" x="726" y="5" width="44" height="31">
<path d="M759.205 20.9154C757.587 20.9154 755.935 21.0885 754.301 21.3979C752.845 21.6732 751.504 20.8665 751.504 19.3523V7.92841C751.504 6.58887 750.443 5.50391 749.133 5.50391H729.313C728.029 5.50391 726.978 6.5489 726.942 7.86181L726.892 9.74309C726.853 11.1715 728.023 12.3171 729.417 12.2283C729.865 12.2002 730.528 12.1868 731.064 12.1868C738.999 12.1868 745.413 16.8952 746.523 24.7638C746.747 26.355 746.802 27.7863 746.754 29.2605C746.702 30.8487 748.139 32.0521 749.653 31.6969L754.518 30.5557C755.632 30.2937 756.759 30.8902 757.222 31.9589C758.214 34.2457 760.277 35.6741 762.957 35.6741C767.099 35.6741 769.751 32.696 769.751 28.6581C769.751 22.5036 764.251 20.9154 759.205 20.9154Z" fill="white"/>
</mask>
<g mask="url(#mask21_2569_3526)">
<path d="M779.3 0.0429688H682.477V42.09H779.3V0.0429688Z" fill="url(#paint21_linear_2569_3526)"/>
</g>
<path d="M813.328 51.8128H798.429C797.141 51.8128 796.088 50.7648 796.053 49.4475L796.001 47.4922C795.962 46.0638 797.13 44.9064 798.525 44.9981C798.989 45.0292 799.494 45.0425 800.05 45.0425C804.786 45.0425 808.835 43.518 811.682 40.7545C813.202 39.2773 815.707 40.346 815.707 42.4907V49.3809C815.706 50.7249 814.641 51.8128 813.328 51.8128Z" fill="#4AB7E8"/>
<mask id="mask22_2569_3526" style="mask-type:luminance" maskUnits="userSpaceOnUse" x="828" y="21" width="44" height="31">
<path d="M861.115 36.433C859.497 36.433 857.845 36.2598 856.211 35.9505C854.755 35.6752 853.414 36.4819 853.414 37.9961V49.4214C853.414 50.761 852.353 51.8459 851.043 51.8459H831.223C829.939 51.8459 828.889 50.801 828.852 49.488L828.802 47.6068C828.763 46.1784 829.933 45.0328 831.327 45.1216C831.776 45.1497 832.438 45.163 832.974 45.163C840.909 45.163 847.323 40.4546 848.433 32.5861C848.657 30.9949 848.712 29.5636 848.664 28.0893C848.612 26.5011 850.049 25.2977 851.563 25.653L856.428 26.7942C857.542 27.0562 858.67 26.4597 859.133 25.391C860.124 23.1041 862.187 21.6758 864.867 21.6758C869.009 21.6758 871.661 24.6539 871.661 28.6918C871.661 34.8448 866.163 36.433 861.115 36.433Z" fill="white"/>
</mask>
<g mask="url(#mask22_2569_3526)">
<path d="M881.214 15.2539H784.391V57.3009H881.214V15.2539Z" fill="url(#paint22_linear_2569_3526)"/>
</g>
<path d="M846.086 5.53125H831.187C829.899 5.53125 828.846 6.57921 828.811 7.89655L828.759 9.85185C828.72 11.2802 829.887 12.4377 831.282 12.3459C831.747 12.3148 832.252 12.3015 832.808 12.3015C837.544 12.3015 841.593 13.8261 844.439 16.5895C845.96 18.0668 848.465 16.9981 848.465 14.8533V7.96316C848.464 6.62065 847.399 5.53125 846.086 5.53125Z" fill="#F7DA00"/>
<mask id="mask23_2569_3526" style="mask-type:luminance" maskUnits="userSpaceOnUse" x="796" y="5" width="43" height="31">
<path d="M828.357 20.9154C826.739 20.9154 825.087 21.0885 823.453 21.3979C821.997 21.6732 820.656 20.8665 820.656 19.3523V7.92841C820.656 6.58887 819.595 5.50391 818.286 5.50391H798.465C797.181 5.50391 796.131 6.5489 796.095 7.86181L796.044 9.74309C796.005 11.1715 797.176 12.3171 798.569 12.2283C799.018 12.2002 799.68 12.1868 800.216 12.1868C808.152 12.1868 814.565 16.8952 815.675 24.7638C815.899 26.355 815.954 27.7863 815.907 29.2605C815.855 30.8487 817.291 32.0521 818.805 31.6969L823.67 30.5557C824.784 30.2937 825.912 30.8902 826.375 31.9589C827.366 34.2457 829.43 35.6741 832.11 35.6741C836.251 35.6741 838.904 32.696 838.904 28.6581C838.904 22.5036 833.403 20.9154 828.357 20.9154Z" fill="white"/>
</mask>
<g mask="url(#mask23_2569_3526)">
<path d="M848.452 0.0429688H751.629V42.09H848.452V0.0429688Z" fill="url(#paint23_linear_2569_3526)"/>
</g>
<path d="M882.485 51.8128H867.585C866.298 51.8128 865.244 50.7648 865.209 49.4475L865.157 47.4922C865.118 46.0638 866.286 44.9064 867.681 44.9981C868.145 45.0292 868.65 45.0425 869.206 45.0425C873.942 45.0425 877.991 43.518 880.838 40.7545C882.359 39.2773 884.864 40.346 884.864 42.4907V49.3809C884.862 50.7249 883.797 51.8128 882.485 51.8128Z" fill="#4AB7E8"/>
<mask id="mask24_2569_3526" style="mask-type:luminance" maskUnits="userSpaceOnUse" x="897" y="21" width="44" height="31">
<path d="M930.271 36.433C928.654 36.433 927.001 36.2598 925.367 35.9505C923.911 35.6752 922.57 36.4819 922.57 37.9961V49.4214C922.57 50.761 921.509 51.8459 920.2 51.8459H900.379C899.095 51.8459 898.045 50.801 898.009 49.488L897.958 47.6068C897.919 46.1784 899.09 45.0328 900.483 45.1216C900.932 45.1497 901.595 45.163 902.13 45.163C910.066 45.163 916.479 40.4546 917.589 32.5861C917.813 30.9949 917.868 29.5636 917.821 28.0893C917.769 26.5011 919.206 25.2977 920.719 25.653L925.584 26.7942C926.699 27.0562 927.826 26.4597 928.289 25.391C929.28 23.1041 931.344 21.6758 934.024 21.6758C938.165 21.6758 940.818 24.6539 940.818 28.6918C940.818 34.8448 935.319 36.433 930.271 36.433Z" fill="white"/>
</mask>
<g mask="url(#mask24_2569_3526)">
<path d="M950.37 15.2539H853.547V57.3009H950.37V15.2539Z" fill="url(#paint24_linear_2569_3526)"/>
</g>
<path d="M915.242 5.53125H900.343C899.055 5.53125 898.002 6.57921 897.967 7.89655L897.915 9.85185C897.876 11.2802 899.044 12.4377 900.439 12.3459C900.903 12.3148 901.408 12.3015 901.964 12.3015C906.7 12.3015 910.749 13.8261 913.596 16.5895C915.117 18.0668 917.621 16.9981 917.621 14.8533V7.96316C917.62 6.62065 916.555 5.53125 915.242 5.53125Z" fill="#F7DA00"/>
<mask id="mask25_2569_3526" style="mask-type:luminance" maskUnits="userSpaceOnUse" x="865" y="5" width="44" height="31">
<path d="M897.514 20.9154C895.896 20.9154 894.243 21.0885 892.609 21.3979C891.154 21.6732 889.812 20.8665 889.812 19.3523V7.92841C889.812 6.58887 888.751 5.50391 887.442 5.50391H867.621C866.338 5.50391 865.287 6.5489 865.251 7.86181L865.2 9.74309C865.161 11.1715 866.332 12.3171 867.725 12.2283C868.174 12.2002 868.837 12.1868 869.372 12.1868C877.308 12.1868 883.721 16.8952 884.831 24.7638C885.056 26.355 885.111 27.7863 885.063 29.2605C885.011 30.8487 886.448 32.0521 887.961 31.6969L892.826 30.5557C893.941 30.2937 895.068 30.8902 895.531 31.9589C896.522 34.2457 898.586 35.6741 901.266 35.6741C905.407 35.6741 908.06 32.696 908.06 28.6581C908.06 22.5036 902.56 20.9154 897.514 20.9154Z" fill="white"/>
</mask>
<g mask="url(#mask25_2569_3526)">
<path d="M917.608 0.0429688H820.785V42.09H917.608V0.0429688Z" fill="url(#paint25_linear_2569_3526)"/>
</g>
<path d="M951.637 51.8128H936.738C935.45 51.8128 934.396 50.7648 934.362 49.4475L934.31 47.4922C934.27 46.0638 935.438 44.9064 936.833 44.9981C937.298 45.0292 937.803 45.0425 938.358 45.0425C943.095 45.0425 947.144 43.518 949.99 40.7545C951.511 39.2773 954.016 40.346 954.016 42.4907V49.3809C954.015 50.7249 952.949 51.8128 951.637 51.8128Z" fill="#4AB7E8"/>
<mask id="mask26_2569_3526" style="mask-type:luminance" maskUnits="userSpaceOnUse" x="967" y="21" width="43" height="31">
<path d="M999.424 36.433C997.806 36.433 996.153 36.2598 994.52 35.9505C993.064 35.6752 991.722 36.4819 991.722 37.9961V49.4214C991.722 50.761 990.662 51.8459 989.352 51.8459H969.531C968.248 51.8459 967.197 50.801 967.161 49.488L967.11 47.6068C967.071 46.1784 968.242 45.0328 969.635 45.1216C970.084 45.1497 970.747 45.163 971.282 45.163C979.218 45.163 985.632 40.4546 986.741 32.5861C986.966 30.9949 987.021 29.5636 986.973 28.0893C986.921 26.5011 988.358 25.2977 989.872 25.653L994.737 26.7942C995.851 27.0562 996.978 26.4597 997.441 25.391C998.432 23.1041 1000.5 21.6758 1003.18 21.6758C1007.32 21.6758 1009.97 24.6539 1009.97 28.6918C1009.97 34.8448 1004.47 36.433 999.424 36.433Z" fill="white"/>
</mask>
<g mask="url(#mask26_2569_3526)">
<path d="M1019.52 15.2539H922.699V57.3009H1019.52V15.2539Z" fill="url(#paint26_linear_2569_3526)"/>
</g>
<path d="M984.395 5.53125H969.496C968.208 5.53125 967.154 6.57921 967.119 7.89655L967.067 9.85185C967.028 11.2802 968.196 12.4377 969.591 12.3459C970.056 12.3148 970.561 12.3015 971.116 12.3015C975.853 12.3015 979.902 13.8261 982.748 16.5895C984.269 18.0668 986.774 16.9981 986.774 14.8533V7.96316C986.772 6.62065 985.707 5.53125 984.395 5.53125Z" fill="#F7DA00"/>
<mask id="mask27_2569_3526" style="mask-type:luminance" maskUnits="userSpaceOnUse" x="934" y="5" width="44" height="31">
<path d="M966.666 20.9154C965.048 20.9154 963.396 21.0885 961.762 21.3979C960.306 21.6732 958.965 20.8665 958.965 19.3523V7.92841C958.965 6.58887 957.904 5.50391 956.594 5.50391H936.774C935.49 5.50391 934.439 6.5489 934.403 7.86181L934.353 9.74309C934.313 11.1715 935.484 12.3171 936.878 12.2283C937.326 12.2002 937.989 12.1868 938.524 12.1868C946.46 12.1868 952.874 16.8952 953.984 24.7638C954.208 26.355 954.263 27.7863 954.215 29.2605C954.163 30.8487 955.6 32.0521 957.114 31.6969L961.979 30.5557C963.093 30.2937 964.22 30.8902 964.683 31.9589C965.675 34.2457 967.738 35.6741 970.418 35.6741C974.56 35.6741 977.212 32.696 977.212 28.6581C977.212 22.5036 971.712 20.9154 966.666 20.9154Z" fill="white"/>
</mask>
<g mask="url(#mask27_2569_3526)">
<path d="M986.76 0.0429688H889.938V42.09H986.76V0.0429688Z" fill="url(#paint27_linear_2569_3526)"/>
</g>
<path d="M1020.79 51.8128H1005.89C1004.61 51.8128 1003.55 50.7648 1003.52 49.4475L1003.47 47.4922C1003.43 46.0638 1004.59 44.9064 1005.99 44.9981C1006.45 45.0292 1006.96 45.0425 1007.51 45.0425C1012.25 45.0425 1016.3 43.518 1019.15 40.7545C1020.67 39.2773 1023.17 40.346 1023.17 42.4907V49.3809C1023.17 50.7249 1022.11 51.8128 1020.79 51.8128Z" fill="#4AB7E8"/>
<mask id="mask28_2569_3526" style="mask-type:luminance" maskUnits="userSpaceOnUse" x="1036" y="21" width="44" height="31">
<path d="M1068.58 36.433C1066.96 36.433 1065.31 36.2598 1063.68 35.9505C1062.22 35.6752 1060.88 36.4819 1060.88 37.9961V49.4214C1060.88 50.761 1059.82 51.8459 1058.51 51.8459H1038.69C1037.4 51.8459 1036.35 50.801 1036.32 49.488L1036.27 47.6068C1036.23 46.1784 1037.4 45.0328 1038.79 45.1216C1039.24 45.1497 1039.9 45.163 1040.44 45.163C1048.37 45.163 1054.79 40.4546 1055.9 32.5861C1056.12 30.9949 1056.18 29.5636 1056.13 28.0893C1056.08 26.5011 1057.51 25.2977 1059.03 25.653L1063.89 26.7942C1065.01 27.0562 1066.13 26.4597 1066.6 25.391C1067.59 23.1041 1069.65 21.6758 1072.33 21.6758C1076.47 21.6758 1079.13 24.6539 1079.13 28.6918C1079.13 34.8448 1073.63 36.433 1068.58 36.433Z" fill="white"/>
</mask>
<g mask="url(#mask28_2569_3526)">
<path d="M1088.68 15.2539H991.855V57.3009H1088.68V15.2539Z" fill="url(#paint28_linear_2569_3526)"/>
</g>
<path d="M1053.55 5.53125H1038.65C1037.36 5.53125 1036.31 6.57921 1036.28 7.89655L1036.22 9.85185C1036.18 11.2802 1037.35 12.4377 1038.75 12.3459C1039.21 12.3148 1039.72 12.3015 1040.27 12.3015C1045.01 12.3015 1049.06 13.8261 1051.9 16.5895C1053.43 18.0668 1055.93 16.9981 1055.93 14.8533V7.96316C1055.93 6.62065 1054.86 5.53125 1053.55 5.53125Z" fill="#F7DA00"/>
<mask id="mask29_2569_3526" style="mask-type:luminance" maskUnits="userSpaceOnUse" x="1003" y="5" width="44" height="31">
<path d="M1035.82 20.9154C1034.2 20.9154 1032.55 21.0885 1030.92 21.3979C1029.46 21.6732 1028.12 20.8665 1028.12 19.3523V7.92841C1028.12 6.58887 1027.06 5.50391 1025.75 5.50391H1005.93C1004.65 5.50391 1003.6 6.5489 1003.56 7.86181L1003.51 9.74309C1003.47 11.1715 1004.64 12.3171 1006.03 12.2283C1006.48 12.2002 1007.15 12.1868 1007.68 12.1868C1015.62 12.1868 1022.03 16.8952 1023.14 24.7638C1023.36 26.355 1023.42 27.7863 1023.37 29.2605C1023.32 30.8487 1024.76 32.0521 1026.27 31.6969L1031.14 30.5557C1032.25 30.2937 1033.38 30.8902 1033.84 31.9589C1034.83 34.2457 1036.89 35.6741 1039.57 35.6741C1043.72 35.6741 1046.37 32.696 1046.37 28.6581C1046.37 22.5036 1040.87 20.9154 1035.82 20.9154Z" fill="white"/>
</mask>
<g mask="url(#mask29_2569_3526)">
<path d="M1055.92 0.0429688H959.094V42.09H1055.92V0.0429688Z" fill="url(#paint29_linear_2569_3526)"/>
</g>
<path d="M1089.95 51.8128H1075.05C1073.76 51.8128 1072.7 50.7648 1072.67 49.4475L1072.62 47.4922C1072.58 46.0638 1073.75 44.9064 1075.14 44.9981C1075.61 45.0292 1076.11 45.0425 1076.67 45.0425C1081.4 45.0425 1085.45 43.518 1088.3 40.7545C1089.82 39.2773 1092.32 40.346 1092.32 42.4907V49.3809C1092.32 50.7249 1091.26 51.8128 1089.95 51.8128Z" fill="#4AB7E8"/>
<mask id="mask30_2569_3526" style="mask-type:luminance" maskUnits="userSpaceOnUse" x="1072" y="5" width="44" height="31">
<path d="M1104.97 20.9154C1103.36 20.9154 1101.7 21.0885 1100.07 21.3979C1098.61 21.6732 1097.27 20.8665 1097.27 19.3523V7.92841C1097.27 6.58887 1096.21 5.50391 1094.9 5.50391H1075.08C1073.8 5.50391 1072.75 6.5489 1072.71 7.86181L1072.66 9.74309C1072.62 11.1715 1073.79 12.3171 1075.19 12.2283C1075.63 12.2002 1076.3 12.1868 1076.83 12.1868C1084.77 12.1868 1091.18 16.8952 1092.29 24.7638C1092.52 26.355 1092.57 27.7863 1092.52 29.2605C1092.47 30.8487 1093.91 32.0521 1095.42 31.6969L1100.29 30.5557C1101.4 30.2937 1102.53 30.8902 1102.99 31.9589C1103.98 34.2457 1106.05 35.6741 1108.73 35.6741C1112.87 35.6741 1115.52 32.696 1115.52 28.6581C1115.52 22.5036 1110.02 20.9154 1104.97 20.9154Z" fill="white"/>
</mask>
<g mask="url(#mask30_2569_3526)">
<path d="M1125.07 0.0429688H1028.25V42.09H1125.07V0.0429688Z" fill="url(#paint30_linear_2569_3526)"/>
</g>
<path d="M17.2728 50.45H16.2917V49.6922H16.2699C16.0804 49.9749 15.8214 50.1939 15.4914 50.3494C15.16 50.5048 14.8214 50.5832 14.4727 50.5832C14.0733 50.5832 13.7115 50.5122 13.3888 50.3716C13.0661 50.2309 12.7897 50.0341 12.5611 49.781C12.3324 49.5279 12.1559 49.2348 12.0329 48.9003C11.9084 48.5658 11.8477 48.2016 11.8477 47.8079C11.8477 47.4142 11.9084 47.0486 12.0329 46.7096C12.1559 46.3722 12.3324 46.0791 12.5611 45.8289C12.7897 45.5803 13.0661 45.3849 13.3888 45.2443C13.7115 45.1037 14.0733 45.0326 14.4727 45.0326C14.8431 45.0326 15.1919 45.1125 15.5189 45.2724C15.846 45.4323 16.0963 45.6498 16.2714 45.9237H16.2931V42.0234H17.2742V50.45H17.2728ZM14.5928 49.6478C14.8547 49.6478 15.0906 49.6019 15.3004 49.5086C15.5102 49.4154 15.6882 49.2896 15.8344 49.1297C15.9791 48.9698 16.092 48.7774 16.1715 48.5495C16.2511 48.323 16.2917 48.0758 16.2917 47.8079C16.2917 47.54 16.2511 47.2943 16.1715 47.0664C16.092 46.8399 15.9791 46.646 15.8344 46.4861C15.6897 46.3263 15.5117 46.2005 15.3004 46.1072C15.0891 46.014 14.8533 45.9681 14.5928 45.9681C14.3309 45.9681 14.095 46.014 13.8837 46.1072C13.6724 46.2005 13.4944 46.3263 13.3497 46.4861C13.205 46.646 13.0921 46.8384 13.0126 47.0664C12.933 47.2928 12.8925 47.54 12.8925 47.8079C12.8925 48.0758 12.933 48.323 13.0126 48.5495C13.0921 48.7759 13.205 48.9698 13.3497 49.1297C13.4944 49.2896 13.6724 49.4154 13.8837 49.5086C14.095 49.6004 14.3309 49.6478 14.5928 49.6478Z" fill="white"/>
<path d="M19.4979 48.1727C19.4979 48.4036 19.5471 48.6123 19.6455 48.8018C19.7439 48.9912 19.8727 49.1526 20.0319 49.2858C20.1911 49.419 20.3763 49.5241 20.5876 49.5981C20.7974 49.6721 21.0159 49.7091 21.2417 49.7091C21.547 49.7091 21.8118 49.6366 22.0376 49.4915C22.2619 49.3465 22.4702 49.1555 22.6584 48.9172L23.3993 49.4974C22.8552 50.2183 22.0911 50.578 21.1114 50.578C20.7048 50.578 20.3358 50.5069 20.0058 50.3663C19.6745 50.2257 19.3952 50.0303 19.1665 49.7816C18.9379 49.533 18.7614 49.2399 18.6384 48.9009C18.5153 48.5635 18.4531 48.1964 18.4531 47.8027C18.4531 47.4089 18.5197 47.0433 18.6543 46.7044C18.7888 46.3669 18.9741 46.0738 19.21 45.8237C19.4458 45.575 19.728 45.3796 20.055 45.239C20.3821 45.0984 20.7381 45.0273 21.123 45.0273C21.5803 45.0273 21.9681 45.1088 22.2836 45.2731C22.599 45.4373 22.8595 45.6505 23.0621 45.914C23.2661 46.1774 23.4123 46.4749 23.5034 46.805C23.5946 47.1351 23.6395 47.4726 23.6395 47.813V48.1697H19.4979V48.1727ZM22.5932 47.3704C22.586 47.1469 22.5513 46.9427 22.4905 46.7577C22.4283 46.5726 22.3357 46.4098 22.2127 46.2722C22.0882 46.1345 21.9348 46.0265 21.7496 45.9495C21.5644 45.871 21.3487 45.8326 21.1013 45.8326C20.8611 45.8326 20.6411 45.8784 20.4414 45.9717C20.2417 46.0649 20.0724 46.1848 19.9349 46.3343C19.7975 46.4823 19.6904 46.6481 19.6137 46.8302C19.537 47.0122 19.4994 47.1928 19.4994 47.3704H22.5932Z" fill="white"/>
<path d="M27.5586 46.4907C27.4428 46.3427 27.2996 46.2183 27.1288 46.1177C26.958 46.017 26.7497 45.9667 26.5022 45.9667C26.2692 45.9667 26.0681 46.017 25.8973 46.1177C25.7266 46.2183 25.6412 46.3649 25.6412 46.5573C25.6412 46.7142 25.6904 46.84 25.7888 46.9362C25.8872 47.0324 26.003 47.1109 26.1375 47.1701C26.2721 47.2293 26.4154 47.2737 26.5673 47.3033C26.7193 47.3329 26.851 47.3595 26.9595 47.3818C27.1693 47.4336 27.3676 47.4972 27.5528 47.5712C27.738 47.6452 27.8972 47.7429 28.0318 47.8613C28.1664 47.9797 28.272 48.1248 28.3472 48.2965C28.4239 48.4682 28.4616 48.6754 28.4616 48.9211C28.4616 49.2186 28.3993 49.4732 28.2763 49.6849C28.1519 49.8965 27.9927 50.0697 27.7959 50.2029C27.6006 50.3362 27.3763 50.4338 27.1259 50.4931C26.8756 50.5523 26.6223 50.5819 26.3691 50.5819C25.9407 50.5819 25.5645 50.5153 25.2418 50.382C24.9191 50.2488 24.6297 50.0031 24.375 49.6464L25.1159 49.0218C25.2751 49.1861 25.4531 49.3311 25.6499 49.4569C25.8467 49.5828 26.0855 49.6464 26.3691 49.6464C26.4921 49.6464 26.618 49.6331 26.7453 49.6079C26.8727 49.5828 26.9855 49.5413 27.0825 49.4851C27.1809 49.4288 27.2605 49.3592 27.3227 49.2734C27.3835 49.1875 27.4153 49.0899 27.4153 48.9774C27.4153 48.8293 27.3705 48.7065 27.2793 48.6088C27.1881 48.5126 27.0796 48.4356 26.9523 48.3809C26.8249 48.3246 26.6903 48.2802 26.5485 48.2476C26.4067 48.2151 26.2808 48.187 26.1723 48.1648C25.961 48.113 25.7613 48.0537 25.5732 47.9857C25.3836 47.919 25.2172 47.8302 25.0725 47.7177C24.9278 47.6067 24.8106 47.4646 24.7237 47.2944C24.6369 47.1242 24.5935 46.9125 24.5935 46.6594C24.5935 46.3841 24.6499 46.1458 24.7628 45.9401C24.8757 45.7343 25.0247 45.5671 25.21 45.4324C25.3952 45.2992 25.605 45.1985 25.8423 45.1319C26.0782 45.0653 26.317 45.0312 26.5558 45.0312C26.9045 45.0312 27.2388 45.0979 27.5586 45.2326C27.8784 45.3658 28.1331 45.5893 28.3212 45.9016L27.5586 46.4907Z" fill="white"/>
<path d="M29.5 43.2708C29.5 43.0695 29.5709 42.8978 29.7127 42.7527C29.8545 42.6077 30.0224 42.5352 30.2192 42.5352C30.4146 42.5352 30.5839 42.6077 30.7257 42.7527C30.8675 42.8978 30.9384 43.071 30.9384 43.2708C30.9384 43.4706 30.8675 43.6438 30.7257 43.7889C30.5839 43.9339 30.4146 44.0064 30.2192 44.0064C30.0224 44.0064 29.8545 43.9339 29.7127 43.7889C29.5709 43.6438 29.5 43.4706 29.5 43.2708ZM29.7301 45.1654H30.7112V50.4481H29.7301V45.1654Z" fill="white"/>
<path d="M37.4407 50.4028C37.4407 50.8039 37.3742 51.1695 37.2396 51.501C37.105 51.8311 36.914 52.1168 36.668 52.3595C36.4206 52.6008 36.1239 52.7888 35.7752 52.922C35.4264 53.0552 35.0415 53.1218 34.6204 53.1218C34.1269 53.1218 33.674 53.0508 33.2645 52.9102C32.8535 52.7695 32.4628 52.5238 32.0938 52.1745L32.758 51.3279C33.0127 51.6106 33.2876 51.8237 33.5857 51.9688C33.8838 52.1138 34.221 52.1864 34.5987 52.1864C34.9619 52.1864 35.2629 52.1316 35.5031 52.025C35.7433 51.9185 35.9329 51.7778 36.0747 51.6076C36.2165 51.4359 36.3164 51.242 36.3742 51.023C36.4321 50.8039 36.4611 50.5833 36.4611 50.3598V49.5798H36.4292C36.2397 49.8995 35.9835 50.1349 35.6608 50.2873C35.3381 50.4398 34.9981 50.5153 34.6421 50.5153C34.2644 50.5153 33.9142 50.4472 33.5901 50.3095C33.2674 50.1719 32.9895 49.9824 32.7565 49.7411C32.5236 49.4999 32.3427 49.2142 32.211 48.8826C32.0807 48.5526 32.0156 48.1929 32.0156 47.8066C32.0156 47.4202 32.0764 47.0576 32.2009 46.7201C32.3239 46.3826 32.5004 46.0866 32.729 45.8335C32.9577 45.5804 33.2341 45.3835 33.5568 45.2429C33.8795 45.1023 34.2412 45.0312 34.6406 45.0312C34.9894 45.0312 35.3294 45.1097 35.6594 45.2651C35.9893 45.4205 36.2498 45.6411 36.4379 45.9223H36.4596V45.1645H37.4407V50.4028ZM34.7607 45.9667C34.4988 45.9667 34.2629 46.0126 34.0517 46.1059C33.8404 46.1991 33.6624 46.3249 33.5177 46.4848C33.373 46.6446 33.2601 46.837 33.1805 47.065C33.1009 47.2915 33.0604 47.5386 33.0604 47.8066C33.0604 48.3424 33.2124 48.7701 33.5177 49.0943C33.823 49.417 34.2369 49.5798 34.7593 49.5798C35.2817 49.5798 35.6956 49.4185 36.0009 49.0943C36.3062 48.7716 36.4582 48.3424 36.4582 47.8066C36.4582 47.5386 36.4177 47.2929 36.3381 47.065C36.2585 46.8385 36.1456 46.6446 36.0009 46.4848C35.8562 46.3249 35.6782 46.1991 35.4669 46.1059C35.2585 46.0126 35.0227 45.9667 34.7607 45.9667Z" fill="white"/>
<path d="M38.9223 45.1645H39.9034V45.9786H39.9251C40.0481 45.6958 40.2623 45.4679 40.5676 45.2932C40.873 45.1186 41.2246 45.0312 41.624 45.0312C41.8715 45.0312 42.1088 45.0697 42.3374 45.1482C42.5661 45.2266 42.7658 45.3465 42.9365 45.5108C43.1073 45.6751 43.2433 45.8838 43.3446 46.1399C43.4459 46.396 43.4965 46.6994 43.4965 47.0487V50.4486H42.5154V47.3255C42.5154 47.0798 42.4821 46.8711 42.417 46.6964C42.3519 46.5218 42.2651 46.3812 42.1551 46.2731C42.0466 46.1651 41.9207 46.0881 41.7789 46.0392C41.637 45.9919 41.4894 45.9667 41.3375 45.9667C41.1335 45.9667 40.9453 45.9993 40.7702 46.0674C40.5951 46.134 40.4432 46.2405 40.313 46.3856C40.1827 46.5307 40.08 46.7142 40.0076 46.9377C39.9353 47.1612 39.8991 47.4247 39.8991 47.7296V50.4486H38.918V45.1645H38.9223Z" fill="white"/>
<path d="M48.0132 45.1645H48.9277V45.9889H48.9494C48.9711 45.9149 49.0276 45.8217 49.1187 45.7106C49.2099 45.5996 49.3257 45.4931 49.4675 45.3924C49.6093 45.2918 49.7757 45.2074 49.9682 45.1363C50.1606 45.0653 50.3734 45.0312 50.6049 45.0312C50.9898 45.0312 51.314 45.1127 51.5744 45.277C51.8364 45.4413 52.0505 45.6855 52.2169 46.0126C52.3834 45.6855 52.6207 45.4413 52.9246 45.277C53.2299 45.1141 53.5381 45.0312 53.8507 45.0312C54.2501 45.0312 54.5771 45.0979 54.8318 45.2326C55.0865 45.3658 55.2862 45.5434 55.4309 45.7625C55.5756 45.9815 55.6769 46.2302 55.7305 46.5099C55.7855 46.7882 55.8115 47.0768 55.8115 47.3743V50.4501H54.8304V47.5076C54.8304 47.3063 54.8174 47.1138 54.7928 46.9273C54.7667 46.7423 54.7146 46.578 54.635 46.4374C54.5554 46.2968 54.4426 46.1828 54.2979 46.097C54.1531 46.0111 53.9607 45.9682 53.7205 45.9682C53.2487 45.9682 52.9101 46.1162 52.7075 46.4137C52.5035 46.7112 52.4022 47.0931 52.4022 47.5623V50.4486H51.421V47.6852C51.421 47.4321 51.408 47.2027 51.3834 46.9939C51.3588 46.7852 51.3067 46.6061 51.2315 46.4537C51.1548 46.3012 51.0463 46.1828 50.9044 46.097C50.7626 46.0111 50.5716 45.9682 50.3328 45.9682C50.1577 45.9682 49.9899 46.0037 49.8264 46.0733C49.6628 46.1443 49.5196 46.2494 49.3951 46.3915C49.2721 46.5321 49.1737 46.7127 49.1014 46.9318C49.029 47.1508 48.9928 47.4099 48.9928 47.7059V50.4472H48.0117V45.1645H48.0132Z" fill="white"/>
<path d="M57.316 45.8113C57.5924 45.5508 57.9122 45.3554 58.2754 45.2266C58.6387 45.0964 59.0019 45.0312 59.3651 45.0312C59.7428 45.0312 60.0684 45.0801 60.3404 45.1763C60.6125 45.2725 60.8368 45.4028 61.0104 45.5671C61.1855 45.7299 61.3143 45.9179 61.3968 46.1295C61.4807 46.3412 61.5227 46.5617 61.5227 46.7926V49.4895C61.5227 49.6745 61.5256 49.8462 61.5343 50.0016C61.5415 50.1585 61.5516 50.3066 61.5661 50.4472H60.695C60.6733 50.1793 60.6631 49.9128 60.6631 49.6449H60.6414C60.4229 49.9868 60.1653 50.2281 59.8672 50.3687C59.5691 50.5093 59.2247 50.5804 58.8326 50.5804C58.5924 50.5804 58.3637 50.5478 58.1467 50.4797C57.9281 50.4131 57.7386 50.3125 57.5751 50.1793C57.4115 50.046 57.2827 49.8803 57.1887 49.6834C57.0946 49.4865 57.0469 49.2586 57.0469 48.9981C57.0469 48.6562 57.1207 48.3705 57.2697 48.1396C57.4188 47.9102 57.6214 47.7222 57.8804 47.5771C58.138 47.4321 58.439 47.3285 58.7848 47.2648C59.1292 47.2026 59.4982 47.1701 59.8904 47.1701H60.6096V46.9466C60.6096 46.8134 60.5835 46.6787 60.5329 46.5455C60.4823 46.4122 60.4056 46.2909 60.3043 46.1828C60.203 46.0748 60.0756 45.9889 59.9237 45.9267C59.7717 45.8631 59.5894 45.832 59.3796 45.832C59.19 45.832 59.025 45.8513 58.8832 45.8883C58.7414 45.9253 58.6126 45.9712 58.4969 46.0274C58.3811 46.0836 58.2754 46.1488 58.1814 46.2228C58.0873 46.2968 57.9962 46.3678 57.9093 46.4344L57.316 45.8113ZM60.0843 47.9057C59.8513 47.9057 59.614 47.919 59.3709 47.9442C59.1278 47.9709 58.9064 48.0197 58.7067 48.0952C58.507 48.1692 58.3435 48.2743 58.2161 48.4075C58.0888 48.5407 58.0251 48.7124 58.0251 48.9196C58.0251 49.2246 58.125 49.4436 58.3246 49.5768C58.5243 49.71 58.795 49.7767 59.1365 49.7767C59.4056 49.7767 59.6343 49.7308 59.8224 49.6375C60.0119 49.5443 60.1639 49.4244 60.2797 49.2749C60.3954 49.1269 60.4794 48.9611 60.53 48.779C60.5807 48.597 60.6067 48.4164 60.6067 48.2388V47.9042H60.0843V47.9057Z" fill="white"/>
<path d="M66.644 46.5685C66.4616 46.3761 66.2721 46.228 66.0724 46.1289C65.8727 46.0282 65.6354 45.9779 65.359 45.9779C65.0898 45.9779 64.8554 46.0282 64.6557 46.1289C64.456 46.2295 64.2896 46.3672 64.155 46.5418C64.0204 46.7165 63.9191 46.9163 63.8496 47.1443C63.7802 47.3707 63.7469 47.6076 63.7469 47.8518C63.7469 48.096 63.7874 48.3299 63.867 48.5489C63.9466 48.768 64.0595 48.9589 64.2042 49.1232C64.3489 49.2875 64.524 49.4148 64.728 49.5081C64.9306 49.6013 65.1593 49.6472 65.4139 49.6472C65.6903 49.6472 65.9262 49.5969 66.1216 49.4962C66.3184 49.3956 66.4993 49.2491 66.6657 49.0566L67.3632 49.7701C67.1085 50.0602 66.8133 50.2674 66.4747 50.3947C66.1375 50.5205 65.7786 50.5842 65.4009 50.5842C65.0015 50.5842 64.6369 50.5176 64.3055 50.3843C63.9755 50.2511 63.6905 50.0631 63.4503 49.8219C63.21 49.5806 63.0248 49.2905 62.8946 48.953C62.7643 48.6155 62.6992 48.2411 62.6992 47.8325C62.6992 47.424 62.7643 47.0481 62.8946 46.7076C63.0248 46.3657 63.2086 46.0726 63.4445 45.8269C63.6803 45.5812 63.964 45.3903 64.2939 45.2526C64.6238 45.115 64.9928 45.0469 65.3995 45.0469C65.7772 45.0469 66.1389 45.115 66.4833 45.2526C66.8277 45.3903 67.1273 45.6005 67.382 45.8817L66.644 46.5685Z" fill="white"/>
<path d="M68.1968 42.0234H69.1779V47.4616L71.4006 45.1762H72.7623L70.3544 47.5726L72.9692 50.4485H71.5743L69.1764 47.7073V50.4485H68.1953V42.0234H68.1968Z" fill="white"/>
</g>
<defs>
<linearGradient id="paint0_linear_2569_3526" x1="0.0229889" y1="20.9373" x2="96.8453" y2="20.9373" gradientUnits="userSpaceOnUse">
<stop stop-color="#4AB7E8"/>
<stop offset="0.0656" stop-color="#55ACE1"/>
<stop offset="0.1823" stop-color="#738DCF"/>
<stop offset="0.3367" stop-color="#A35CB1"/>
<stop offset="0.503" stop-color="#DF1F8D"/>
<stop offset="0.5079" stop-color="#DF218B"/>
<stop offset="0.751" stop-color="#EC8441"/>
<stop offset="0.9201" stop-color="#F4C212"/>
<stop offset="1" stop-color="#F7DA00"/>
</linearGradient>
<linearGradient id="paint1_linear_2569_3526" x1="32.7457" y1="36.2783" x2="129.568" y2="36.2783" gradientUnits="userSpaceOnUse">
<stop stop-color="#4AB7E8"/>
<stop offset="0.0656" stop-color="#55ACE1"/>
<stop offset="0.1823" stop-color="#738DCF"/>
<stop offset="0.3367" stop-color="#A35CB1"/>
<stop offset="0.503" stop-color="#DF1F8D"/>
<stop offset="0.5079" stop-color="#DF218B"/>
<stop offset="0.751" stop-color="#EC8441"/>
<stop offset="0.9201" stop-color="#F4C212"/>
<stop offset="1" stop-color="#F7DA00"/>
</linearGradient>
<linearGradient id="paint2_linear_2569_3526" x1="96.473" y1="36.2783" x2="193.295" y2="36.2783" gradientUnits="userSpaceOnUse">
<stop stop-color="#4AB7E8"/>
<stop offset="0.0656" stop-color="#55ACE1"/>
<stop offset="0.1823" stop-color="#738DCF"/>
<stop offset="0.3367" stop-color="#A35CB1"/>
<stop offset="0.503" stop-color="#DF1F8D"/>
<stop offset="0.5079" stop-color="#DF218B"/>
<stop offset="0.751" stop-color="#EC8441"/>
<stop offset="0.9201" stop-color="#F4C212"/>
<stop offset="1" stop-color="#F7DA00"/>
</linearGradient>
<linearGradient id="paint3_linear_2569_3526" x1="63.7155" y1="21.0664" x2="160.538" y2="21.0664" gradientUnits="userSpaceOnUse">
<stop stop-color="#4AB7E8"/>
<stop offset="0.0656" stop-color="#55ACE1"/>
<stop offset="0.1823" stop-color="#738DCF"/>
<stop offset="0.3367" stop-color="#A35CB1"/>
<stop offset="0.503" stop-color="#DF1F8D"/>
<stop offset="0.5079" stop-color="#DF218B"/>
<stop offset="0.751" stop-color="#EC8441"/>
<stop offset="0.9201" stop-color="#F4C212"/>
<stop offset="1" stop-color="#F7DA00"/>
</linearGradient>
<linearGradient id="paint4_linear_2569_3526" x1="162.004" y1="36.2783" x2="258.826" y2="36.2783" gradientUnits="userSpaceOnUse">
<stop stop-color="#4AB7E8"/>
<stop offset="0.0656" stop-color="#55ACE1"/>
<stop offset="0.1823" stop-color="#738DCF"/>
<stop offset="0.3367" stop-color="#A35CB1"/>
<stop offset="0.503" stop-color="#DF1F8D"/>
<stop offset="0.5079" stop-color="#DF218B"/>
<stop offset="0.751" stop-color="#EC8441"/>
<stop offset="0.9201" stop-color="#F4C212"/>
<stop offset="1" stop-color="#F7DA00"/>
</linearGradient>
<linearGradient id="paint5_linear_2569_3526" x1="129.242" y1="21.0664" x2="226.065" y2="21.0664" gradientUnits="userSpaceOnUse">
<stop stop-color="#4AB7E8"/>
<stop offset="0.0656" stop-color="#55ACE1"/>
<stop offset="0.1823" stop-color="#738DCF"/>
<stop offset="0.3367" stop-color="#A35CB1"/>
<stop offset="0.503" stop-color="#DF1F8D"/>
<stop offset="0.5079" stop-color="#DF218B"/>
<stop offset="0.751" stop-color="#EC8441"/>
<stop offset="0.9201" stop-color="#F4C212"/>
<stop offset="1" stop-color="#F7DA00"/>
</linearGradient>
<linearGradient id="paint6_linear_2569_3526" x1="231.161" y1="36.2783" x2="327.983" y2="36.2783" gradientUnits="userSpaceOnUse">
<stop stop-color="#4AB7E8"/>
<stop offset="0.0656" stop-color="#55ACE1"/>
<stop offset="0.1823" stop-color="#738DCF"/>
<stop offset="0.3367" stop-color="#A35CB1"/>
<stop offset="0.503" stop-color="#DF1F8D"/>
<stop offset="0.5079" stop-color="#DF218B"/>
<stop offset="0.751" stop-color="#EC8441"/>
<stop offset="0.9201" stop-color="#F4C212"/>
<stop offset="1" stop-color="#F7DA00"/>
</linearGradient>
<linearGradient id="paint7_linear_2569_3526" x1="198.398" y1="21.0664" x2="295.22" y2="21.0664" gradientUnits="userSpaceOnUse">
<stop stop-color="#4AB7E8"/>
<stop offset="0.0656" stop-color="#55ACE1"/>
<stop offset="0.1823" stop-color="#738DCF"/>
<stop offset="0.3367" stop-color="#A35CB1"/>
<stop offset="0.503" stop-color="#DF1F8D"/>
<stop offset="0.5079" stop-color="#DF218B"/>
<stop offset="0.751" stop-color="#EC8441"/>
<stop offset="0.9201" stop-color="#F4C212"/>
<stop offset="1" stop-color="#F7DA00"/>
</linearGradient>
<linearGradient id="paint8_linear_2569_3526" x1="300.317" y1="36.2783" x2="397.139" y2="36.2783" gradientUnits="userSpaceOnUse">
<stop stop-color="#4AB7E8"/>
<stop offset="0.0656" stop-color="#55ACE1"/>
<stop offset="0.1823" stop-color="#738DCF"/>
<stop offset="0.3367" stop-color="#A35CB1"/>
<stop offset="0.503" stop-color="#DF1F8D"/>
<stop offset="0.5079" stop-color="#DF218B"/>
<stop offset="0.751" stop-color="#EC8441"/>
<stop offset="0.9201" stop-color="#F4C212"/>
<stop offset="1" stop-color="#F7DA00"/>
</linearGradient>
<linearGradient id="paint9_linear_2569_3526" x1="267.554" y1="21.0664" x2="364.377" y2="21.0664" gradientUnits="userSpaceOnUse">
<stop stop-color="#4AB7E8"/>
<stop offset="0.0656" stop-color="#55ACE1"/>
<stop offset="0.1823" stop-color="#738DCF"/>
<stop offset="0.3367" stop-color="#A35CB1"/>
<stop offset="0.503" stop-color="#DF1F8D"/>
<stop offset="0.5079" stop-color="#DF218B"/>
<stop offset="0.751" stop-color="#EC8441"/>
<stop offset="0.9201" stop-color="#F4C212"/>
<stop offset="1" stop-color="#F7DA00"/>
</linearGradient>
<linearGradient id="paint10_linear_2569_3526" x1="369.469" y1="36.2783" x2="466.292" y2="36.2783" gradientUnits="userSpaceOnUse">
<stop stop-color="#4AB7E8"/>
<stop offset="0.0656" stop-color="#55ACE1"/>
<stop offset="0.1823" stop-color="#738DCF"/>
<stop offset="0.3367" stop-color="#A35CB1"/>
<stop offset="0.503" stop-color="#DF1F8D"/>
<stop offset="0.5079" stop-color="#DF218B"/>
<stop offset="0.751" stop-color="#EC8441"/>
<stop offset="0.9201" stop-color="#F4C212"/>
<stop offset="1" stop-color="#F7DA00"/>
</linearGradient>
<linearGradient id="paint11_linear_2569_3526" x1="336.707" y1="21.0664" x2="433.529" y2="21.0664" gradientUnits="userSpaceOnUse">
<stop stop-color="#4AB7E8"/>
<stop offset="0.0656" stop-color="#55ACE1"/>
<stop offset="0.1823" stop-color="#738DCF"/>
<stop offset="0.3367" stop-color="#A35CB1"/>
<stop offset="0.503" stop-color="#DF1F8D"/>
<stop offset="0.5079" stop-color="#DF218B"/>
<stop offset="0.751" stop-color="#EC8441"/>
<stop offset="0.9201" stop-color="#F4C212"/>
<stop offset="1" stop-color="#F7DA00"/>
</linearGradient>
<linearGradient id="paint12_linear_2569_3526" x1="438.626" y1="36.2783" x2="535.448" y2="36.2783" gradientUnits="userSpaceOnUse">
<stop stop-color="#4AB7E8"/>
<stop offset="0.0656" stop-color="#55ACE1"/>
<stop offset="0.1823" stop-color="#738DCF"/>
<stop offset="0.3367" stop-color="#A35CB1"/>
<stop offset="0.503" stop-color="#DF1F8D"/>
<stop offset="0.5079" stop-color="#DF218B"/>
<stop offset="0.751" stop-color="#EC8441"/>
<stop offset="0.9201" stop-color="#F4C212"/>
<stop offset="1" stop-color="#F7DA00"/>
</linearGradient>
<linearGradient id="paint13_linear_2569_3526" x1="405.863" y1="21.0664" x2="502.685" y2="21.0664" gradientUnits="userSpaceOnUse">
<stop stop-color="#4AB7E8"/>
<stop offset="0.0656" stop-color="#55ACE1"/>
<stop offset="0.1823" stop-color="#738DCF"/>
<stop offset="0.3367" stop-color="#A35CB1"/>
<stop offset="0.503" stop-color="#DF1F8D"/>
<stop offset="0.5079" stop-color="#DF218B"/>
<stop offset="0.751" stop-color="#EC8441"/>
<stop offset="0.9201" stop-color="#F4C212"/>
<stop offset="1" stop-color="#F7DA00"/>
</linearGradient>
<linearGradient id="paint14_linear_2569_3526" x1="507.778" y1="36.2783" x2="604.6" y2="36.2783" gradientUnits="userSpaceOnUse">
<stop stop-color="#4AB7E8"/>
<stop offset="0.0656" stop-color="#55ACE1"/>
<stop offset="0.1823" stop-color="#738DCF"/>
<stop offset="0.3367" stop-color="#A35CB1"/>
<stop offset="0.503" stop-color="#DF1F8D"/>
<stop offset="0.5079" stop-color="#DF218B"/>
<stop offset="0.751" stop-color="#EC8441"/>
<stop offset="0.9201" stop-color="#F4C212"/>
<stop offset="1" stop-color="#F7DA00"/>
</linearGradient>
<linearGradient id="paint15_linear_2569_3526" x1="475.015" y1="21.0664" x2="571.837" y2="21.0664" gradientUnits="userSpaceOnUse">
<stop stop-color="#4AB7E8"/>
<stop offset="0.0656" stop-color="#55ACE1"/>
<stop offset="0.1823" stop-color="#738DCF"/>
<stop offset="0.3367" stop-color="#A35CB1"/>
<stop offset="0.503" stop-color="#DF1F8D"/>
<stop offset="0.5079" stop-color="#DF218B"/>
<stop offset="0.751" stop-color="#EC8441"/>
<stop offset="0.9201" stop-color="#F4C212"/>
<stop offset="1" stop-color="#F7DA00"/>
</linearGradient>
<linearGradient id="paint16_linear_2569_3526" x1="576.93" y1="36.2783" x2="673.753" y2="36.2783" gradientUnits="userSpaceOnUse">
<stop stop-color="#4AB7E8"/>
<stop offset="0.0656" stop-color="#55ACE1"/>
<stop offset="0.1823" stop-color="#738DCF"/>
<stop offset="0.3367" stop-color="#A35CB1"/>
<stop offset="0.503" stop-color="#DF1F8D"/>
<stop offset="0.5079" stop-color="#DF218B"/>
<stop offset="0.751" stop-color="#EC8441"/>
<stop offset="0.9201" stop-color="#F4C212"/>
<stop offset="1" stop-color="#F7DA00"/>
</linearGradient>
<linearGradient id="paint17_linear_2569_3526" x1="544.167" y1="21.0664" x2="640.99" y2="21.0664" gradientUnits="userSpaceOnUse">
<stop stop-color="#4AB7E8"/>
<stop offset="0.0656" stop-color="#55ACE1"/>
<stop offset="0.1823" stop-color="#738DCF"/>
<stop offset="0.3367" stop-color="#A35CB1"/>
<stop offset="0.503" stop-color="#DF1F8D"/>
<stop offset="0.5079" stop-color="#DF218B"/>
<stop offset="0.751" stop-color="#EC8441"/>
<stop offset="0.9201" stop-color="#F4C212"/>
<stop offset="1" stop-color="#F7DA00"/>
</linearGradient>
<linearGradient id="paint18_linear_2569_3526" x1="646.087" y1="36.2783" x2="742.909" y2="36.2783" gradientUnits="userSpaceOnUse">
<stop stop-color="#4AB7E8"/>
<stop offset="0.0656" stop-color="#55ACE1"/>
<stop offset="0.1823" stop-color="#738DCF"/>
<stop offset="0.3367" stop-color="#A35CB1"/>
<stop offset="0.503" stop-color="#DF1F8D"/>
<stop offset="0.5079" stop-color="#DF218B"/>
<stop offset="0.751" stop-color="#EC8441"/>
<stop offset="0.9201" stop-color="#F4C212"/>
<stop offset="1" stop-color="#F7DA00"/>
</linearGradient>
<linearGradient id="paint19_linear_2569_3526" x1="613.324" y1="21.0664" x2="710.146" y2="21.0664" gradientUnits="userSpaceOnUse">
<stop stop-color="#4AB7E8"/>
<stop offset="0.0656" stop-color="#55ACE1"/>
<stop offset="0.1823" stop-color="#738DCF"/>
<stop offset="0.3367" stop-color="#A35CB1"/>
<stop offset="0.503" stop-color="#DF1F8D"/>
<stop offset="0.5079" stop-color="#DF218B"/>
<stop offset="0.751" stop-color="#EC8441"/>
<stop offset="0.9201" stop-color="#F4C212"/>
<stop offset="1" stop-color="#F7DA00"/>
</linearGradient>
<linearGradient id="paint20_linear_2569_3526" x1="715.239" y1="36.2783" x2="812.061" y2="36.2783" gradientUnits="userSpaceOnUse">
<stop stop-color="#4AB7E8"/>
<stop offset="0.0656" stop-color="#55ACE1"/>
<stop offset="0.1823" stop-color="#738DCF"/>
<stop offset="0.3367" stop-color="#A35CB1"/>
<stop offset="0.503" stop-color="#DF1F8D"/>
<stop offset="0.5079" stop-color="#DF218B"/>
<stop offset="0.751" stop-color="#EC8441"/>
<stop offset="0.9201" stop-color="#F4C212"/>
<stop offset="1" stop-color="#F7DA00"/>
</linearGradient>
<linearGradient id="paint21_linear_2569_3526" x1="682.476" y1="21.0664" x2="779.298" y2="21.0664" gradientUnits="userSpaceOnUse">
<stop stop-color="#4AB7E8"/>
<stop offset="0.0656" stop-color="#55ACE1"/>
<stop offset="0.1823" stop-color="#738DCF"/>
<stop offset="0.3367" stop-color="#A35CB1"/>
<stop offset="0.503" stop-color="#DF1F8D"/>
<stop offset="0.5079" stop-color="#DF218B"/>
<stop offset="0.751" stop-color="#EC8441"/>
<stop offset="0.9201" stop-color="#F4C212"/>
<stop offset="1" stop-color="#F7DA00"/>
</linearGradient>
<linearGradient id="paint22_linear_2569_3526" x1="784.391" y1="36.2783" x2="881.214" y2="36.2783" gradientUnits="userSpaceOnUse">
<stop stop-color="#4AB7E8"/>
<stop offset="0.0656" stop-color="#55ACE1"/>
<stop offset="0.1823" stop-color="#738DCF"/>
<stop offset="0.3367" stop-color="#A35CB1"/>
<stop offset="0.503" stop-color="#DF1F8D"/>
<stop offset="0.5079" stop-color="#DF218B"/>
<stop offset="0.751" stop-color="#EC8441"/>
<stop offset="0.9201" stop-color="#F4C212"/>
<stop offset="1" stop-color="#F7DA00"/>
</linearGradient>
<linearGradient id="paint23_linear_2569_3526" x1="751.628" y1="21.0664" x2="848.451" y2="21.0664" gradientUnits="userSpaceOnUse">
<stop stop-color="#4AB7E8"/>
<stop offset="0.0656" stop-color="#55ACE1"/>
<stop offset="0.1823" stop-color="#738DCF"/>
<stop offset="0.3367" stop-color="#A35CB1"/>
<stop offset="0.503" stop-color="#DF1F8D"/>
<stop offset="0.5079" stop-color="#DF218B"/>
<stop offset="0.751" stop-color="#EC8441"/>
<stop offset="0.9201" stop-color="#F4C212"/>
<stop offset="1" stop-color="#F7DA00"/>
</linearGradient>
<linearGradient id="paint24_linear_2569_3526" x1="853.548" y1="36.2783" x2="950.37" y2="36.2783" gradientUnits="userSpaceOnUse">
<stop stop-color="#4AB7E8"/>
<stop offset="0.0656" stop-color="#55ACE1"/>
<stop offset="0.1823" stop-color="#738DCF"/>
<stop offset="0.3367" stop-color="#A35CB1"/>
<stop offset="0.503" stop-color="#DF1F8D"/>
<stop offset="0.5079" stop-color="#DF218B"/>
<stop offset="0.751" stop-color="#EC8441"/>
<stop offset="0.9201" stop-color="#F4C212"/>
<stop offset="1" stop-color="#F7DA00"/>
</linearGradient>
<linearGradient id="paint25_linear_2569_3526" x1="820.785" y1="21.0664" x2="917.607" y2="21.0664" gradientUnits="userSpaceOnUse">
<stop stop-color="#4AB7E8"/>
<stop offset="0.0656" stop-color="#55ACE1"/>
<stop offset="0.1823" stop-color="#738DCF"/>
<stop offset="0.3367" stop-color="#A35CB1"/>
<stop offset="0.503" stop-color="#DF1F8D"/>
<stop offset="0.5079" stop-color="#DF218B"/>
<stop offset="0.751" stop-color="#EC8441"/>
<stop offset="0.9201" stop-color="#F4C212"/>
<stop offset="1" stop-color="#F7DA00"/>
</linearGradient>
<linearGradient id="paint26_linear_2569_3526" x1="922.7" y1="36.2783" x2="1019.52" y2="36.2783" gradientUnits="userSpaceOnUse">
<stop stop-color="#4AB7E8"/>
<stop offset="0.0656" stop-color="#55ACE1"/>
<stop offset="0.1823" stop-color="#738DCF"/>
<stop offset="0.3367" stop-color="#A35CB1"/>
<stop offset="0.503" stop-color="#DF1F8D"/>
<stop offset="0.5079" stop-color="#DF218B"/>
<stop offset="0.751" stop-color="#EC8441"/>
<stop offset="0.9201" stop-color="#F4C212"/>
<stop offset="1" stop-color="#F7DA00"/>
</linearGradient>
<linearGradient id="paint27_linear_2569_3526" x1="889.937" y1="21.0664" x2="986.759" y2="21.0664" gradientUnits="userSpaceOnUse">
<stop stop-color="#4AB7E8"/>
<stop offset="0.0656" stop-color="#55ACE1"/>
<stop offset="0.1823" stop-color="#738DCF"/>
<stop offset="0.3367" stop-color="#A35CB1"/>
<stop offset="0.503" stop-color="#DF1F8D"/>
<stop offset="0.5079" stop-color="#DF218B"/>
<stop offset="0.751" stop-color="#EC8441"/>
<stop offset="0.9201" stop-color="#F4C212"/>
<stop offset="1" stop-color="#F7DA00"/>
</linearGradient>
<linearGradient id="paint28_linear_2569_3526" x1="991.856" y1="36.2783" x2="1088.68" y2="36.2783" gradientUnits="userSpaceOnUse">
<stop stop-color="#4AB7E8"/>
<stop offset="0.0656" stop-color="#55ACE1"/>
<stop offset="0.1823" stop-color="#738DCF"/>
<stop offset="0.3367" stop-color="#A35CB1"/>
<stop offset="0.503" stop-color="#DF1F8D"/>
<stop offset="0.5079" stop-color="#DF218B"/>
<stop offset="0.751" stop-color="#EC8441"/>
<stop offset="0.9201" stop-color="#F4C212"/>
<stop offset="1" stop-color="#F7DA00"/>
</linearGradient>
<linearGradient id="paint29_linear_2569_3526" x1="959.093" y1="21.0664" x2="1055.92" y2="21.0664" gradientUnits="userSpaceOnUse">
<stop stop-color="#4AB7E8"/>
<stop offset="0.0656" stop-color="#55ACE1"/>
<stop offset="0.1823" stop-color="#738DCF"/>
<stop offset="0.3367" stop-color="#A35CB1"/>
<stop offset="0.503" stop-color="#DF1F8D"/>
<stop offset="0.5079" stop-color="#DF218B"/>
<stop offset="0.751" stop-color="#EC8441"/>
<stop offset="0.9201" stop-color="#F4C212"/>
<stop offset="1" stop-color="#F7DA00"/>
</linearGradient>
<linearGradient id="paint30_linear_2569_3526" x1="1028.25" y1="21.0664" x2="1125.07" y2="21.0664" gradientUnits="userSpaceOnUse">
<stop stop-color="#4AB7E8"/>
<stop offset="0.0656" stop-color="#55ACE1"/>
<stop offset="0.1823" stop-color="#738DCF"/>
<stop offset="0.3367" stop-color="#A35CB1"/>
<stop offset="0.503" stop-color="#DF1F8D"/>
<stop offset="0.5079" stop-color="#DF218B"/>
<stop offset="0.751" stop-color="#EC8441"/>
<stop offset="0.9201" stop-color="#F4C212"/>
<stop offset="1" stop-color="#F7DA00"/>
</linearGradient>
<clipPath id="clip0_2569_3526">
<rect width="1080" height="53.1218" fill="white"/>
</clipPath>
</defs>
</svg>
