<svg width="158" height="325" viewBox="0 0 158 325" fill="none" xmlns="http://www.w3.org/2000/svg">
<g clip-path="url(#clip0_2577_3859)">
<path d="M4.65165 99.5318C8.54099 99.5318 11.6939 96.3789 11.6939 92.4895C11.6939 88.6002 8.54099 85.4473 4.65165 85.4473C0.762311 85.4473 -2.39062 88.6002 -2.39062 92.4895C-2.39062 96.3789 0.762311 99.5318 4.65165 99.5318Z" fill="#F7DA00"/>
<path d="M4.65165 152.467C8.54099 152.467 11.6939 149.314 11.6939 145.425C11.6939 141.536 8.54099 138.383 4.65165 138.383C0.762311 138.383 -2.39062 141.536 -2.39062 145.425C-2.39062 149.314 0.762311 152.467 4.65165 152.467Z" fill="#F7DA00"/>
<path d="M4.65165 205.407C8.54099 205.407 11.6939 202.254 11.6939 198.365C11.6939 194.475 8.54099 191.322 4.65165 191.322C0.762311 191.322 -2.39062 194.475 -2.39062 198.365C-2.39062 202.254 0.762311 205.407 4.65165 205.407Z" fill="#F7DA00"/>
<path d="M4.65165 258.344C8.54099 258.344 11.6939 255.191 11.6939 251.302C11.6939 247.413 8.54099 244.26 4.65165 244.26C0.762311 244.26 -2.39062 247.413 -2.39062 251.302C-2.39062 255.191 0.762311 258.344 4.65165 258.344Z" fill="#F7DA00"/>
<path d="M4.65165 311.284C8.54099 311.284 11.6939 308.131 11.6939 304.241C11.6939 300.352 8.54099 297.199 4.65165 297.199C0.762311 297.199 -2.39062 300.352 -2.39062 304.241C-2.39062 308.131 0.762311 311.284 4.65165 311.284Z" fill="#F7DA00"/>
<path d="M27.3095 78.6523C33.4844 78.6523 38.4902 73.6465 38.4902 67.4716C38.4902 61.2968 33.4844 56.291 27.3095 56.291C21.1346 56.291 16.1289 61.2968 16.1289 67.4716C16.1289 73.6465 21.1346 78.6523 27.3095 78.6523Z" fill="#F7DA00"/>
<path d="M27.3095 129.861C33.4844 129.861 38.4902 124.856 38.4902 118.681C38.4902 112.506 33.4844 107.5 27.3095 107.5C21.1346 107.5 16.1289 112.506 16.1289 118.681C16.1289 124.856 21.1346 129.861 27.3095 129.861Z" fill="#F7DA00"/>
<path d="M27.3095 184.07C33.4844 184.07 38.4902 179.065 38.4902 172.89C38.4902 166.715 33.4844 161.709 27.3095 161.709C21.1346 161.709 16.1289 166.715 16.1289 172.89C16.1289 179.065 21.1346 184.07 27.3095 184.07Z" fill="#F7DA00"/>
<path d="M27.3095 235.541C33.4844 235.541 38.4902 230.535 38.4902 224.36C38.4902 218.185 33.4844 213.18 27.3095 213.18C21.1346 213.18 16.1289 218.185 16.1289 224.36C16.1289 230.535 21.1346 235.541 27.3095 235.541Z" fill="#F7DA00"/>
<path d="M27.3095 288.951C33.4844 288.951 38.4902 283.945 38.4902 277.77C38.4902 271.596 33.4844 266.59 27.3095 266.59C21.1346 266.59 16.1289 271.596 16.1289 277.77C16.1289 283.945 21.1346 288.951 27.3095 288.951Z" fill="#F7DA00"/>
<path d="M27.3095 22.3281C33.4844 22.3281 38.4902 17.3223 38.4902 11.1474C38.4902 4.97253 33.4844 -0.0332031 27.3095 -0.0332031C21.1346 -0.0332031 16.1289 4.97253 16.1289 11.1474C16.1289 17.3223 21.1346 22.3281 27.3095 22.3281Z" fill="#F7DA00"/>
<path d="M49.6204 99.5318C53.5097 99.5318 56.6627 96.3789 56.6627 92.4895C56.6627 88.6002 53.5097 85.4473 49.6204 85.4473C45.7311 85.4473 42.5781 88.6002 42.5781 92.4895C42.5781 96.3789 45.7311 99.5318 49.6204 99.5318Z" fill="#F7DA00"/>
<path d="M49.6204 152.467C53.5097 152.467 56.6627 149.314 56.6627 145.425C56.6627 141.536 53.5097 138.383 49.6204 138.383C45.7311 138.383 42.5781 141.536 42.5781 145.425C42.5781 149.314 45.7311 152.467 49.6204 152.467Z" fill="#F7DA00"/>
<path d="M49.6204 205.407C53.5097 205.407 56.6627 202.254 56.6627 198.365C56.6627 194.475 53.5097 191.322 49.6204 191.322C45.7311 191.322 42.5781 194.475 42.5781 198.365C42.5781 202.254 45.7311 205.407 49.6204 205.407Z" fill="#F7DA00"/>
<path d="M49.6204 258.344C53.5097 258.344 56.6627 255.191 56.6627 251.302C56.6627 247.413 53.5097 244.26 49.6204 244.26C45.7311 244.26 42.5781 247.413 42.5781 251.302C42.5781 255.191 45.7311 258.344 49.6204 258.344Z" fill="#F7DA00"/>
<path d="M49.6204 311.284C53.5097 311.284 56.6627 308.131 56.6627 304.241C56.6627 300.352 53.5097 297.199 49.6204 297.199C45.7311 297.199 42.5781 300.352 42.5781 304.241C42.5781 308.131 45.7311 311.284 49.6204 311.284Z" fill="#F7DA00"/>
<path d="M49.6204 46.5943C53.5097 46.5943 56.6627 43.4414 56.6627 39.552C56.6627 35.6627 53.5097 32.5098 49.6204 32.5098C45.7311 32.5098 42.5781 35.6627 42.5781 39.552C42.5781 43.4414 45.7311 46.5943 49.6204 46.5943Z" fill="#F7DA00"/>
<path d="M72.2744 78.6523C78.4493 78.6523 83.455 73.6465 83.455 67.4716C83.455 61.2968 78.4493 56.291 72.2744 56.291C66.0995 56.291 61.0938 61.2968 61.0938 67.4716C61.0938 73.6465 66.0995 78.6523 72.2744 78.6523Z" fill="#F7DA00"/>
<path d="M72.2744 129.861C78.4493 129.861 83.455 124.856 83.455 118.681C83.455 112.506 78.4493 107.5 72.2744 107.5C66.0995 107.5 61.0938 112.506 61.0938 118.681C61.0938 124.856 66.0995 129.861 72.2744 129.861Z" fill="#F7DA00"/>
<path d="M72.2744 184.07C78.4493 184.07 83.455 179.065 83.455 172.89C83.455 166.715 78.4493 161.709 72.2744 161.709C66.0995 161.709 61.0938 166.715 61.0938 172.89C61.0938 179.065 66.0995 184.07 72.2744 184.07Z" fill="#F7DA00"/>
<path d="M72.2744 235.541C78.4493 235.541 83.455 230.535 83.455 224.36C83.455 218.185 78.4493 213.18 72.2744 213.18C66.0995 213.18 61.0938 218.185 61.0938 224.36C61.0938 230.535 66.0995 235.541 72.2744 235.541Z" fill="#F7DA00"/>
<path d="M94.5852 99.5318C98.4746 99.5318 101.628 96.3789 101.628 92.4895C101.628 88.6002 98.4746 85.4473 94.5852 85.4473C90.6959 85.4473 87.543 88.6002 87.543 92.4895C87.543 96.3789 90.6959 99.5318 94.5852 99.5318Z" fill="#F7DA00"/>
<path d="M94.5852 152.467C98.4746 152.467 101.628 149.314 101.628 145.425C101.628 141.536 98.4746 138.383 94.5852 138.383C90.6959 138.383 87.543 141.536 87.543 145.425C87.543 149.314 90.6959 152.467 94.5852 152.467Z" fill="#F7DA00"/>
<path d="M94.5852 205.407C98.4746 205.407 101.628 202.254 101.628 198.365C101.628 194.475 98.4746 191.322 94.5852 191.322C90.6959 191.322 87.543 194.475 87.543 198.365C87.543 202.254 90.6959 205.407 94.5852 205.407Z" fill="#F7DA00"/>
<path d="M94.5852 258.344C98.4746 258.344 101.628 255.191 101.628 251.302C101.628 247.413 98.4746 244.26 94.5852 244.26C90.6959 244.26 87.543 247.413 87.543 251.302C87.543 255.191 90.6959 258.344 94.5852 258.344Z" fill="#F7DA00"/>
<path d="M117.243 129.861C123.418 129.861 128.424 124.856 128.424 118.681C128.424 112.506 123.418 107.5 117.243 107.5C111.068 107.5 106.062 112.506 106.062 118.681C106.062 124.856 111.068 129.861 117.243 129.861Z" fill="#F7DA00"/>
<path d="M117.243 184.07C123.418 184.07 128.424 179.065 128.424 172.89C128.424 166.715 123.418 161.709 117.243 161.709C111.068 161.709 106.062 166.715 106.062 172.89C106.062 179.065 111.068 184.07 117.243 184.07Z" fill="#F7DA00"/>
<path d="M139.55 152.467C143.439 152.467 146.592 149.314 146.592 145.425C146.592 141.536 143.439 138.383 139.55 138.383C135.661 138.383 132.508 141.536 132.508 145.425C132.508 149.314 135.661 152.467 139.55 152.467Z" fill="#F7DA00"/>
<path d="M139.55 205.407C143.439 205.407 146.592 202.254 146.592 198.365C146.592 194.475 143.439 191.322 139.55 191.322C135.661 191.322 132.508 194.475 132.508 198.365C132.508 202.254 135.661 205.407 139.55 205.407Z" fill="#F7DA00"/>
<path d="M-6.47172 87.8788C-0.296831 87.8788 4.7089 82.8731 4.7089 76.6982C4.7089 70.5233 -0.296831 65.5176 -6.47172 65.5176C-12.6466 65.5176 -17.6523 70.5233 -17.6523 76.6982C-17.6523 82.8731 -12.6466 87.8788 -6.47172 87.8788Z" fill="#F7DA00" fill-opacity="0.2"/>
<path d="M-6.47172 139.088C-0.296831 139.088 4.7089 134.082 4.7089 127.907C4.7089 121.732 -0.296831 116.727 -6.47172 116.727C-12.6466 116.727 -17.6523 121.732 -17.6523 127.907C-17.6523 134.082 -12.6466 139.088 -6.47172 139.088Z" fill="#F7DA00" fill-opacity="0.2"/>
<path d="M-6.47172 193.297C-0.296831 193.297 4.7089 188.291 4.7089 182.116C4.7089 175.941 -0.296831 170.936 -6.47172 170.936C-12.6466 170.936 -17.6523 175.941 -17.6523 182.116C-17.6523 188.291 -12.6466 193.297 -6.47172 193.297Z" fill="#F7DA00" fill-opacity="0.2"/>
<path d="M-6.47172 244.767C-0.296831 244.767 4.7089 239.762 4.7089 233.587C4.7089 227.412 -0.296831 222.406 -6.47172 222.406C-12.6466 222.406 -17.6523 227.412 -17.6523 233.587C-17.6523 239.762 -12.6466 244.767 -6.47172 244.767Z" fill="#F7DA00" fill-opacity="0.2"/>
<path d="M-6.47172 298.178C-0.296831 298.178 4.7089 293.172 4.7089 286.997C4.7089 280.822 -0.296831 275.816 -6.47172 275.816C-12.6466 275.816 -17.6523 280.822 -17.6523 286.997C-17.6523 293.172 -12.6466 298.178 -6.47172 298.178Z" fill="#F7DA00" fill-opacity="0.2"/>
<path d="M15.8313 108.758C19.7207 108.758 22.8736 105.605 22.8736 101.716C22.8736 97.8268 19.7207 94.6738 15.8313 94.6738C11.942 94.6738 8.78906 97.8268 8.78906 101.716C8.78906 105.605 11.942 108.758 15.8313 108.758Z" fill="#F7DA00" fill-opacity="0.2"/>
<path d="M15.8313 161.694C19.7207 161.694 22.8736 158.541 22.8736 154.652C22.8736 150.762 19.7207 147.609 15.8313 147.609C11.942 147.609 8.78906 150.762 8.78906 154.652C8.78906 158.541 11.942 161.694 15.8313 161.694Z" fill="#F7DA00" fill-opacity="0.2"/>
<path d="M15.8313 214.633C19.7207 214.633 22.8736 211.48 22.8736 207.591C22.8736 203.702 19.7207 200.549 15.8313 200.549C11.942 200.549 8.78906 203.702 8.78906 207.591C8.78906 211.48 11.942 214.633 15.8313 214.633Z" fill="#F7DA00" fill-opacity="0.2"/>
<path d="M15.8313 267.571C19.7207 267.571 22.8736 264.418 22.8736 260.529C22.8736 256.639 19.7207 253.486 15.8313 253.486C11.942 253.486 8.78906 256.639 8.78906 260.529C8.78906 264.418 11.942 267.571 15.8313 267.571Z" fill="#F7DA00" fill-opacity="0.2"/>
<path d="M15.8313 320.51C19.7207 320.51 22.8736 317.357 22.8736 313.468C22.8736 309.579 19.7207 306.426 15.8313 306.426C11.942 306.426 8.78906 309.579 8.78906 313.468C8.78906 317.357 11.942 320.51 15.8313 320.51Z" fill="#F7DA00" fill-opacity="0.2"/>
<path d="M38.4892 87.8788C44.6641 87.8788 49.6699 82.8731 49.6699 76.6982C49.6699 70.5233 44.6641 65.5176 38.4892 65.5176C32.3143 65.5176 27.3086 70.5233 27.3086 76.6982C27.3086 82.8731 32.3143 87.8788 38.4892 87.8788Z" fill="#F7DA00" fill-opacity="0.2"/>
<path d="M38.4892 139.088C44.6641 139.088 49.6699 134.082 49.6699 127.907C49.6699 121.732 44.6641 116.727 38.4892 116.727C32.3143 116.727 27.3086 121.732 27.3086 127.907C27.3086 134.082 32.3143 139.088 38.4892 139.088Z" fill="#F7DA00" fill-opacity="0.2"/>
<path d="M38.4892 193.297C44.6641 193.297 49.6699 188.291 49.6699 182.116C49.6699 175.941 44.6641 170.936 38.4892 170.936C32.3143 170.936 27.3086 175.941 27.3086 182.116C27.3086 188.291 32.3143 193.297 38.4892 193.297Z" fill="#F7DA00" fill-opacity="0.2"/>
<path d="M38.4892 244.767C44.6641 244.767 49.6699 239.762 49.6699 233.587C49.6699 227.412 44.6641 222.406 38.4892 222.406C32.3143 222.406 27.3086 227.412 27.3086 233.587C27.3086 239.762 32.3143 244.767 38.4892 244.767Z" fill="#F7DA00" fill-opacity="0.2"/>
<path d="M38.4892 298.178C44.6641 298.178 49.6699 293.172 49.6699 286.997C49.6699 280.822 44.6641 275.816 38.4892 275.816C32.3143 275.816 27.3086 280.822 27.3086 286.997C27.3086 293.172 32.3143 298.178 38.4892 298.178Z" fill="#F7DA00" fill-opacity="0.2"/>
<path d="M38.4892 31.5546C44.6641 31.5546 49.6699 26.5489 49.6699 20.374C49.6699 14.1991 44.6641 9.19336 38.4892 9.19336C32.3143 9.19336 27.3086 14.1991 27.3086 20.374C27.3086 26.5489 32.3143 31.5546 38.4892 31.5546Z" fill="#F7DA00" fill-opacity="0.2"/>
<path d="M60.8001 108.758C64.6894 108.758 67.8424 105.605 67.8424 101.716C67.8424 97.8268 64.6894 94.6738 60.8001 94.6738C56.9107 94.6738 53.7578 97.8268 53.7578 101.716C53.7578 105.605 56.9107 108.758 60.8001 108.758Z" fill="#F7DA00" fill-opacity="0.2"/>
<path d="M60.8001 161.694C64.6894 161.694 67.8424 158.541 67.8424 154.652C67.8424 150.762 64.6894 147.609 60.8001 147.609C56.9107 147.609 53.7578 150.762 53.7578 154.652C53.7578 158.541 56.9107 161.694 60.8001 161.694Z" fill="#F7DA00" fill-opacity="0.2"/>
<path d="M60.8001 214.633C64.6894 214.633 67.8424 211.48 67.8424 207.591C67.8424 203.702 64.6894 200.549 60.8001 200.549C56.9107 200.549 53.7578 203.702 53.7578 207.591C53.7578 211.48 56.9107 214.633 60.8001 214.633Z" fill="#F7DA00" fill-opacity="0.2"/>
<path d="M60.8001 267.571C64.6894 267.571 67.8424 264.418 67.8424 260.529C67.8424 256.639 64.6894 253.486 60.8001 253.486C56.9107 253.486 53.7578 256.639 53.7578 260.529C53.7578 264.418 56.9107 267.571 60.8001 267.571Z" fill="#F7DA00" fill-opacity="0.2"/>
<path d="M60.8001 320.51C64.6894 320.51 67.8424 317.357 67.8424 313.468C67.8424 309.579 64.6894 306.426 60.8001 306.426C56.9107 306.426 53.7578 309.579 53.7578 313.468C53.7578 317.357 56.9107 320.51 60.8001 320.51Z" fill="#F7DA00" fill-opacity="0.2"/>
<path d="M60.8001 55.8209C64.6894 55.8209 67.8424 52.6679 67.8424 48.7786C67.8424 44.8893 64.6894 41.7363 60.8001 41.7363C56.9107 41.7363 53.7578 44.8893 53.7578 48.7786C53.7578 52.6679 56.9107 55.8209 60.8001 55.8209Z" fill="#F7DA00" fill-opacity="0.2"/>
<path d="M83.4541 87.8788C89.6289 87.8788 94.6347 82.8731 94.6347 76.6982C94.6347 70.5233 89.6289 65.5176 83.4541 65.5176C77.2792 65.5176 72.2734 70.5233 72.2734 76.6982C72.2734 82.8731 77.2792 87.8788 83.4541 87.8788Z" fill="#F7DA00" fill-opacity="0.2"/>
<path d="M83.4541 139.088C89.6289 139.088 94.6347 134.082 94.6347 127.907C94.6347 121.732 89.6289 116.727 83.4541 116.727C77.2792 116.727 72.2734 121.732 72.2734 127.907C72.2734 134.082 77.2792 139.088 83.4541 139.088Z" fill="#F7DA00" fill-opacity="0.2"/>
<path d="M83.4541 193.297C89.6289 193.297 94.6347 188.291 94.6347 182.116C94.6347 175.941 89.6289 170.936 83.4541 170.936C77.2792 170.936 72.2734 175.941 72.2734 182.116C72.2734 188.291 77.2792 193.297 83.4541 193.297Z" fill="#F7DA00" fill-opacity="0.2"/>
<path d="M83.4541 244.767C89.6289 244.767 94.6347 239.762 94.6347 233.587C94.6347 227.412 89.6289 222.406 83.4541 222.406C77.2792 222.406 72.2734 227.412 72.2734 233.587C72.2734 239.762 77.2792 244.767 83.4541 244.767Z" fill="#F7DA00" fill-opacity="0.2"/>
<path d="M105.765 108.758C109.654 108.758 112.807 105.605 112.807 101.716C112.807 97.8268 109.654 94.6738 105.765 94.6738C101.876 94.6738 98.7227 97.8268 98.7227 101.716C98.7227 105.605 101.876 108.758 105.765 108.758Z" fill="#F7DA00" fill-opacity="0.2"/>
<path d="M105.765 161.694C109.654 161.694 112.807 158.541 112.807 154.652C112.807 150.762 109.654 147.609 105.765 147.609C101.876 147.609 98.7227 150.762 98.7227 154.652C98.7227 158.541 101.876 161.694 105.765 161.694Z" fill="#F7DA00" fill-opacity="0.2"/>
<path d="M105.765 214.633C109.654 214.633 112.807 211.48 112.807 207.591C112.807 203.702 109.654 200.549 105.765 200.549C101.876 200.549 98.7227 203.702 98.7227 207.591C98.7227 211.48 101.876 214.633 105.765 214.633Z" fill="#F7DA00" fill-opacity="0.2"/>
<path d="M105.765 267.571C109.654 267.571 112.807 264.418 112.807 260.529C112.807 256.639 109.654 253.486 105.765 253.486C101.876 253.486 98.7227 256.639 98.7227 260.529C98.7227 264.418 101.876 267.571 105.765 267.571Z" fill="#F7DA00" fill-opacity="0.2"/>
<path d="M128.423 139.088C134.598 139.088 139.603 134.082 139.603 127.907C139.603 121.732 134.598 116.727 128.423 116.727C122.248 116.727 117.242 121.732 117.242 127.907C117.242 134.082 122.248 139.088 128.423 139.088Z" fill="#F7DA00" fill-opacity="0.2"/>
<path d="M128.423 193.297C134.598 193.297 139.603 188.291 139.603 182.116C139.603 175.941 134.598 170.936 128.423 170.936C122.248 170.936 117.242 175.941 117.242 182.116C117.242 188.291 122.248 193.297 128.423 193.297Z" fill="#F7DA00" fill-opacity="0.2"/>
<path d="M150.73 161.694C154.619 161.694 157.772 158.541 157.772 154.652C157.772 150.762 154.619 147.609 150.73 147.609C146.84 147.609 143.688 150.762 143.688 154.652C143.688 158.541 146.84 161.694 150.73 161.694Z" fill="#F7DA00" fill-opacity="0.2"/>
<path d="M150.73 214.633C154.619 214.633 157.772 211.48 157.772 207.591C157.772 203.702 154.619 200.549 150.73 200.549C146.84 200.549 143.688 203.702 143.688 207.591C143.688 211.48 146.84 214.633 150.73 214.633Z" fill="#F7DA00" fill-opacity="0.2"/>
</g>
<defs>
<clipPath id="clip0_2577_3859">
<rect width="158" height="373" fill="white"/>
</clipPath>
</defs>
</svg>
