<svg width="154" height="374" viewBox="0 0 154 374" fill="none" xmlns="http://www.w3.org/2000/svg">
<g clip-path="url(#clip0_2577_3858)">
<path d="M0.432903 99.6471C4.32224 99.6471 7.47518 96.4941 7.47518 92.6048C7.47518 88.7154 4.32224 85.5625 0.432903 85.5625C-3.45644 85.5625 -6.60938 88.7154 -6.60938 92.6048C-6.60938 96.4941 -3.45644 99.6471 0.432903 99.6471Z" fill="#4AB7E8"/>
<path d="M0.432903 152.583C4.32224 152.583 7.47518 149.43 7.47518 145.54C7.47518 141.651 4.32224 138.498 0.432903 138.498C-3.45644 138.498 -6.60938 141.651 -6.60938 145.54C-6.60938 149.43 -3.45644 152.583 0.432903 152.583Z" fill="#4AB7E8"/>
<path d="M0.432903 205.522C4.32224 205.522 7.47518 202.369 7.47518 198.48C7.47518 194.59 4.32224 191.438 0.432903 191.438C-3.45644 191.438 -6.60938 194.59 -6.60938 198.48C-6.60938 202.369 -3.45644 205.522 0.432903 205.522Z" fill="#4AB7E8"/>
<path d="M0.432903 258.46C4.32224 258.46 7.47518 255.307 7.47518 251.417C7.47518 247.528 4.32224 244.375 0.432903 244.375C-3.45644 244.375 -6.60938 247.528 -6.60938 251.417C-6.60938 255.307 -3.45644 258.46 0.432903 258.46Z" fill="#4AB7E8"/>
<path d="M0.432903 311.399C4.32224 311.399 7.47518 308.246 7.47518 304.357C7.47518 300.467 4.32224 297.314 0.432903 297.314C-3.45644 297.314 -6.60938 300.467 -6.60938 304.357C-6.60938 308.246 -3.45644 311.399 0.432903 311.399Z" fill="#4AB7E8"/>
<path d="M0.432903 364.338C4.32224 364.338 7.47518 361.186 7.47518 357.296C7.47518 353.407 4.32224 350.254 0.432903 350.254C-3.45644 350.254 -6.60938 353.407 -6.60938 357.296C-6.60938 361.186 -3.45644 364.338 0.432903 364.338Z" fill="#4AB7E8"/>
<path d="M23.0908 78.7675C29.2657 78.7675 34.2714 73.7618 34.2714 67.5869C34.2714 61.412 29.2657 56.4062 23.0908 56.4062C16.9159 56.4062 11.9102 61.412 11.9102 67.5869C11.9102 73.7618 16.9159 78.7675 23.0908 78.7675Z" fill="#4AB7E8"/>
<path d="M23.0908 129.976C29.2657 129.976 34.2714 124.971 34.2714 118.796C34.2714 112.621 29.2657 107.615 23.0908 107.615C16.9159 107.615 11.9102 112.621 11.9102 118.796C11.9102 124.971 16.9159 129.976 23.0908 129.976Z" fill="#4AB7E8"/>
<path d="M23.0908 184.185C29.2657 184.185 34.2714 179.18 34.2714 173.005C34.2714 166.83 29.2657 161.824 23.0908 161.824C16.9159 161.824 11.9102 166.83 11.9102 173.005C11.9102 179.18 16.9159 184.185 23.0908 184.185Z" fill="#4AB7E8"/>
<path d="M23.0908 235.656C29.2657 235.656 34.2714 230.65 34.2714 224.476C34.2714 218.301 29.2657 213.295 23.0908 213.295C16.9159 213.295 11.9102 218.301 11.9102 224.476C11.9102 230.65 16.9159 235.656 23.0908 235.656Z" fill="#4AB7E8"/>
<path d="M23.0908 289.066C29.2657 289.066 34.2714 284.061 34.2714 277.886C34.2714 271.711 29.2657 266.705 23.0908 266.705C16.9159 266.705 11.9102 271.711 11.9102 277.886C11.9102 284.061 16.9159 289.066 23.0908 289.066Z" fill="#4AB7E8"/>
<path d="M23.0908 22.4433C29.2657 22.4433 34.2714 17.4375 34.2714 11.2627C34.2714 5.08777 29.2657 0.0820312 23.0908 0.0820312C16.9159 0.0820312 11.9102 5.08777 11.9102 11.2627C11.9102 17.4375 16.9159 22.4433 23.0908 22.4433Z" fill="#4AB7E8"/>
<path d="M45.4017 99.6471C49.291 99.6471 52.4439 96.4941 52.4439 92.6048C52.4439 88.7154 49.291 85.5625 45.4017 85.5625C41.5123 85.5625 38.3594 88.7154 38.3594 92.6048C38.3594 96.4941 41.5123 99.6471 45.4017 99.6471Z" fill="#4AB7E8"/>
<path d="M45.4017 152.583C49.291 152.583 52.4439 149.43 52.4439 145.54C52.4439 141.651 49.291 138.498 45.4017 138.498C41.5123 138.498 38.3594 141.651 38.3594 145.54C38.3594 149.43 41.5123 152.583 45.4017 152.583Z" fill="#4AB7E8"/>
<path d="M45.4017 205.522C49.291 205.522 52.4439 202.369 52.4439 198.48C52.4439 194.59 49.291 191.438 45.4017 191.438C41.5123 191.438 38.3594 194.59 38.3594 198.48C38.3594 202.369 41.5123 205.522 45.4017 205.522Z" fill="#4AB7E8"/>
<path d="M45.4017 258.46C49.291 258.46 52.4439 255.307 52.4439 251.417C52.4439 247.528 49.291 244.375 45.4017 244.375C41.5123 244.375 38.3594 247.528 38.3594 251.417C38.3594 255.307 41.5123 258.46 45.4017 258.46Z" fill="#4AB7E8"/>
<path d="M45.4017 311.399C49.291 311.399 52.4439 308.246 52.4439 304.357C52.4439 300.467 49.291 297.314 45.4017 297.314C41.5123 297.314 38.3594 300.467 38.3594 304.357C38.3594 308.246 41.5123 311.399 45.4017 311.399Z" fill="#4AB7E8"/>
<path d="M45.4017 46.7096C49.291 46.7096 52.4439 43.5566 52.4439 39.6673C52.4439 35.7779 49.291 32.625 45.4017 32.625C41.5123 32.625 38.3594 35.7779 38.3594 39.6673C38.3594 43.5566 41.5123 46.7096 45.4017 46.7096Z" fill="#4AB7E8"/>
<path d="M68.0556 78.7675C74.2305 78.7675 79.2362 73.7618 79.2362 67.5869C79.2362 61.412 74.2305 56.4062 68.0556 56.4062C61.8807 56.4062 56.875 61.412 56.875 67.5869C56.875 73.7618 61.8807 78.7675 68.0556 78.7675Z" fill="#4AB7E8"/>
<path d="M68.0556 129.976C74.2305 129.976 79.2362 124.971 79.2362 118.796C79.2362 112.621 74.2305 107.615 68.0556 107.615C61.8807 107.615 56.875 112.621 56.875 118.796C56.875 124.971 61.8807 129.976 68.0556 129.976Z" fill="#4AB7E8"/>
<path d="M68.0556 184.185C74.2305 184.185 79.2362 179.18 79.2362 173.005C79.2362 166.83 74.2305 161.824 68.0556 161.824C61.8807 161.824 56.875 166.83 56.875 173.005C56.875 179.18 61.8807 184.185 68.0556 184.185Z" fill="#4AB7E8"/>
<path d="M68.0556 235.656C74.2305 235.656 79.2362 230.65 79.2362 224.476C79.2362 218.301 74.2305 213.295 68.0556 213.295C61.8807 213.295 56.875 218.301 56.875 224.476C56.875 230.65 61.8807 235.656 68.0556 235.656Z" fill="#4AB7E8"/>
<path d="M90.3665 99.6471C94.2558 99.6471 97.4088 96.4941 97.4088 92.6048C97.4088 88.7154 94.2558 85.5625 90.3665 85.5625C86.4772 85.5625 83.3242 88.7154 83.3242 92.6048C83.3242 96.4941 86.4772 99.6471 90.3665 99.6471Z" fill="#4AB7E8"/>
<path d="M90.3665 152.583C94.2558 152.583 97.4088 149.43 97.4088 145.54C97.4088 141.651 94.2558 138.498 90.3665 138.498C86.4772 138.498 83.3242 141.651 83.3242 145.54C83.3242 149.43 86.4772 152.583 90.3665 152.583Z" fill="#4AB7E8"/>
<path d="M90.3665 205.522C94.2558 205.522 97.4088 202.369 97.4088 198.48C97.4088 194.59 94.2558 191.438 90.3665 191.438C86.4772 191.438 83.3242 194.59 83.3242 198.48C83.3242 202.369 86.4772 205.522 90.3665 205.522Z" fill="#4AB7E8"/>
<path d="M90.3665 258.46C94.2558 258.46 97.4088 255.307 97.4088 251.417C97.4088 247.528 94.2558 244.375 90.3665 244.375C86.4772 244.375 83.3242 247.528 83.3242 251.417C83.3242 255.307 86.4772 258.46 90.3665 258.46Z" fill="#4AB7E8"/>
<path d="M113.024 129.976C119.199 129.976 124.205 124.971 124.205 118.796C124.205 112.621 119.199 107.615 113.024 107.615C106.849 107.615 101.844 112.621 101.844 118.796C101.844 124.971 106.849 129.976 113.024 129.976Z" fill="#4AB7E8"/>
<path d="M113.024 184.185C119.199 184.185 124.205 179.18 124.205 173.005C124.205 166.83 119.199 161.824 113.024 161.824C106.849 161.824 101.844 166.83 101.844 173.005C101.844 179.18 106.849 184.185 113.024 184.185Z" fill="#4AB7E8"/>
<path d="M135.331 152.583C139.221 152.583 142.374 149.43 142.374 145.54C142.374 141.651 139.221 138.498 135.331 138.498C131.442 138.498 128.289 141.651 128.289 145.54C128.289 149.43 131.442 152.583 135.331 152.583Z" fill="#4AB7E8"/>
<path d="M135.331 205.522C139.221 205.522 142.374 202.369 142.374 198.48C142.374 194.59 139.221 191.438 135.331 191.438C131.442 191.438 128.289 194.59 128.289 198.48C128.289 202.369 131.442 205.522 135.331 205.522Z" fill="#4AB7E8"/>
<path d="M-10.6905 87.9941C-4.51558 87.9941 0.490154 82.9883 0.490154 76.8134C0.490154 70.6385 -4.51558 65.6328 -10.6905 65.6328C-16.8654 65.6328 -21.8711 70.6385 -21.8711 76.8134C-21.8711 82.9883 -16.8654 87.9941 -10.6905 87.9941Z" fill="#4AB7E8" fill-opacity="0.2"/>
<path d="M-10.6905 139.203C-4.51558 139.203 0.490154 134.197 0.490154 128.022C0.490154 121.848 -4.51558 116.842 -10.6905 116.842C-16.8654 116.842 -21.8711 121.848 -21.8711 128.022C-21.8711 134.197 -16.8654 139.203 -10.6905 139.203Z" fill="#4AB7E8" fill-opacity="0.2"/>
<path d="M-10.6905 193.412C-4.51558 193.412 0.490154 188.406 0.490154 182.231C0.490154 176.057 -4.51558 171.051 -10.6905 171.051C-16.8654 171.051 -21.8711 176.057 -21.8711 182.231C-21.8711 188.406 -16.8654 193.412 -10.6905 193.412Z" fill="#4AB7E8" fill-opacity="0.2"/>
<path d="M-10.6905 244.883C-4.51558 244.883 0.490154 239.877 0.490154 233.702C0.490154 227.527 -4.51558 222.521 -10.6905 222.521C-16.8654 222.521 -21.8711 227.527 -21.8711 233.702C-21.8711 239.877 -16.8654 244.883 -10.6905 244.883Z" fill="#4AB7E8" fill-opacity="0.2"/>
<path d="M-10.6905 298.293C-4.51558 298.293 0.490154 293.287 0.490154 287.112C0.490154 280.937 -4.51558 275.932 -10.6905 275.932C-16.8654 275.932 -21.8711 280.937 -21.8711 287.112C-21.8711 293.287 -16.8654 298.293 -10.6905 298.293Z" fill="#4AB7E8" fill-opacity="0.2"/>
<path d="M-10.6905 352.527C-4.51558 352.527 0.490154 347.522 0.490154 341.347C0.490154 335.172 -4.51558 330.166 -10.6905 330.166C-16.8654 330.166 -21.8711 335.172 -21.8711 341.347C-21.8711 347.522 -16.8654 352.527 -10.6905 352.527Z" fill="#4AB7E8" fill-opacity="0.2"/>
<path d="M11.6126 108.874C15.5019 108.874 18.6549 105.721 18.6549 101.831C18.6549 97.942 15.5019 94.7891 11.6126 94.7891C7.72325 94.7891 4.57031 97.942 4.57031 101.831C4.57031 105.721 7.72325 108.874 11.6126 108.874Z" fill="#4AB7E8" fill-opacity="0.2"/>
<path d="M11.6126 161.809C15.5019 161.809 18.6549 158.656 18.6549 154.767C18.6549 150.878 15.5019 147.725 11.6126 147.725C7.72325 147.725 4.57031 150.878 4.57031 154.767C4.57031 158.656 7.72325 161.809 11.6126 161.809Z" fill="#4AB7E8" fill-opacity="0.2"/>
<path d="M11.6126 214.749C15.5019 214.749 18.6549 211.596 18.6549 207.706C18.6549 203.817 15.5019 200.664 11.6126 200.664C7.72325 200.664 4.57031 203.817 4.57031 207.706C4.57031 211.596 7.72325 214.749 11.6126 214.749Z" fill="#4AB7E8" fill-opacity="0.2"/>
<path d="M11.6126 267.686C15.5019 267.686 18.6549 264.533 18.6549 260.644C18.6549 256.754 15.5019 253.602 11.6126 253.602C7.72325 253.602 4.57031 256.754 4.57031 260.644C4.57031 264.533 7.72325 267.686 11.6126 267.686Z" fill="#4AB7E8" fill-opacity="0.2"/>
<path d="M11.6126 320.626C15.5019 320.626 18.6549 317.473 18.6549 313.583C18.6549 309.694 15.5019 306.541 11.6126 306.541C7.72325 306.541 4.57031 309.694 4.57031 313.583C4.57031 317.473 7.72325 320.626 11.6126 320.626Z" fill="#4AB7E8" fill-opacity="0.2"/>
<path d="M11.6126 373.565C15.5019 373.565 18.6549 370.412 18.6549 366.523C18.6549 362.633 15.5019 359.48 11.6126 359.48C7.72325 359.48 4.57031 362.633 4.57031 366.523C4.57031 370.412 7.72325 373.565 11.6126 373.565Z" fill="#4AB7E8" fill-opacity="0.2"/>
<path d="M34.2705 87.9941C40.4454 87.9941 45.4511 82.9883 45.4511 76.8134C45.4511 70.6385 40.4454 65.6328 34.2705 65.6328C28.0956 65.6328 23.0898 70.6385 23.0898 76.8134C23.0898 82.9883 28.0956 87.9941 34.2705 87.9941Z" fill="#4AB7E8" fill-opacity="0.2"/>
<path d="M34.2705 139.203C40.4454 139.203 45.4511 134.197 45.4511 128.022C45.4511 121.848 40.4454 116.842 34.2705 116.842C28.0956 116.842 23.0898 121.848 23.0898 128.022C23.0898 134.197 28.0956 139.203 34.2705 139.203Z" fill="#4AB7E8" fill-opacity="0.2"/>
<path d="M34.2705 193.412C40.4454 193.412 45.4511 188.406 45.4511 182.231C45.4511 176.057 40.4454 171.051 34.2705 171.051C28.0956 171.051 23.0898 176.057 23.0898 182.231C23.0898 188.406 28.0956 193.412 34.2705 193.412Z" fill="#4AB7E8" fill-opacity="0.2"/>
<path d="M34.2705 244.883C40.4454 244.883 45.4511 239.877 45.4511 233.702C45.4511 227.527 40.4454 222.521 34.2705 222.521C28.0956 222.521 23.0898 227.527 23.0898 233.702C23.0898 239.877 28.0956 244.883 34.2705 244.883Z" fill="#4AB7E8" fill-opacity="0.2"/>
<path d="M34.2705 298.293C40.4454 298.293 45.4511 293.287 45.4511 287.112C45.4511 280.937 40.4454 275.932 34.2705 275.932C28.0956 275.932 23.0898 280.937 23.0898 287.112C23.0898 293.287 28.0956 298.293 34.2705 298.293Z" fill="#4AB7E8" fill-opacity="0.2"/>
<path d="M34.2705 31.6698C40.4454 31.6698 45.4511 26.6641 45.4511 20.4892C45.4511 14.3143 40.4454 9.30859 34.2705 9.30859C28.0956 9.30859 23.0898 14.3143 23.0898 20.4892C23.0898 26.6641 28.0956 31.6698 34.2705 31.6698Z" fill="#4AB7E8" fill-opacity="0.2"/>
<path d="M56.5813 108.874C60.4707 108.874 63.6236 105.721 63.6236 101.831C63.6236 97.942 60.4707 94.7891 56.5813 94.7891C52.692 94.7891 49.5391 97.942 49.5391 101.831C49.5391 105.721 52.692 108.874 56.5813 108.874Z" fill="#4AB7E8" fill-opacity="0.2"/>
<path d="M56.5813 161.809C60.4707 161.809 63.6236 158.656 63.6236 154.767C63.6236 150.878 60.4707 147.725 56.5813 147.725C52.692 147.725 49.5391 150.878 49.5391 154.767C49.5391 158.656 52.692 161.809 56.5813 161.809Z" fill="#4AB7E8" fill-opacity="0.2"/>
<path d="M56.5813 214.749C60.4707 214.749 63.6236 211.596 63.6236 207.706C63.6236 203.817 60.4707 200.664 56.5813 200.664C52.692 200.664 49.5391 203.817 49.5391 207.706C49.5391 211.596 52.692 214.749 56.5813 214.749Z" fill="#4AB7E8" fill-opacity="0.2"/>
<path d="M56.5813 267.686C60.4707 267.686 63.6236 264.533 63.6236 260.644C63.6236 256.754 60.4707 253.602 56.5813 253.602C52.692 253.602 49.5391 256.754 49.5391 260.644C49.5391 264.533 52.692 267.686 56.5813 267.686Z" fill="#4AB7E8" fill-opacity="0.2"/>
<path d="M56.5813 320.626C60.4707 320.626 63.6236 317.473 63.6236 313.583C63.6236 309.694 60.4707 306.541 56.5813 306.541C52.692 306.541 49.5391 309.694 49.5391 313.583C49.5391 317.473 52.692 320.626 56.5813 320.626Z" fill="#4AB7E8" fill-opacity="0.2"/>
<path d="M56.5813 55.9361C60.4707 55.9361 63.6236 52.7832 63.6236 48.8938C63.6236 45.0045 60.4707 41.8516 56.5813 41.8516C52.692 41.8516 49.5391 45.0045 49.5391 48.8938C49.5391 52.7832 52.692 55.9361 56.5813 55.9361Z" fill="#4AB7E8" fill-opacity="0.2"/>
<path d="M79.2353 87.9941C85.4102 87.9941 90.4159 82.9883 90.4159 76.8134C90.4159 70.6385 85.4102 65.6328 79.2353 65.6328C73.0604 65.6328 68.0547 70.6385 68.0547 76.8134C68.0547 82.9883 73.0604 87.9941 79.2353 87.9941Z" fill="#4AB7E8" fill-opacity="0.2"/>
<path d="M79.2353 139.203C85.4102 139.203 90.4159 134.197 90.4159 128.022C90.4159 121.848 85.4102 116.842 79.2353 116.842C73.0604 116.842 68.0547 121.848 68.0547 128.022C68.0547 134.197 73.0604 139.203 79.2353 139.203Z" fill="#4AB7E8" fill-opacity="0.2"/>
<path d="M79.2353 193.412C85.4102 193.412 90.4159 188.406 90.4159 182.231C90.4159 176.057 85.4102 171.051 79.2353 171.051C73.0604 171.051 68.0547 176.057 68.0547 182.231C68.0547 188.406 73.0604 193.412 79.2353 193.412Z" fill="#4AB7E8" fill-opacity="0.2"/>
<path d="M79.2353 244.883C85.4102 244.883 90.4159 239.877 90.4159 233.702C90.4159 227.527 85.4102 222.521 79.2353 222.521C73.0604 222.521 68.0547 227.527 68.0547 233.702C68.0547 239.877 73.0604 244.883 79.2353 244.883Z" fill="#4AB7E8" fill-opacity="0.2"/>
<path d="M101.546 108.874C105.436 108.874 108.588 105.721 108.588 101.831C108.588 97.942 105.436 94.7891 101.546 94.7891C97.6568 94.7891 94.5039 97.942 94.5039 101.831C94.5039 105.721 97.6568 108.874 101.546 108.874Z" fill="#4AB7E8" fill-opacity="0.2"/>
<path d="M101.546 161.809C105.436 161.809 108.588 158.656 108.588 154.767C108.588 150.878 105.436 147.725 101.546 147.725C97.6568 147.725 94.5039 150.878 94.5039 154.767C94.5039 158.656 97.6568 161.809 101.546 161.809Z" fill="#4AB7E8" fill-opacity="0.2"/>
<path d="M101.546 214.749C105.436 214.749 108.588 211.596 108.588 207.706C108.588 203.817 105.436 200.664 101.546 200.664C97.6568 200.664 94.5039 203.817 94.5039 207.706C94.5039 211.596 97.6568 214.749 101.546 214.749Z" fill="#4AB7E8" fill-opacity="0.2"/>
<path d="M101.546 267.686C105.436 267.686 108.588 264.533 108.588 260.644C108.588 256.754 105.436 253.602 101.546 253.602C97.6568 253.602 94.5039 256.754 94.5039 260.644C94.5039 264.533 97.6568 267.686 101.546 267.686Z" fill="#4AB7E8" fill-opacity="0.2"/>
<path d="M124.204 139.203C130.379 139.203 135.385 134.197 135.385 128.022C135.385 121.848 130.379 116.842 124.204 116.842C118.029 116.842 113.023 121.848 113.023 128.022C113.023 134.197 118.029 139.203 124.204 139.203Z" fill="#4AB7E8" fill-opacity="0.2"/>
<path d="M124.204 193.412C130.379 193.412 135.385 188.406 135.385 182.231C135.385 176.057 130.379 171.051 124.204 171.051C118.029 171.051 113.023 176.057 113.023 182.231C113.023 188.406 118.029 193.412 124.204 193.412Z" fill="#4AB7E8" fill-opacity="0.2"/>
<path d="M146.511 161.809C150.4 161.809 153.553 158.656 153.553 154.767C153.553 150.878 150.4 147.725 146.511 147.725C142.622 147.725 139.469 150.878 139.469 154.767C139.469 158.656 142.622 161.809 146.511 161.809Z" fill="#4AB7E8" fill-opacity="0.2"/>
<path d="M146.511 214.749C150.4 214.749 153.553 211.596 153.553 207.706C153.553 203.817 150.4 200.664 146.511 200.664C142.622 200.664 139.469 203.817 139.469 207.706C139.469 211.596 142.622 214.749 146.511 214.749Z" fill="#4AB7E8" fill-opacity="0.2"/>
</g>
<defs>
<clipPath id="clip0_2577_3858">
<rect width="154" height="374" fill="white"/>
</clipPath>
</defs>
</svg>
