<svg width="173" height="371" viewBox="0 0 173 371" fill="none" xmlns="http://www.w3.org/2000/svg">
<g clip-path="url(#clip0_2577_3857)">
<path d="M24.9306 190.814C31.1055 190.814 36.1113 185.809 36.1113 179.634C36.1113 173.459 31.1055 168.453 24.9306 168.453C18.7557 168.453 13.75 173.459 13.75 179.634C13.75 185.809 18.7557 190.814 24.9306 190.814Z" fill="#DF1F8D"/>
<path d="M24.9306 242.285C31.1055 242.285 36.1113 237.279 36.1113 231.104C36.1113 224.93 31.1055 219.924 24.9306 219.924C18.7557 219.924 13.75 224.93 13.75 231.104C13.75 237.279 18.7557 242.285 24.9306 242.285Z" fill="#DF1F8D"/>
<path d="M24.9306 190.814C31.1055 190.814 36.1113 185.809 36.1113 179.634C36.1113 173.459 31.1055 168.453 24.9306 168.453C18.7557 168.453 13.75 173.459 13.75 179.634C13.75 185.809 18.7557 190.814 24.9306 190.814Z" fill="#DF1F8D"/>
<path d="M24.9306 242.285C31.1055 242.285 36.1113 237.279 36.1113 231.104C36.1113 224.93 31.1055 219.924 24.9306 219.924C18.7557 219.924 13.75 224.93 13.75 231.104C13.75 237.279 18.7557 242.285 24.9306 242.285Z" fill="#DF1F8D"/>
<path d="M47.2415 212.151C51.1308 212.151 54.2838 208.998 54.2838 205.109C54.2838 201.219 51.1308 198.066 47.2415 198.066C43.3522 198.066 40.1992 201.219 40.1992 205.109C40.1992 208.998 43.3522 212.151 47.2415 212.151Z" fill="#DF1F8D"/>
<path d="M47.2415 265.088C51.1308 265.088 54.2838 261.936 54.2838 258.046C54.2838 254.157 51.1308 251.004 47.2415 251.004C43.3522 251.004 40.1992 254.157 40.1992 258.046C40.1992 261.936 43.3522 265.088 47.2415 265.088Z" fill="#DF1F8D"/>
<path d="M69.8955 136.605C76.0704 136.605 81.0761 131.6 81.0761 125.425C81.0761 119.25 76.0704 114.244 69.8955 114.244C63.7206 114.244 58.7148 119.25 58.7148 125.425C58.7148 131.6 63.7206 136.605 69.8955 136.605Z" fill="#DF1F8D"/>
<path d="M69.8955 190.814C76.0704 190.814 81.0761 185.809 81.0761 179.634C81.0761 173.459 76.0704 168.453 69.8955 168.453C63.7206 168.453 58.7148 173.459 58.7148 179.634C58.7148 185.809 63.7206 190.814 69.8955 190.814Z" fill="#DF1F8D"/>
<path d="M69.8955 242.285C76.0704 242.285 81.0761 237.279 81.0761 231.104C81.0761 224.93 76.0704 219.924 69.8955 219.924C63.7206 219.924 58.7148 224.93 58.7148 231.104C58.7148 237.279 63.7206 242.285 69.8955 242.285Z" fill="#DF1F8D"/>
<path d="M69.8955 295.695C76.0704 295.695 81.0761 290.689 81.0761 284.515C81.0761 278.34 76.0704 273.334 69.8955 273.334C63.7206 273.334 58.7148 278.34 58.7148 284.515C58.7148 290.689 63.7206 295.695 69.8955 295.695Z" fill="#DF1F8D"/>
<path d="M92.2024 159.212C96.0918 159.212 99.2447 156.059 99.2447 152.169C99.2447 148.28 96.0918 145.127 92.2024 145.127C88.3131 145.127 85.1602 148.28 85.1602 152.169C85.1602 156.059 88.3131 159.212 92.2024 159.212Z" fill="#DF1F8D"/>
<path d="M92.2024 212.151C96.0918 212.151 99.2447 208.998 99.2447 205.109C99.2447 201.219 96.0918 198.066 92.2024 198.066C88.3131 198.066 85.1602 201.219 85.1602 205.109C85.1602 208.998 88.3131 212.151 92.2024 212.151Z" fill="#DF1F8D"/>
<path d="M92.2024 265.088C96.0918 265.088 99.2447 261.936 99.2447 258.046C99.2447 254.157 96.0918 251.004 92.2024 251.004C88.3131 251.004 85.1602 254.157 85.1602 258.046C85.1602 261.936 88.3131 265.088 92.2024 265.088Z" fill="#DF1F8D"/>
<path d="M92.2024 318.028C96.0918 318.028 99.2447 314.875 99.2447 310.986C99.2447 307.096 96.0918 303.943 92.2024 303.943C88.3131 303.943 85.1602 307.096 85.1602 310.986C85.1602 314.875 88.3131 318.028 92.2024 318.028Z" fill="#DF1F8D"/>
<path d="M114.864 85.3964C121.039 85.3964 126.045 80.3907 126.045 74.2158C126.045 68.0409 121.039 63.0352 114.864 63.0352C108.689 63.0352 103.684 68.0409 103.684 74.2158C103.684 80.3907 108.689 85.3964 114.864 85.3964Z" fill="#DF1F8D"/>
<path d="M114.864 136.605C121.039 136.605 126.045 131.6 126.045 125.425C126.045 119.25 121.039 114.244 114.864 114.244C108.689 114.244 103.684 119.25 103.684 125.425C103.684 131.6 108.689 136.605 114.864 136.605Z" fill="#DF1F8D"/>
<path d="M114.864 190.814C121.039 190.814 126.045 185.809 126.045 179.634C126.045 173.459 121.039 168.453 114.864 168.453C108.689 168.453 103.684 173.459 103.684 179.634C103.684 185.809 108.689 190.814 114.864 190.814Z" fill="#DF1F8D"/>
<path d="M114.864 242.285C121.039 242.285 126.045 237.279 126.045 231.104C126.045 224.93 121.039 219.924 114.864 219.924C108.689 219.924 103.684 224.93 103.684 231.104C103.684 237.279 108.689 242.285 114.864 242.285Z" fill="#DF1F8D"/>
<path d="M114.864 295.695C121.039 295.695 126.045 290.689 126.045 284.515C126.045 278.34 121.039 273.334 114.864 273.334C108.689 273.334 103.684 278.34 103.684 284.515C103.684 290.689 108.689 295.695 114.864 295.695Z" fill="#DF1F8D"/>
<path d="M114.864 349.93C121.039 349.93 126.045 344.924 126.045 338.749C126.045 332.574 121.039 327.568 114.864 327.568C108.689 327.568 103.684 332.574 103.684 338.749C103.684 344.924 108.689 349.93 114.864 349.93Z" fill="#DF1F8D"/>
<path d="M137.167 106.276C141.057 106.276 144.21 103.123 144.21 99.2337C144.21 95.3443 141.057 92.1914 137.167 92.1914C133.278 92.1914 130.125 95.3443 130.125 99.2337C130.125 103.123 133.278 106.276 137.167 106.276Z" fill="#DF1F8D"/>
<path d="M137.167 159.212C141.057 159.212 144.21 156.059 144.21 152.169C144.21 148.28 141.057 145.127 137.167 145.127C133.278 145.127 130.125 148.28 130.125 152.169C130.125 156.059 133.278 159.212 137.167 159.212Z" fill="#DF1F8D"/>
<path d="M137.167 212.151C141.057 212.151 144.21 208.998 144.21 205.109C144.21 201.219 141.057 198.066 137.167 198.066C133.278 198.066 130.125 201.219 130.125 205.109C130.125 208.998 133.278 212.151 137.167 212.151Z" fill="#DF1F8D"/>
<path d="M137.167 265.088C141.057 265.088 144.21 261.936 144.21 258.046C144.21 254.157 141.057 251.004 137.167 251.004C133.278 251.004 130.125 254.157 130.125 258.046C130.125 261.936 133.278 265.088 137.167 265.088Z" fill="#DF1F8D"/>
<path d="M137.167 318.028C141.057 318.028 144.21 314.875 144.21 310.986C144.21 307.096 141.057 303.943 137.167 303.943C133.278 303.943 130.125 307.096 130.125 310.986C130.125 314.875 133.278 318.028 137.167 318.028Z" fill="#DF1F8D"/>
<path d="M137.167 370.967C141.057 370.967 144.21 367.814 144.21 363.925C144.21 360.036 141.057 356.883 137.167 356.883C133.278 356.883 130.125 360.036 130.125 363.925C130.125 367.814 133.278 370.967 137.167 370.967Z" fill="#DF1F8D"/>
<path d="M159.825 85.3964C166 85.3964 171.006 80.3907 171.006 74.2158C171.006 68.0409 166 63.0352 159.825 63.0352C153.65 63.0352 148.645 68.0409 148.645 74.2158C148.645 80.3907 153.65 85.3964 159.825 85.3964Z" fill="#DF1F8D"/>
<path d="M159.825 136.605C166 136.605 171.006 131.6 171.006 125.425C171.006 119.25 166 114.244 159.825 114.244C153.65 114.244 148.645 119.25 148.645 125.425C148.645 131.6 153.65 136.605 159.825 136.605Z" fill="#DF1F8D"/>
<path d="M159.825 190.814C166 190.814 171.006 185.809 171.006 179.634C171.006 173.459 166 168.453 159.825 168.453C153.65 168.453 148.645 173.459 148.645 179.634C148.645 185.809 153.65 190.814 159.825 190.814Z" fill="#DF1F8D"/>
<path d="M159.825 242.285C166 242.285 171.006 237.279 171.006 231.104C171.006 224.93 166 219.924 159.825 219.924C153.65 219.924 148.645 224.93 148.645 231.104C148.645 237.279 153.65 242.285 159.825 242.285Z" fill="#DF1F8D"/>
<path d="M159.825 295.695C166 295.695 171.006 290.689 171.006 284.515C171.006 278.34 166 273.334 159.825 273.334C153.65 273.334 148.645 278.34 148.645 284.515C148.645 290.689 153.65 295.695 159.825 295.695Z" fill="#DF1F8D"/>
<path d="M159.825 29.0722C166 29.0722 171.006 24.0665 171.006 17.8916C171.006 11.7167 166 6.71094 159.825 6.71094C153.65 6.71094 148.645 11.7167 148.645 17.8916C148.645 24.0665 153.65 29.0722 159.825 29.0722Z" fill="#DF1F8D"/>
<path d="M10.8447 183.771C17.0196 183.771 22.0253 178.766 22.0253 172.591C22.0253 166.416 17.0196 161.41 10.8447 161.41C4.6698 161.41 -0.335938 166.416 -0.335938 172.591C-0.335938 178.766 4.6698 183.771 10.8447 183.771Z" fill="#DF1F8D" fill-opacity="0.1"/>
<path d="M10.8447 235.242C17.0196 235.242 22.0253 230.236 22.0253 224.061C22.0253 217.887 17.0196 212.881 10.8447 212.881C4.6698 212.881 -0.335938 217.887 -0.335938 224.061C-0.335938 230.236 4.6698 235.242 10.8447 235.242Z" fill="#DF1F8D" fill-opacity="0.1"/>
<path d="M10.8447 183.771C17.0196 183.771 22.0253 178.766 22.0253 172.591C22.0253 166.416 17.0196 161.41 10.8447 161.41C4.6698 161.41 -0.335938 166.416 -0.335938 172.591C-0.335938 178.766 4.6698 183.771 10.8447 183.771Z" fill="#DF1F8D" fill-opacity="0.1"/>
<path d="M10.8447 235.242C17.0196 235.242 22.0253 230.236 22.0253 224.061C22.0253 217.887 17.0196 212.881 10.8447 212.881C4.6698 212.881 -0.335938 217.887 -0.335938 224.061C-0.335938 230.236 4.6698 235.242 10.8447 235.242Z" fill="#DF1F8D" fill-opacity="0.1"/>
<path d="M33.1556 205.108C37.0449 205.108 40.1978 201.955 40.1978 198.066C40.1978 194.176 37.0449 191.023 33.1556 191.023C29.2662 191.023 26.1133 194.176 26.1133 198.066C26.1133 201.955 29.2662 205.108 33.1556 205.108Z" fill="#DF1F8D" fill-opacity="0.1"/>
<path d="M33.1556 258.045C37.0449 258.045 40.1978 254.893 40.1978 251.003C40.1978 247.114 37.0449 243.961 33.1556 243.961C29.2662 243.961 26.1133 247.114 26.1133 251.003C26.1133 254.893 29.2662 258.045 33.1556 258.045Z" fill="#DF1F8D" fill-opacity="0.1"/>
<path d="M55.8095 129.562C61.9844 129.562 66.9902 124.557 66.9902 118.382C66.9902 112.207 61.9844 107.201 55.8095 107.201C49.6346 107.201 44.6289 112.207 44.6289 118.382C44.6289 124.557 49.6346 129.562 55.8095 129.562Z" fill="#DF1F8D" fill-opacity="0.1"/>
<path d="M55.8095 183.771C61.9844 183.771 66.9902 178.766 66.9902 172.591C66.9902 166.416 61.9844 161.41 55.8095 161.41C49.6346 161.41 44.6289 166.416 44.6289 172.591C44.6289 178.766 49.6346 183.771 55.8095 183.771Z" fill="#DF1F8D" fill-opacity="0.1"/>
<path d="M55.8095 235.242C61.9844 235.242 66.9902 230.236 66.9902 224.061C66.9902 217.887 61.9844 212.881 55.8095 212.881C49.6346 212.881 44.6289 217.887 44.6289 224.061C44.6289 230.236 49.6346 235.242 55.8095 235.242Z" fill="#DF1F8D" fill-opacity="0.1"/>
<path d="M55.8095 288.652C61.9844 288.652 66.9902 283.647 66.9902 277.472C66.9902 271.297 61.9844 266.291 55.8095 266.291C49.6346 266.291 44.6289 271.297 44.6289 277.472C44.6289 283.647 49.6346 288.652 55.8095 288.652Z" fill="#DF1F8D" fill-opacity="0.1"/>
<path d="M78.1165 152.169C82.0058 152.169 85.1588 149.016 85.1588 145.126C85.1588 141.237 82.0058 138.084 78.1165 138.084C74.2272 138.084 71.0742 141.237 71.0742 145.126C71.0742 149.016 74.2272 152.169 78.1165 152.169Z" fill="#DF1F8D" fill-opacity="0.1"/>
<path d="M78.1165 205.108C82.0058 205.108 85.1588 201.955 85.1588 198.066C85.1588 194.176 82.0058 191.023 78.1165 191.023C74.2272 191.023 71.0742 194.176 71.0742 198.066C71.0742 201.955 74.2272 205.108 78.1165 205.108Z" fill="#DF1F8D" fill-opacity="0.1"/>
<path d="M78.1165 258.045C82.0058 258.045 85.1588 254.893 85.1588 251.003C85.1588 247.114 82.0058 243.961 78.1165 243.961C74.2272 243.961 71.0742 247.114 71.0742 251.003C71.0742 254.893 74.2272 258.045 78.1165 258.045Z" fill="#DF1F8D" fill-opacity="0.1"/>
<path d="M78.1165 310.985C82.0058 310.985 85.1588 307.832 85.1588 303.943C85.1588 300.053 82.0058 296.9 78.1165 296.9C74.2272 296.9 71.0742 300.053 71.0742 303.943C71.0742 307.832 74.2272 310.985 78.1165 310.985Z" fill="#DF1F8D" fill-opacity="0.1"/>
<path d="M100.778 78.3534C106.953 78.3534 111.959 73.3477 111.959 67.1728C111.959 60.9979 106.953 55.9922 100.778 55.9922C94.6034 55.9922 89.5977 60.9979 89.5977 67.1728C89.5977 73.3477 94.6034 78.3534 100.778 78.3534Z" fill="#DF1F8D" fill-opacity="0.1"/>
<path d="M100.778 129.562C106.953 129.562 111.959 124.557 111.959 118.382C111.959 112.207 106.953 107.201 100.778 107.201C94.6034 107.201 89.5977 112.207 89.5977 118.382C89.5977 124.557 94.6034 129.562 100.778 129.562Z" fill="#DF1F8D" fill-opacity="0.1"/>
<path d="M100.778 183.771C106.953 183.771 111.959 178.766 111.959 172.591C111.959 166.416 106.953 161.41 100.778 161.41C94.6034 161.41 89.5977 166.416 89.5977 172.591C89.5977 178.766 94.6034 183.771 100.778 183.771Z" fill="#DF1F8D" fill-opacity="0.1"/>
<path d="M100.778 235.242C106.953 235.242 111.959 230.236 111.959 224.061C111.959 217.887 106.953 212.881 100.778 212.881C94.6034 212.881 89.5977 217.887 89.5977 224.061C89.5977 230.236 94.6034 235.242 100.778 235.242Z" fill="#DF1F8D" fill-opacity="0.1"/>
<path d="M100.778 288.652C106.953 288.652 111.959 283.647 111.959 277.472C111.959 271.297 106.953 266.291 100.778 266.291C94.6034 266.291 89.5977 271.297 89.5977 277.472C89.5977 283.647 94.6034 288.652 100.778 288.652Z" fill="#DF1F8D" fill-opacity="0.1"/>
<path d="M100.778 342.887C106.953 342.887 111.959 337.881 111.959 331.706C111.959 325.531 106.953 320.525 100.778 320.525C94.6034 320.525 89.5977 325.531 89.5977 331.706C89.5977 337.881 94.6034 342.887 100.778 342.887Z" fill="#DF1F8D" fill-opacity="0.1"/>
<path d="M123.081 99.233C126.971 99.233 130.124 96.0801 130.124 92.1907C130.124 88.3014 126.971 85.1484 123.081 85.1484C119.192 85.1484 116.039 88.3014 116.039 92.1907C116.039 96.0801 119.192 99.233 123.081 99.233Z" fill="#DF1F8D" fill-opacity="0.1"/>
<path d="M123.081 152.169C126.971 152.169 130.124 149.016 130.124 145.126C130.124 141.237 126.971 138.084 123.081 138.084C119.192 138.084 116.039 141.237 116.039 145.126C116.039 149.016 119.192 152.169 123.081 152.169Z" fill="#DF1F8D" fill-opacity="0.1"/>
<path d="M123.081 205.108C126.971 205.108 130.124 201.955 130.124 198.066C130.124 194.176 126.971 191.023 123.081 191.023C119.192 191.023 116.039 194.176 116.039 198.066C116.039 201.955 119.192 205.108 123.081 205.108Z" fill="#DF1F8D" fill-opacity="0.1"/>
<path d="M123.081 258.045C126.971 258.045 130.124 254.893 130.124 251.003C130.124 247.114 126.971 243.961 123.081 243.961C119.192 243.961 116.039 247.114 116.039 251.003C116.039 254.893 119.192 258.045 123.081 258.045Z" fill="#DF1F8D" fill-opacity="0.1"/>
<path d="M123.081 310.985C126.971 310.985 130.124 307.832 130.124 303.943C130.124 300.053 126.971 296.9 123.081 296.9C119.192 296.9 116.039 300.053 116.039 303.943C116.039 307.832 119.192 310.985 123.081 310.985Z" fill="#DF1F8D" fill-opacity="0.1"/>
<path d="M123.081 363.924C126.971 363.924 130.124 360.771 130.124 356.882C130.124 352.993 126.971 349.84 123.081 349.84C119.192 349.84 116.039 352.993 116.039 356.882C116.039 360.771 119.192 363.924 123.081 363.924Z" fill="#DF1F8D" fill-opacity="0.1"/>
<path d="M145.739 78.3534C151.914 78.3534 156.92 73.3477 156.92 67.1728C156.92 60.9979 151.914 55.9922 145.739 55.9922C139.564 55.9922 134.559 60.9979 134.559 67.1728C134.559 73.3477 139.564 78.3534 145.739 78.3534Z" fill="#DF1F8D" fill-opacity="0.1"/>
<path d="M145.739 129.562C151.914 129.562 156.92 124.557 156.92 118.382C156.92 112.207 151.914 107.201 145.739 107.201C139.564 107.201 134.559 112.207 134.559 118.382C134.559 124.557 139.564 129.562 145.739 129.562Z" fill="#DF1F8D" fill-opacity="0.1"/>
<path d="M145.739 183.771C151.914 183.771 156.92 178.766 156.92 172.591C156.92 166.416 151.914 161.41 145.739 161.41C139.564 161.41 134.559 166.416 134.559 172.591C134.559 178.766 139.564 183.771 145.739 183.771Z" fill="#DF1F8D" fill-opacity="0.1"/>
<path d="M145.739 235.242C151.914 235.242 156.92 230.236 156.92 224.061C156.92 217.887 151.914 212.881 145.739 212.881C139.564 212.881 134.559 217.887 134.559 224.061C134.559 230.236 139.564 235.242 145.739 235.242Z" fill="#DF1F8D" fill-opacity="0.1"/>
<path d="M145.739 288.652C151.914 288.652 156.92 283.647 156.92 277.472C156.92 271.297 151.914 266.291 145.739 266.291C139.564 266.291 134.559 271.297 134.559 277.472C134.559 283.647 139.564 288.652 145.739 288.652Z" fill="#DF1F8D" fill-opacity="0.1"/>
<path d="M145.739 22.0292C151.914 22.0292 156.92 17.0235 156.92 10.8486C156.92 4.67371 151.914 -0.332031 145.739 -0.332031C139.564 -0.332031 134.559 4.67371 134.559 10.8486C134.559 17.0235 139.564 22.0292 145.739 22.0292Z" fill="#DF1F8D" fill-opacity="0.1"/>
<path d="M168.05 99.233C171.939 99.233 175.092 96.0801 175.092 92.1907C175.092 88.3014 171.939 85.1484 168.05 85.1484C164.161 85.1484 161.008 88.3014 161.008 92.1907C161.008 96.0801 164.161 99.233 168.05 99.233Z" fill="#DF1F8D" fill-opacity="0.1"/>
<path d="M168.05 152.169C171.939 152.169 175.092 149.016 175.092 145.126C175.092 141.237 171.939 138.084 168.05 138.084C164.161 138.084 161.008 141.237 161.008 145.126C161.008 149.016 164.161 152.169 168.05 152.169Z" fill="#DF1F8D" fill-opacity="0.1"/>
<path d="M168.05 205.108C171.939 205.108 175.092 201.955 175.092 198.066C175.092 194.176 171.939 191.023 168.05 191.023C164.161 191.023 161.008 194.176 161.008 198.066C161.008 201.955 164.161 205.108 168.05 205.108Z" fill="#DF1F8D" fill-opacity="0.1"/>
<path d="M168.05 258.045C171.939 258.045 175.092 254.893 175.092 251.003C175.092 247.114 171.939 243.961 168.05 243.961C164.161 243.961 161.008 247.114 161.008 251.003C161.008 254.893 164.161 258.045 168.05 258.045Z" fill="#DF1F8D" fill-opacity="0.1"/>
<path d="M168.05 310.985C171.939 310.985 175.092 307.832 175.092 303.943C175.092 300.053 171.939 296.9 168.05 296.9C164.161 296.9 161.008 300.053 161.008 303.943C161.008 307.832 164.161 310.985 168.05 310.985Z" fill="#DF1F8D" fill-opacity="0.1"/>
<path d="M168.05 46.2955C171.939 46.2955 175.092 43.1426 175.092 39.2532C175.092 35.3639 171.939 32.2109 168.05 32.2109C164.161 32.2109 161.008 35.3639 161.008 39.2532C161.008 43.1426 164.161 46.2955 168.05 46.2955Z" fill="#DF1F8D" fill-opacity="0.1"/>
</g>
<defs>
<clipPath id="clip0_2577_3857">
<rect width="173" height="371" fill="white"/>
</clipPath>
</defs>
</svg>
