<?xml version="1.0" encoding="utf-8"?>
<!-- Generator: Adobe Illustrator 26.3.1, SVG Export Plug-In . SVG Version: 6.00 Build 0)  -->
<svg version="1.1" id="Layer_1" xmlns="http://www.w3.org/2000/svg" xmlns:xlink="http://www.w3.org/1999/xlink" x="0px" y="0px"
	 viewBox="0 0 2089 674" style="enable-background:new 0 0 2089 674;" xml:space="preserve">
<style type="text/css">
	.st0{fill:none;}
	
		.st1{clip-path:url(#SVGID_00000021113406806520877520000015256286105791689911_);fill:url(#SVGID_00000159439362313976405740000005751876447527378617_);}
	
		.st2{clip-path:url(#SVGID_00000162338496085187570170000006949700675458307971_);fill:url(#SVGID_00000170997230809962210910000017391631177703322795_);}
	
		.st3{clip-path:url(#SVGID_00000039126834670423182410000007486250139350509453_);fill:url(#SVGID_00000173122050095553588060000010054598726822395068_);}
	
		.st4{clip-path:url(#SVGID_00000127037628305892915470000005686321668729686196_);fill:url(#SVGID_00000152960906168893858130000012183915455256740500_);}
	.st5{fill:#FFFFFF;}
</style>
<g>
	<g>
		<path class="st0" d="M894.17,563.38"/>
		<line class="st0" x1="900.5" y1="559.84" x2="894.17" y2="561.3"/>
		<g>
			<defs>
				<path id="SVGID_1_" d="M1755.96,331.8c-20.01,0-40.44,2.09-60.65,5.83c-18,3.34-34.59-6.42-34.59-24.73V174.76
					c0-16.19-13.13-29.32-29.32-29.32h-245.15c-15.88,0-28.87,12.64-29.31,28.52l-0.63,22.75c-0.47,17.27,13.99,31.13,31.24,30.06
					c5.55-0.35,13.74-0.5,20.36-0.5c98.16,0,177.48,56.94,191.2,152.08c2.78,19.25,3.45,36.55,2.86,54.37
					c-0.64,19.2,17.14,33.75,35.86,29.46l60.17-13.8c13.79-3.16,27.73,4.04,33.46,16.97c12.25,27.65,37.78,44.92,70.93,44.92
					c51.22,0,84.03-36.01,84.03-84.83C1886.4,351.01,1818.38,331.8,1755.96,331.8z"/>
			</defs>
			<clipPath id="SVGID_00000159463722301315684400000011314056903037130632_">
				<use xlink:href="#SVGID_1_"  style="overflow:visible;"/>
			</clipPath>
			
				<linearGradient id="SVGID_00000183933300063494043020000000790728200227668893_" gradientUnits="userSpaceOnUse" x1="806.9924" y1="333.7202" x2="2004.5198" y2="333.7202">
				<stop  offset="0" style="stop-color:#4AB7E8"/>
				<stop  offset="0.0656" style="stop-color:#55ACE1"/>
				<stop  offset="0.1823" style="stop-color:#738DCF"/>
				<stop  offset="0.3367" style="stop-color:#A35CB1"/>
				<stop  offset="0.503" style="stop-color:#DF1F8D"/>
				<stop  offset="0.5079" style="stop-color:#DF218B"/>
				<stop  offset="0.751" style="stop-color:#EC8441"/>
				<stop  offset="0.9201" style="stop-color:#F4C212"/>
				<stop  offset="1" style="stop-color:#F7DA00"/>
			</linearGradient>
			
				<rect x="806.99" y="79.5" style="clip-path:url(#SVGID_00000159463722301315684400000011314056903037130632_);fill:url(#SVGID_00000183933300063494043020000000790728200227668893_);" width="1197.53" height="508.44"/>
		</g>
		<g>
			<defs>
				<path id="SVGID_00000097479743607517061540000005820738825580561838_" d="M1975.6,145.44h-184.27
					c-15.92,0-28.95,12.68-29.39,28.59l-0.65,23.65c-0.48,17.27,13.97,31.26,31.21,30.15c5.75-0.37,11.98-0.53,18.86-0.53
					c58.58,0,108.66,18.44,143.86,51.86c18.82,17.86,49.79,4.94,49.79-21v-83.32C2005,158.6,1991.84,145.44,1975.6,145.44z"/>
			</defs>
			<clipPath id="SVGID_00000103960762702692134180000008908151070820949431_">
				<use xlink:href="#SVGID_00000097479743607517061540000005820738825580561838_"  style="overflow:visible;"/>
			</clipPath>
			
				<linearGradient id="SVGID_00000089535375477395005870000015835235835844778420_" gradientUnits="userSpaceOnUse" x1="806.9924" y1="333.7202" x2="2004.5198" y2="333.7202">
				<stop  offset="0" style="stop-color:#4AB7E8"/>
				<stop  offset="0.0656" style="stop-color:#55ACE1"/>
				<stop  offset="0.1823" style="stop-color:#738DCF"/>
				<stop  offset="0.3367" style="stop-color:#A35CB1"/>
				<stop  offset="0.503" style="stop-color:#DF1F8D"/>
				<stop  offset="0.5079" style="stop-color:#DF218B"/>
				<stop  offset="0.751" style="stop-color:#EC8441"/>
				<stop  offset="0.9201" style="stop-color:#F4C212"/>
				<stop  offset="1" style="stop-color:#F7DA00"/>
			</linearGradient>
			
				<rect x="806.99" y="79.5" style="clip-path:url(#SVGID_00000103960762702692134180000008908151070820949431_);fill:url(#SVGID_00000089535375477395005870000015835235835844778420_);" width="1197.53" height="508.44"/>
		</g>
		<g>
			<defs>
				<path id="SVGID_00000137811524058888201220000006940641874617286286_" d="M1351.11,331.79c-18.77,0-37.88,1.83-56.85,5.16
					c-4.58,0.83-9.13,1.73-13.69,2.72c-1.96,0.42-3.81-0.58-4.6-2.24c-0.26-0.55-0.4-1.15-0.4-1.82c0-0.02,0-0.04,0-0.04
					c0-41.97-7-78-19.7-108.66c-13.79-33.28-34.35-60.24-60.02-81.49c-55.32-45.82-134.41-65.28-220.92-65.28H811.16
					c-2.28,0-4.11,1.83-4.11,4.11v475.58l425.93-97.68l39.41-9.03h0.04l20.72-4.76c3.95-0.91,7.92-0.97,11.71-0.26
					c9.39,1.69,17.66,8,21.73,17.22c7.1,16.01,18.63,28.55,33.55,36.25c10.83,5.6,23.43,8.67,37.38,8.67
					c51.23,0,84.03-36.01,84.03-84.81C1481.55,351,1413.53,331.79,1351.11,331.79z M1033.95,409.73
					c-44.82,0-81.15-36.33-81.15-81.15s36.33-81.15,81.15-81.15c44.84,0,81.17,36.33,81.17,81.15S1078.79,409.73,1033.95,409.73z"/>
			</defs>
			<clipPath id="SVGID_00000136403918278299867980000011713032042207533462_">
				<use xlink:href="#SVGID_00000137811524058888201220000006940641874617286286_"  style="overflow:visible;"/>
			</clipPath>
			
				<linearGradient id="SVGID_00000048491095762600119620000017935588822232532126_" gradientUnits="userSpaceOnUse" x1="806.9924" y1="333.7202" x2="2004.5198" y2="333.7202">
				<stop  offset="0" style="stop-color:#4AB7E8"/>
				<stop  offset="0.0656" style="stop-color:#55ACE1"/>
				<stop  offset="0.1823" style="stop-color:#738DCF"/>
				<stop  offset="0.3367" style="stop-color:#A35CB1"/>
				<stop  offset="0.503" style="stop-color:#DF1F8D"/>
				<stop  offset="0.5079" style="stop-color:#DF218B"/>
				<stop  offset="0.751" style="stop-color:#EC8441"/>
				<stop  offset="0.9201" style="stop-color:#F4C212"/>
				<stop  offset="1" style="stop-color:#F7DA00"/>
			</linearGradient>
			
				<rect x="806.99" y="79.5" style="clip-path:url(#SVGID_00000136403918278299867980000011713032042207533462_);fill:url(#SVGID_00000048491095762600119620000017935588822232532126_);" width="1197.53" height="508.44"/>
		</g>
		<g>
			<defs>
				<path id="SVGID_00000038393361100151051050000011760953464708644745_" d="M1229.33,503.19c-23.46,0-42.47,19.02-42.47,42.47
					s19.01,42.47,42.47,42.47c23.46,0,42.47-19.02,42.47-42.47S1252.79,503.19,1229.33,503.19z"/>
			</defs>
			<clipPath id="SVGID_00000011730756846259889640000010396052999721138353_">
				<use xlink:href="#SVGID_00000038393361100151051050000011760953464708644745_"  style="overflow:visible;"/>
			</clipPath>
			
				<linearGradient id="SVGID_00000075148317703560830210000002126533828884855981_" gradientUnits="userSpaceOnUse" x1="806.9924" y1="333.7202" x2="2004.5198" y2="333.7202">
				<stop  offset="0" style="stop-color:#4AB7E8"/>
				<stop  offset="0.0656" style="stop-color:#55ACE1"/>
				<stop  offset="0.1823" style="stop-color:#738DCF"/>
				<stop  offset="0.3367" style="stop-color:#A35CB1"/>
				<stop  offset="0.503" style="stop-color:#DF1F8D"/>
				<stop  offset="0.5079" style="stop-color:#DF218B"/>
				<stop  offset="0.751" style="stop-color:#EC8441"/>
				<stop  offset="0.9201" style="stop-color:#F4C212"/>
				<stop  offset="1" style="stop-color:#F7DA00"/>
			</linearGradient>
			
				<rect x="806.99" y="79.5" style="clip-path:url(#SVGID_00000011730756846259889640000010396052999721138353_);fill:url(#SVGID_00000075148317703560830210000002126533828884855981_);" width="1197.53" height="508.44"/>
		</g>
		<line class="st0" x1="1272.39" y1="453.14" x2="1269.74" y2="453.14"/>
		<line class="st0" x1="1294.18" y1="448.14" x2="1293.15" y2="448.38"/>
	</g>
	<g>
		<path class="st5" d="M196.66,313.15h-20.18V297.9h-0.44c-3.89,5.69-9.23,10.09-16.03,13.23c-6.81,3.14-13.79,4.71-20.97,4.71
			c-8.22,0-15.66-1.42-22.31-4.26c-6.65-2.84-12.33-6.8-17.04-11.88c-4.71-5.08-8.33-10.98-10.87-17.71
			c-2.55-6.73-3.81-14.05-3.81-21.97c0-7.92,1.27-15.28,3.81-22.08c2.54-6.8,6.16-12.7,10.87-17.71
			c4.71-5.01,10.39-8.93,17.04-11.77c6.65-2.84,14.09-4.26,22.31-4.26c7.62,0,14.8,1.61,21.52,4.82
			c6.73,3.21,11.88,7.58,15.47,13.11h0.44v-78.47h20.18V313.15z M141.5,297.01c5.38,0,10.24-0.93,14.57-2.8
			c4.33-1.87,7.99-4.41,10.98-7.62c2.99-3.22,5.3-7.1,6.95-11.66c1.64-4.56,2.46-9.53,2.46-14.91c0-5.38-0.82-10.35-2.46-14.91
			c-1.65-4.56-3.97-8.44-6.95-11.66c-2.99-3.21-6.65-5.75-10.98-7.63c-4.34-1.87-9.2-2.8-14.57-2.8c-5.38,0-10.24,0.93-14.58,2.8
			c-4.34,1.87-8,4.42-10.98,7.63c-2.99,3.22-5.31,7.1-6.95,11.66c-1.64,4.56-2.46,9.52-2.46,14.91c0,5.38,0.82,10.35,2.46,14.91
			c1.64,4.56,3.96,8.44,6.95,11.66c2.99,3.21,6.65,5.75,10.98,7.62C131.26,296.08,136.12,297.01,141.5,297.01z"/>
		<path class="st5" d="M242.4,267.41c0,4.63,1,8.86,3.02,12.67c2.02,3.81,4.67,7.06,7.96,9.75c3.28,2.69,7.1,4.79,11.43,6.28
			c4.33,1.5,8.82,2.24,13.45,2.24c6.28,0,11.73-1.46,16.37-4.37c4.63-2.91,8.89-6.76,12.78-11.54l15.25,11.66
			c-11.21,14.5-26.91,21.74-47.09,21.74c-8.37,0-15.95-1.42-22.75-4.26c-6.81-2.84-12.56-6.76-17.27-11.77
			c-4.71-5.01-8.33-10.91-10.87-17.72c-2.54-6.8-3.81-14.16-3.81-22.08c0-7.92,1.38-15.28,4.15-22.08
			c2.76-6.8,6.57-12.7,11.43-17.71c4.85-5.01,10.65-8.93,17.38-11.77c6.72-2.84,14.04-4.26,21.97-4.26c9.42,0,17.38,1.65,23.88,4.93
			c6.5,3.29,11.85,7.59,16.03,12.89c4.18,5.3,7.21,11.29,9.08,17.94c1.87,6.65,2.8,13.42,2.8,20.29v7.18H242.4z M306.07,251.27
			c-0.15-4.49-0.86-8.59-2.13-12.33c-1.27-3.73-3.18-6.99-5.72-9.76c-2.55-2.76-5.72-4.93-9.53-6.5c-3.81-1.57-8.26-2.35-13.34-2.35
			c-4.93,0-9.46,0.94-13.57,2.8c-4.11,1.87-7.58,4.3-10.42,7.29c-2.84,2.99-5.04,6.32-6.61,9.98c-1.57,3.66-2.35,7.29-2.35,10.87
			H306.07z"/>
		<path class="st5" d="M408.31,233.55c-2.39-2.99-5.34-5.49-8.86-7.51c-3.51-2.01-7.81-3.02-12.89-3.02
			c-4.79,0-8.93,1.01-12.44,3.02c-3.52,2.02-5.27,4.98-5.27,8.86c0,3.14,1.01,5.69,3.03,7.63c2.02,1.95,4.41,3.52,7.18,4.71
			c2.76,1.2,5.72,2.09,8.86,2.69c3.14,0.6,5.83,1.13,8.07,1.57c4.33,1.05,8.41,2.32,12.22,3.81c3.81,1.5,7.1,3.44,9.87,5.83
			c2.77,2.39,4.93,5.3,6.5,8.74c1.57,3.44,2.35,7.63,2.35,12.56c0,5.98-1.27,11.09-3.81,15.36c-2.55,4.26-5.83,7.74-9.87,10.42
			c-4.03,2.69-8.63,4.63-13.79,5.83c-5.16,1.2-10.35,1.79-15.58,1.79c-8.82,0-16.56-1.34-23.2-4.03c-6.65-2.69-12.6-7.63-17.83-14.8
			l15.25-12.56c3.28,3.29,6.95,6.21,10.98,8.75c4.04,2.54,8.97,3.81,14.8,3.81c2.54,0,5.12-0.26,7.74-0.78s4.93-1.34,6.95-2.47
			c2.02-1.12,3.66-2.54,4.93-4.26c1.27-1.72,1.9-3.7,1.9-5.94c0-2.99-0.94-5.46-2.8-7.4c-1.87-1.94-4.11-3.47-6.72-4.59
			c-2.62-1.13-5.38-2.02-8.3-2.69c-2.92-0.67-5.5-1.23-7.74-1.68c-4.34-1.05-8.45-2.24-12.33-3.59c-3.89-1.34-7.32-3.14-10.32-5.38
			c-2.99-2.24-5.38-5.08-7.17-8.52c-1.79-3.44-2.69-7.69-2.69-12.78c0-5.53,1.16-10.35,3.48-14.46s5.38-7.51,9.19-10.21
			c3.81-2.69,8.14-4.71,13-6.05s9.76-2.02,14.69-2.02c7.18,0,14.05,1.34,20.62,4.04c6.58,2.69,11.81,7.17,15.7,13.45L408.31,233.55z
			"/>
		<path class="st5" d="M448.22,168.76c0-4.04,1.45-7.51,4.37-10.43c2.91-2.91,6.39-4.37,10.42-4.37c4.03,0,7.51,1.45,10.42,4.37
			c2.91,2.92,4.37,6.39,4.37,10.43c0,4.03-1.46,7.51-4.37,10.42s-6.39,4.37-10.42,4.37c-4.04,0-7.51-1.46-10.42-4.37
			C449.67,176.27,448.22,172.79,448.22,168.76z M452.93,206.87h20.18v106.28h-20.18V206.87z"/>
		<path class="st5" d="M611.67,312.25c0,8.07-1.38,15.43-4.15,22.08c-2.77,6.65-6.69,12.4-11.77,17.26
			c-5.08,4.86-11.21,8.63-18.39,11.32c-7.18,2.69-15.1,4.03-23.77,4.03c-10.16,0-19.47-1.42-27.91-4.26
			c-8.45-2.84-16.48-7.77-24.1-14.8l13.68-17.04c5.23,5.68,10.91,9.98,17.04,12.89c6.13,2.91,13.08,4.37,20.86,4.37
			c7.47,0,13.67-1.09,18.61-3.25c4.93-2.17,8.86-4.97,11.78-8.41c2.91-3.44,4.96-7.37,6.16-11.78s1.79-8.86,1.79-13.34v-15.69h-0.67
			c-3.89,6.43-9.16,11.17-15.81,14.23c-6.65,3.07-13.64,4.6-20.97,4.6c-7.77,0-14.99-1.38-21.63-4.15
			c-6.65-2.76-12.37-6.57-17.15-11.43c-4.79-4.85-8.52-10.61-11.22-17.26c-2.69-6.65-4.03-13.87-4.03-21.64
			c0-7.77,1.27-15.05,3.81-21.86c2.54-6.8,6.16-12.74,10.87-17.83c4.71-5.08,10.39-9.04,17.04-11.88
			c6.65-2.84,14.09-4.26,22.31-4.26c7.18,0,14.16,1.57,20.97,4.71c6.8,3.14,12.14,7.55,16.03,13.23h0.44v-15.25h20.18V312.25z
			 M556.51,223.02c-5.38,0-10.24,0.93-14.58,2.8c-4.34,1.87-8,4.42-10.98,7.63c-2.99,3.22-5.31,7.1-6.95,11.66
			c-1.64,4.56-2.46,9.52-2.46,14.91c0,10.77,3.14,19.4,9.42,25.9s14.8,9.76,25.56,9.76c10.76,0,19.28-3.25,25.56-9.76
			s9.42-15.13,9.42-25.9c0-5.38-0.82-10.35-2.46-14.91c-1.65-4.56-3.97-8.44-6.95-11.66c-2.99-3.21-6.65-5.75-10.98-7.63
			C566.75,223.95,561.89,223.02,556.51,223.02z"/>
		<path class="st5" d="M642.16,206.87h20.18v16.37h0.44c2.54-5.68,6.95-10.28,13.23-13.79c6.28-3.51,13.53-5.27,21.75-5.27
			c5.08,0,9.97,0.78,14.69,2.35c4.71,1.57,8.81,4,12.33,7.29c3.51,3.29,6.31,7.51,8.41,12.67c2.09,5.16,3.14,11.25,3.14,18.27v68.39
			h-20.18v-62.78c0-4.93-0.68-9.15-2.02-12.67c-1.34-3.51-3.14-6.35-5.38-8.52c-2.24-2.17-4.82-3.73-7.73-4.71
			c-2.92-0.97-5.94-1.45-9.08-1.45c-4.19,0-8.08,0.67-11.66,2.01c-3.59,1.35-6.73,3.48-9.42,6.39c-2.69,2.91-4.78,6.62-6.28,11.1
			c-1.5,4.48-2.24,9.79-2.24,15.92v54.71h-20.18V206.87z"/>
		<path class="st5" d="M230.12,403.43h18.83v16.59h0.45c0.45-1.49,1.61-3.36,3.47-5.6c1.87-2.24,4.26-4.37,7.18-6.39
			c2.91-2.02,6.35-3.73,10.32-5.16c3.96-1.42,8.33-2.13,13.11-2.13c7.93,0,14.58,1.65,19.96,4.93c5.38,3.29,9.79,8.22,13.23,14.8
			c3.44-6.57,8.3-11.51,14.57-14.8c6.28-3.28,12.63-4.93,19.06-4.93c8.22,0,14.94,1.34,20.18,4.04c5.23,2.69,9.34,6.24,12.33,10.65
			c2.99,4.41,5.05,9.42,6.17,15.02c1.12,5.6,1.68,11.4,1.68,17.38v61.88h-20.17v-59.19c0-4.04-0.27-7.92-0.78-11.66
			c-0.53-3.73-1.61-7.02-3.25-9.87c-1.65-2.84-3.96-5.12-6.95-6.84c-2.99-1.72-6.95-2.58-11.88-2.58c-9.71,0-16.67,2.99-20.85,8.97
			c-4.18,5.98-6.28,13.68-6.28,23.09v58.07h-20.18v-55.6c0-5.08-0.26-9.72-0.78-13.9s-1.57-7.81-3.14-10.87
			c-1.57-3.06-3.81-5.46-6.73-7.17c-2.91-1.72-6.84-2.58-11.77-2.58c-3.59,0-7.06,0.71-10.42,2.13c-3.36,1.42-6.32,3.55-8.86,6.39
			c-2.54,2.84-4.56,6.47-6.05,10.87c-1.5,4.42-2.24,9.61-2.24,15.58v55.16h-20.18V403.43z"/>
		<path class="st5" d="M421.59,416.44c5.68-5.23,12.26-9.16,19.74-11.78c7.47-2.61,14.94-3.92,22.42-3.92
			c7.77,0,14.46,0.97,20.07,2.91c5.61,1.95,10.21,4.56,13.79,7.85c3.59,3.28,6.24,7.06,7.96,11.32c1.72,4.26,2.58,8.71,2.58,13.34
			v54.26c0,3.73,0.07,7.17,0.23,10.31c0.15,3.14,0.37,6.13,0.67,8.97H491.1c-0.44-5.38-0.67-10.76-0.67-16.14h-0.45
			c-4.48,6.87-9.79,11.73-15.92,14.57c-6.13,2.84-13.23,4.26-21.3,4.26c-4.93,0-9.65-0.67-14.13-2.01
			c-4.48-1.35-8.41-3.36-11.77-6.06c-3.36-2.69-6.02-6.02-7.96-9.97c-1.95-3.96-2.91-8.56-2.91-13.79c0-6.87,1.53-12.63,4.6-17.27
			c3.06-4.63,7.24-8.41,12.55-11.32c5.3-2.92,11.51-5.01,18.61-6.28c7.1-1.27,14.68-1.9,22.75-1.9h14.8v-4.48
			c0-2.69-0.52-5.38-1.57-8.07c-1.05-2.69-2.62-5.12-4.71-7.29c-2.09-2.17-4.71-3.89-7.85-5.16s-6.88-1.91-11.21-1.91
			c-3.89,0-7.29,0.38-10.21,1.13c-2.91,0.75-5.57,1.68-7.96,2.8c-2.4,1.13-4.56,2.43-6.5,3.93c-1.95,1.49-3.81,2.91-5.61,4.26
			L421.59,416.44z M478.54,458.59c-4.79,0-9.68,0.26-14.69,0.78s-9.57,1.53-13.67,3.03c-4.12,1.5-7.48,3.59-10.09,6.28
			c-2.62,2.69-3.92,6.13-3.92,10.32c0,6.13,2.05,10.53,6.16,13.23c4.11,2.69,9.68,4.03,16.71,4.03c5.53,0,10.24-0.93,14.12-2.8
			c3.89-1.87,7.02-4.29,9.42-7.29c2.39-2.99,4.11-6.31,5.16-9.97s1.57-7.29,1.57-10.87v-6.73H478.54z"/>
		<path class="st5" d="M613.52,431.68c-3.74-3.88-7.66-6.84-11.78-8.86c-4.11-2.02-9.01-3.02-14.68-3.02c-5.53,0-10.35,1-14.46,3.02
			c-4.11,2.02-7.55,4.79-10.32,8.3c-2.77,3.52-4.86,7.55-6.28,12.11c-1.42,4.56-2.13,9.31-2.13,14.24c0,4.93,0.82,9.6,2.46,14.01
			c1.64,4.41,3.96,8.26,6.95,11.54c2.99,3.29,6.57,5.87,10.77,7.74c4.18,1.87,8.89,2.8,14.12,2.8c5.68,0,10.54-1.01,14.57-3.03
			c4.04-2.02,7.77-4.97,11.21-8.86l14.35,14.35c-5.24,5.83-11.33,10.02-18.28,12.56c-6.95,2.54-14.31,3.81-22.08,3.81
			c-8.22,0-15.73-1.34-22.53-4.03c-6.8-2.69-12.66-6.47-17.6-11.32c-4.93-4.85-8.74-10.69-11.43-17.49
			c-2.69-6.8-4.03-14.31-4.03-22.53c0-8.22,1.34-15.77,4.03-22.64c2.69-6.87,6.47-12.78,11.32-17.72
			c4.85-4.93,10.69-8.78,17.49-11.54c6.8-2.77,14.39-4.15,22.76-4.15c7.77,0,15.21,1.38,22.31,4.15c7.1,2.77,13.27,6.99,18.5,12.67
			L613.52,431.68z"/>
		<path class="st5" d="M645.58,340.2h20.18v109.41l45.74-45.96h28.03l-49.55,48.21l53.81,57.85h-28.7l-49.33-55.16v55.16h-20.18
			V340.2z"/>
	</g>
</g>
</svg>
