<svg width="20" height="20" viewBox="0 0 20 20" fill="none" xmlns="http://www.w3.org/2000/svg">
<path d="M9.99977 0C4.47684 0.000273438 0.00046875 4.4768 0 9.99977C0.00046875 15.5227 4.47684 19.9992 9.99977 19.9995C15.5232 19.9992 19.9997 15.5227 20 9.99977C19.9997 4.4768 15.5232 0.000273438 9.99977 0ZM3.81277 3.81273C4.72449 2.90148 5.83469 2.19262 7.07273 1.75316C6.47965 2.47094 5.98523 3.39012 5.59785 4.45301H3.23328C3.41609 4.23055 3.60922 4.01633 3.81277 3.81273ZM2.56297 5.39051H5.2968C4.94492 6.63773 4.73391 8.04027 4.69668 9.53102H1.26277C1.34273 8.01523 1.80859 6.60477 2.56297 5.39051ZM2.56297 14.609C1.80859 13.3948 1.34273 11.9843 1.26277 10.4685H4.69992C4.73746 11.9577 4.9425 13.3627 5.29391 14.6091L2.56297 14.609ZM3.81277 16.1867C3.60922 15.9832 3.41605 15.7689 3.23324 15.5465H5.59937C5.76656 16.0064 5.95168 16.4427 6.15844 16.8437C6.43008 17.3687 6.73492 17.8386 7.07047 18.2457C5.83328 17.8062 4.72387 17.0974 3.81277 16.1867ZM9.53117 18.7368C9.38484 18.7291 9.23941 18.7181 9.09508 18.7032C8.865 18.6 8.63719 18.459 8.41148 18.275C7.72273 17.7141 7.0843 16.7644 6.59906 15.5465H9.53113V18.7368H9.53117ZM9.53117 14.609H6.27195C5.90176 13.3914 5.67367 11.9797 5.63414 10.4685H9.53113V14.609H9.53117ZM9.53117 9.53102H5.63711C5.67648 8.01891 5.90566 6.6084 6.27613 5.39051H9.53121L9.53117 9.53102ZM9.53117 4.45301H6.6034C6.72484 4.14871 6.85211 3.85488 6.99145 3.58602C7.40707 2.78035 7.89652 2.145 8.41152 1.72445C8.63719 1.54047 8.865 1.39945 9.09512 1.29633C9.23945 1.28141 9.38484 1.27039 9.53121 1.26277L9.53117 4.45301ZM17.4372 5.39051C18.1916 6.60477 18.6573 8.01527 18.7372 9.53102H15.3001C15.2625 8.0418 15.0575 6.6368 14.7059 5.39051H17.4372ZM16.1872 3.81273C16.3908 4.01629 16.5839 4.23055 16.7668 4.45301H14.4005C14.2332 3.99313 14.048 3.55672 13.8414 3.15574C13.5698 2.63086 13.2649 2.1609 12.9294 1.75379C14.1667 2.19352 15.276 2.90215 16.1872 3.81273ZM10.4687 1.26277C10.615 1.27039 10.7604 1.28168 10.9046 1.29633C11.1347 1.3998 11.3625 1.54047 11.5884 1.72445C12.2773 2.28535 12.9155 3.23504 13.4007 4.45297H10.4687V1.26277ZM10.4687 5.39051H13.7279C14.098 6.60813 14.3263 8.0198 14.3657 9.53102H10.4687V5.39051ZM10.4687 10.4685H14.3626C14.3233 11.9806 14.0941 13.3911 13.7236 14.6091H10.4687V10.4685ZM11.5883 18.275C11.3625 18.459 11.1346 18.5997 10.9046 18.7032C10.7604 18.7178 10.615 18.7291 10.4686 18.7368V15.5465H13.3964C13.275 15.8508 13.1477 16.1446 13.0084 16.4135C12.5928 17.2191 12.1033 17.8545 11.5883 18.275ZM16.1872 16.1867C15.2757 17.098 14.1652 17.8069 12.9271 18.2463C13.5204 17.5285 14.0144 16.6094 14.402 15.5465H16.7668C16.5839 15.769 16.3908 15.9832 16.1872 16.1867ZM17.4372 14.609H14.7029C15.0548 13.3618 15.2659 11.9589 15.3032 10.4685H18.7372C18.6573 11.9843 18.1916 13.3948 17.4372 14.609Z" fill="#535353"/>
</svg>
