<svg width="505" height="100" viewBox="0 0 505 100" fill="none" xmlns="http://www.w3.org/2000/svg">
<mask id="path-1-outside-1_2633_1858" maskUnits="userSpaceOnUse" x="-0.605469" y="-0.3125" width="506" height="100" fill="black">
<rect fill="white" x="-0.605469" y="-0.3125" width="506" height="100"/>
<path d="M60.9955 15.2041H18.2666V40.5864C20.0523 38.2055 22.6883 36.2072 26.1746 34.5916C29.746 32.976 33.5299 32.1681 37.5265 32.1681C44.6692 32.1681 50.4514 33.6987 54.8731 36.7599C59.3798 39.8211 62.5686 43.6901 64.4393 48.3669C66.395 53.0436 67.3729 57.9755 67.3729 63.1625C67.3729 69.4549 66.1399 75.0671 63.674 79.999C61.2931 84.8458 57.6792 88.6723 52.8323 91.4784C48.0705 94.2845 42.2032 95.6875 35.2306 95.6875C25.962 95.6875 18.5217 93.3916 12.9095 88.7999C7.29736 84.2081 3.93857 78.1283 2.83315 70.5604H16.9911C17.9264 74.5569 20.0097 77.7456 23.241 80.1265C26.4722 82.4224 30.5113 83.5704 35.3581 83.5704C41.3954 83.5704 45.9022 81.7422 48.8783 78.0857C51.9395 74.4293 53.4701 69.5825 53.4701 63.5452C53.4701 57.4228 51.9395 52.746 48.8783 49.5148C45.8171 46.1985 41.3104 44.5404 35.3581 44.5404C31.1915 44.5404 27.6627 45.6033 24.7716 47.7291C21.9655 49.7699 19.9247 52.576 18.6492 56.1473H4.87393V2.44925H60.9955V15.2041ZM142.457 15.2041H99.7285V40.5864C101.514 38.2055 104.15 36.2072 107.636 34.5916C111.208 32.976 114.992 32.1681 118.988 32.1681C126.131 32.1681 131.913 33.6987 136.335 36.7599C140.842 39.8211 144.03 43.6901 145.901 48.3669C147.857 53.0436 148.835 57.9755 148.835 63.1625C148.835 69.4549 147.602 75.0671 145.136 79.999C142.755 84.8458 139.141 88.6723 134.294 91.4784C129.532 94.2845 123.665 95.6875 116.692 95.6875C107.424 95.6875 99.9836 93.3916 94.3714 88.7999C88.7593 84.2081 85.4005 78.1283 84.295 70.5604H98.453C99.3883 74.5569 101.472 77.7456 104.703 80.1265C107.934 82.4224 111.973 83.5704 116.82 83.5704C122.857 83.5704 127.364 81.7422 130.34 78.0857C133.401 74.4293 134.932 69.5825 134.932 63.5452C134.932 57.4228 133.401 52.746 130.34 49.5148C127.279 46.1985 122.772 44.5404 116.82 44.5404C112.653 44.5404 109.125 45.6033 106.233 47.7291C103.427 49.7699 101.387 52.576 100.111 56.1473H86.3358V2.44925H142.457V15.2041ZM194.17 60.2289C194.17 53.1712 195.616 46.9213 198.507 41.4792C201.483 36.0371 205.48 31.828 210.497 28.8519C215.599 25.7907 221.211 24.2601 227.333 24.2601C232.86 24.2601 237.665 25.3655 241.746 27.5764C245.913 29.7022 249.229 32.3807 251.695 35.612V25.4081H266.363V95.6875H251.695V85.2285C249.229 88.5448 245.87 91.3083 241.619 93.5192C237.367 95.73 232.52 96.8354 227.078 96.8354C221.041 96.8354 215.514 95.3049 210.497 92.2437C205.48 89.0975 201.483 84.7608 198.507 79.2337C195.616 73.6215 194.17 67.2866 194.17 60.2289ZM251.695 60.484C251.695 55.6371 250.675 51.428 248.634 47.8567C246.678 44.2853 244.085 41.5642 240.853 39.6935C237.622 37.8228 234.136 36.8875 230.394 36.8875C226.653 36.8875 223.167 37.8228 219.935 39.6935C216.704 41.4792 214.068 44.1577 212.027 47.7291C210.072 51.2154 209.094 55.382 209.094 60.2289C209.094 65.0758 210.072 69.3274 212.027 72.9838C214.068 76.6402 216.704 79.4463 219.935 81.402C223.252 83.2727 226.738 84.2081 230.394 84.2081C234.136 84.2081 237.622 83.2727 240.853 81.402C244.085 79.5313 246.678 76.8103 248.634 73.2389C250.675 69.5825 251.695 65.3309 251.695 60.484ZM320.92 24.2601C326.447 24.2601 331.379 25.4081 335.716 27.7039C340.138 29.9998 343.581 33.4011 346.047 37.9078C348.513 42.4146 349.746 47.8567 349.746 54.2341V95.6875H335.333V56.4024C335.333 50.11 333.76 45.3057 330.614 41.9894C327.468 38.5881 323.174 36.8875 317.731 36.8875C312.289 36.8875 307.953 38.5881 304.721 41.9894C301.575 45.3057 300.002 50.11 300.002 56.4024V95.6875H285.462V25.4081H300.002V33.4436C302.383 30.5525 305.402 28.2992 309.058 26.6835C312.8 25.0679 316.754 24.2601 320.92 24.2601ZM398.778 96.8354C392.145 96.8354 386.15 95.3474 380.793 92.3712C375.436 89.3101 371.227 85.0584 368.166 79.6163C365.105 74.0892 363.574 67.7118 363.574 60.484C363.574 53.3413 365.147 47.0063 368.294 41.4792C371.44 35.9521 375.734 31.7005 381.176 28.7243C386.618 25.7482 392.698 24.2601 399.416 24.2601C406.133 24.2601 412.213 25.7482 417.655 28.7243C423.097 31.7005 427.391 35.9521 430.538 41.4792C433.684 47.0063 435.257 53.3413 435.257 60.484C435.257 67.6267 433.641 73.9617 430.41 79.4888C427.179 85.0159 422.757 89.3101 417.145 92.3712C411.618 95.3474 405.495 96.8354 398.778 96.8354ZM398.778 84.2081C402.519 84.2081 406.006 83.3153 409.237 81.5296C412.553 79.7439 415.232 77.0654 417.272 73.494C419.313 69.9226 420.334 65.586 420.334 60.484C420.334 55.382 419.356 51.0879 417.4 47.6016C415.444 44.0302 412.851 41.3517 409.619 39.566C406.388 37.7803 402.902 36.8875 399.16 36.8875C395.419 36.8875 391.933 37.7803 388.701 39.566C385.555 41.3517 383.047 44.0302 381.176 47.6016C379.305 51.0879 378.37 55.382 378.37 60.484C378.37 68.0519 380.283 73.9192 384.11 78.0857C388.021 82.1673 392.911 84.2081 398.778 84.2081ZM475.141 96.8354C469.614 96.8354 464.639 95.8576 460.218 93.9018C455.881 91.861 452.437 89.14 449.886 85.7387C447.335 82.2523 445.975 78.3834 445.805 74.1317H460.855C461.11 77.1079 462.513 79.6163 465.064 81.6571C467.7 83.6129 470.974 84.5907 474.886 84.5907C478.967 84.5907 482.113 83.8255 484.324 82.2949C486.62 80.6792 487.768 78.6385 487.768 76.1725C487.768 73.5365 486.493 71.5808 483.942 70.3053C481.476 69.0298 477.522 67.6267 472.08 66.0962C466.808 64.6506 462.513 63.2476 459.197 61.887C455.881 60.5265 452.99 58.4432 450.524 55.6371C448.143 52.8311 446.952 49.1321 446.952 44.5404C446.952 40.799 448.058 37.3976 450.269 34.3365C452.48 31.1903 455.626 28.7243 459.707 26.9386C463.874 25.153 468.636 24.2601 473.993 24.2601C481.986 24.2601 488.406 26.3009 493.253 30.3825C498.185 34.379 500.821 39.8636 501.161 46.8363H486.62C486.365 43.6901 485.09 41.1816 482.794 39.3109C480.498 37.4402 477.394 36.5048 473.483 36.5048C469.656 36.5048 466.723 37.2276 464.682 38.6731C462.641 40.1187 461.621 42.0319 461.621 44.4128C461.621 46.2836 462.301 47.8567 463.661 49.1321C465.022 50.4076 466.68 51.428 468.636 52.1933C470.592 52.8736 473.483 53.7664 477.309 54.8718C482.411 56.2324 486.578 57.6354 489.809 59.081C493.125 60.4415 495.974 62.4823 498.355 65.2033C500.736 67.9244 501.969 71.5382 502.054 76.045C502.054 80.0415 500.948 83.6129 498.737 86.7591C496.526 89.9053 493.38 92.3712 489.299 94.1569C485.302 95.9426 480.583 96.8354 475.141 96.8354Z"/>
</mask>
<path d="M60.9955 15.2041V17.654H63.4453V15.2041H60.9955ZM18.2666 15.2041V12.7543H15.8167V15.2041H18.2666ZM18.2666 40.5864H15.8167V47.9358L20.2264 42.0563L18.2666 40.5864ZM26.1746 34.5916L25.1649 32.3595L25.1547 32.3641L25.1445 32.3688L26.1746 34.5916ZM54.8731 36.7599L53.4786 38.7741L53.4876 38.7803L53.4966 38.7864L54.8731 36.7599ZM64.4393 48.3669L62.1647 49.2767L62.1718 49.2944L62.1791 49.312L64.4393 48.3669ZM63.674 79.999L61.4828 78.9034L61.4789 78.9111L61.4751 78.9188L63.674 79.999ZM52.8323 91.4784L51.6049 89.3582L51.5967 89.363L51.5886 89.3678L52.8323 91.4784ZM12.9095 88.7999L14.4608 86.9038V86.9038L12.9095 88.7999ZM2.83315 70.5604V68.1105H-0.000506878L0.409052 70.9144L2.83315 70.5604ZM16.9911 70.5604L19.3764 70.0021L18.9337 68.1105H16.9911V70.5604ZM23.241 80.1265L21.7877 82.0988L21.8048 82.1113L21.822 82.1236L23.241 80.1265ZM48.8783 78.0858L46.9999 76.5131L46.989 76.5261L46.9783 76.5392L48.8783 78.0858ZM48.8783 49.5148L47.0782 51.1765L47.0889 51.1881L47.0999 51.1996L48.8783 49.5148ZM24.7716 47.7291L26.2125 49.7104L26.2228 49.7028L24.7716 47.7291ZM18.6492 56.1473V58.5972H20.3757L20.9563 56.9713L18.6492 56.1473ZM4.87393 56.1473H2.42411V58.5972H4.87393V56.1473ZM4.87393 2.44925V-0.000572205H2.42411V2.44925H4.87393ZM60.9955 2.44925H63.4453V-0.000572205H60.9955V2.44925ZM60.9955 15.2041V12.7543H18.2666V15.2041V17.654H60.9955V15.2041ZM18.2666 15.2041H15.8167V40.5864H18.2666H20.7164V15.2041H18.2666ZM18.2666 40.5864L20.2264 42.0563C21.7086 40.08 23.9818 38.3078 27.2047 36.8143L26.1746 34.5916L25.1445 32.3688C21.3948 34.1065 18.3959 36.3309 16.3067 39.1165L18.2666 40.5864ZM26.1746 34.5916L27.1843 36.8236C30.4321 35.3544 33.8711 34.618 37.5265 34.618V32.1681V29.7183C33.1887 29.7183 29.0598 30.5975 25.1649 32.3595L26.1746 34.5916ZM37.5265 32.1681V34.618C44.332 34.618 49.5817 36.0762 53.4786 38.7741L54.8731 36.7599L56.2676 34.7457C51.3211 31.3212 45.0064 29.7183 37.5265 29.7183V32.1681ZM54.8731 36.7599L53.4966 38.7864C57.6339 41.5967 60.4902 45.0906 62.1647 49.2767L64.4393 48.3669L66.7139 47.457C64.6469 42.2895 61.1258 38.0455 56.2496 34.7334L54.8731 36.7599ZM64.4393 48.3669L62.1791 49.312C64.0067 53.6824 64.9231 58.2923 64.9231 63.1625H67.3729H69.8227C69.8227 57.6588 68.7833 52.4049 66.6994 47.4217L64.4393 48.3669ZM67.3729 63.1625H64.9231C64.9231 69.1286 63.7561 74.3568 61.4828 78.9034L63.674 79.999L65.8652 81.0946C68.5238 75.7773 69.8227 69.7813 69.8227 63.1625H67.3729ZM63.674 79.999L61.4751 78.9188C59.3162 83.3138 56.0486 86.7855 51.6049 89.3582L52.8323 91.4784L54.0598 93.5985C59.3097 90.5591 63.2699 86.3779 65.8728 81.0791L63.674 79.999ZM52.8323 91.4784L51.5886 89.3678C47.2902 91.9007 41.8787 93.2377 35.2306 93.2377V95.6875V98.1373C42.5278 98.1373 48.8507 96.6682 54.0761 93.589L52.8323 91.4784ZM35.2306 95.6875V93.2377C26.3673 93.2377 19.5255 91.0476 14.4608 86.9038L12.9095 88.7999L11.3582 90.6959C17.5178 95.7356 25.5568 98.1373 35.2306 98.1373V95.6875ZM12.9095 88.7999L14.4608 86.9038C9.34945 82.7218 6.27962 77.2056 5.25725 70.2063L2.83315 70.5604L0.409052 70.9144C1.59753 79.0509 5.24528 85.6944 11.3582 90.6959L12.9095 88.7999ZM2.83315 70.5604V73.0102H16.9911V70.5604V68.1105H2.83315V70.5604ZM16.9911 70.5604L14.6057 71.1186C15.6705 75.6683 18.0761 79.3639 21.7877 82.0988L23.241 80.1265L24.6942 78.1543C21.9434 76.1274 20.1824 73.4455 19.3764 70.0021L16.9911 70.5604ZM23.241 80.1265L21.822 82.1236C25.5527 84.7743 30.1178 86.0202 35.3581 86.0202V83.5704V81.1205C30.9047 81.1205 27.3918 80.0705 24.6599 78.1295L23.241 80.1265ZM35.3581 83.5704V86.0202C41.9082 86.0202 47.2118 84.0139 50.7783 79.6322L48.8783 78.0858L46.9783 76.5392C44.5925 79.4704 40.8827 81.1205 35.3581 81.1205V83.5704ZM48.8783 78.0858L50.7567 79.6584C54.2765 75.4542 55.9199 70.0007 55.9199 63.5452H53.4701H51.0202C51.0202 69.1643 49.6024 73.4045 46.9999 76.5131L48.8783 78.0858ZM53.4701 63.5452H55.9199C55.9199 57.0345 54.289 51.664 50.6568 47.8299L48.8783 49.5148L47.0999 51.1996C49.5899 53.828 51.0202 57.8112 51.0202 63.5452H53.4701ZM48.8783 49.5148L50.6784 47.8531C47.0181 43.8878 41.7651 42.0906 35.3581 42.0906V44.5404V46.9902C40.8557 46.9902 44.6161 48.5093 47.0782 51.1765L48.8783 49.5148ZM35.3581 44.5404V42.0906C30.7566 42.0906 26.6973 43.2724 23.3203 45.7554L24.7716 47.7291L26.2228 49.7028C28.6281 47.9342 31.6265 46.9902 35.3581 46.9902V44.5404ZM24.7716 47.7291L23.3306 45.7478C20.0889 48.1055 17.7672 51.333 16.3421 55.3234L18.6492 56.1473L20.9563 56.9713C22.0822 53.8189 23.842 51.4343 26.2125 49.7104L24.7716 47.7291ZM18.6492 56.1473V53.6975H4.87393V56.1473V58.5972H18.6492V56.1473ZM4.87393 56.1473H7.32376V2.44925H4.87393H2.42411V56.1473H4.87393ZM4.87393 2.44925V4.89907H60.9955V2.44925V-0.000572205H4.87393V2.44925ZM60.9955 2.44925H58.5456V15.2041H60.9955H63.4453V2.44925H60.9955ZM142.457 15.2041V17.654H144.907V15.2041H142.457ZM99.7285 15.2041V12.7543H97.2786V15.2041H99.7285ZM99.7285 40.5864H97.2786V47.9358L101.688 42.0563L99.7285 40.5864ZM107.636 34.5916L106.627 32.3595L106.617 32.3641L106.606 32.3688L107.636 34.5916ZM136.335 36.7599L134.941 38.7741L134.949 38.7803L134.958 38.7864L136.335 36.7599ZM145.901 48.3669L143.627 49.2767L143.634 49.2944L143.641 49.312L145.901 48.3669ZM145.136 79.999L142.945 78.9034L142.941 78.9111L142.937 78.9188L145.136 79.999ZM134.294 91.4784L133.067 89.3582L133.059 89.363L133.05 89.3678L134.294 91.4784ZM94.3714 88.7999L95.9227 86.9038V86.9038L94.3714 88.7999ZM84.2951 70.5604V68.1105H81.4614L81.8709 70.9144L84.2951 70.5604ZM98.453 70.5604L100.838 70.0021L100.396 68.1105H98.453V70.5604ZM104.703 80.1265L103.25 82.0988L103.267 82.1113L103.284 82.1236L104.703 80.1265ZM130.34 78.0858L128.462 76.5131L128.451 76.5261L128.44 76.5392L130.34 78.0858ZM130.34 49.5148L128.54 51.1765L128.551 51.1881L128.562 51.1996L130.34 49.5148ZM106.233 47.7291L107.674 49.7104L107.685 49.7028L106.233 47.7291ZM100.111 56.1473V58.5972H101.838L102.418 56.9713L100.111 56.1473ZM86.3358 56.1473H83.886V58.5972H86.3358V56.1473ZM86.3358 2.44925V-0.000572205H83.886V2.44925H86.3358ZM142.457 2.44925H144.907V-0.000572205H142.457V2.44925ZM142.457 15.2041V12.7543H99.7285V15.2041V17.654H142.457V15.2041ZM99.7285 15.2041H97.2786V40.5864H99.7285H102.178V15.2041H99.7285ZM99.7285 40.5864L101.688 42.0563C103.171 40.08 105.444 38.3078 108.667 36.8143L107.636 34.5916L106.606 32.3688C102.857 34.1065 99.8578 36.3309 97.7686 39.1165L99.7285 40.5864ZM107.636 34.5916L108.646 36.8236C111.894 35.3544 115.333 34.618 118.988 34.618V32.1681V29.7183C114.651 29.7183 110.522 30.5975 106.627 32.3595L107.636 34.5916ZM118.988 32.1681V34.618C125.794 34.618 131.044 36.0762 134.941 38.7741L136.335 36.7599L137.729 34.7457C132.783 31.3212 126.468 29.7183 118.988 29.7183V32.1681ZM136.335 36.7599L134.958 38.7864C139.096 41.5967 141.952 45.0906 143.627 49.2767L145.901 48.3669L148.176 47.457C146.109 42.2895 142.588 38.0455 137.712 34.7334L136.335 36.7599ZM145.901 48.3669L143.641 49.312C145.469 53.6824 146.385 58.2923 146.385 63.1625H148.835H151.285C151.285 57.6588 150.245 52.4049 148.161 47.4217L145.901 48.3669ZM148.835 63.1625H146.385C146.385 69.1286 145.218 74.3568 142.945 78.9034L145.136 79.999L147.327 81.0946C149.986 75.7773 151.285 69.7813 151.285 63.1625H148.835ZM145.136 79.999L142.937 78.9188C140.778 83.3138 137.511 86.7855 133.067 89.3582L134.294 91.4784L135.522 93.5985C140.772 90.5591 144.732 86.3779 147.335 81.0791L145.136 79.999ZM134.294 91.4784L133.05 89.3678C128.752 91.9007 123.341 93.2377 116.692 93.2377V95.6875V98.1373C123.99 98.1373 130.313 96.6682 135.538 93.589L134.294 91.4784ZM116.692 95.6875V93.2377C107.829 93.2377 100.987 91.0476 95.9227 86.9038L94.3714 88.7999L92.8201 90.6959C98.9797 95.7356 107.019 98.1373 116.692 98.1373V95.6875ZM94.3714 88.7999L95.9227 86.9038C90.8113 82.7218 87.7415 77.2056 86.7191 70.2063L84.2951 70.5604L81.8709 70.9144C83.0594 79.0509 86.7072 85.6944 92.8201 90.6959L94.3714 88.7999ZM84.2951 70.5604V73.0102H98.453V70.5604V68.1105H84.2951V70.5604ZM98.453 70.5604L96.0676 71.1186C97.1324 75.6683 99.538 79.3639 103.25 82.0988L104.703 80.1265L106.156 78.1543C103.405 76.1274 101.644 73.4455 100.838 70.0021L98.453 70.5604ZM104.703 80.1265L103.284 82.1236C107.015 84.7743 111.58 86.0202 116.82 86.0202V83.5704V81.1205C112.367 81.1205 108.854 80.0705 106.122 78.1295L104.703 80.1265ZM116.82 83.5704V86.0202C123.37 86.0202 128.674 84.0139 132.24 79.6322L130.34 78.0858L128.44 76.5392C126.054 79.4704 122.345 81.1205 116.82 81.1205V83.5704ZM130.34 78.0858L132.219 79.6584C135.738 75.4542 137.382 70.0007 137.382 63.5452H134.932H132.482C132.482 69.1643 131.064 73.4045 128.462 76.5131L130.34 78.0858ZM134.932 63.5452H137.382C137.382 57.0345 135.751 51.664 132.119 47.8299L130.34 49.5148L128.562 51.1996C131.052 53.828 132.482 57.8112 132.482 63.5452H134.932ZM130.34 49.5148L132.14 47.8531C128.48 43.8878 123.227 42.0906 116.82 42.0906V44.5404V46.9902C122.318 46.9902 126.078 48.5093 128.54 51.1765L130.34 49.5148ZM116.82 44.5404V42.0906C112.218 42.0906 108.159 43.2724 104.782 45.7554L106.233 47.7291L107.685 49.7028C110.09 47.9342 113.088 46.9902 116.82 46.9902V44.5404ZM106.233 47.7291L104.793 45.7478C101.551 48.1055 99.2291 51.333 97.804 55.3234L100.111 56.1473L102.418 56.9713C103.544 53.8189 105.304 51.4343 107.674 49.7104L106.233 47.7291ZM100.111 56.1473V53.6975H86.3358V56.1473V58.5972H100.111V56.1473ZM86.3358 56.1473H88.7857V2.44925H86.3358H83.886V56.1473H86.3358ZM86.3358 2.44925V4.89907H142.457V2.44925V-0.000572205H86.3358V2.44925ZM142.457 2.44925H140.008V15.2041H142.457H144.907V2.44925H142.457ZM198.507 41.4792L196.358 40.3038L196.351 40.3168L196.344 40.3299L198.507 41.4792ZM210.497 28.8519L211.747 30.9589L211.757 30.9526L210.497 28.8519ZM241.746 27.5764L240.579 29.7305L240.606 29.7449L240.633 29.7586L241.746 27.5764ZM251.695 35.612L249.748 37.0982L254.145 42.8602V35.612H251.695ZM251.695 25.4081V22.9582H249.245V25.4081H251.695ZM266.363 25.4081H268.813V22.9582H266.363V25.4081ZM266.363 95.6875V98.1373H268.813V95.6875H266.363ZM251.695 95.6875H249.245V98.1373H251.695V95.6875ZM251.695 85.2285H254.145V77.8283L249.729 83.7667L251.695 85.2285ZM241.619 93.5192L240.488 91.3456V91.3456L241.619 93.5192ZM210.497 92.2437L209.195 94.3192L209.208 94.3271L209.221 94.3349L210.497 92.2437ZM198.507 79.2337L196.329 80.3556L196.34 80.3755L196.35 80.3951L198.507 79.2337ZM248.634 47.8567L246.485 49.0333L246.496 49.0528L246.507 49.0721L248.634 47.8567ZM240.853 39.6935L239.626 41.8137V41.8137L240.853 39.6935ZM219.935 39.6935L221.12 41.8377L221.142 41.8259L221.163 41.8137L219.935 39.6935ZM212.027 47.7291L209.9 46.5137L209.895 46.5221L209.891 46.5305L212.027 47.7291ZM212.027 72.9838L209.867 74.1393L209.877 74.1586L209.888 74.1778L212.027 72.9838ZM219.935 81.402L218.667 83.4978L218.699 83.5173L218.732 83.5358L219.935 81.402ZM240.853 81.402L242.081 83.5222V83.5222L240.853 81.402ZM248.634 73.2389L246.495 72.0449L246.49 72.0536L246.485 72.0622L248.634 73.2389ZM194.17 60.2289H196.62C196.62 53.5133 197.993 47.6683 200.671 42.6286L198.507 41.4792L196.344 40.3299C193.239 46.1743 191.721 52.8291 191.721 60.2289H194.17ZM198.507 41.4792L200.657 42.6547C203.436 37.5728 207.132 33.6965 211.747 30.9588L210.497 28.8519L209.247 26.7449C203.828 29.9596 199.531 34.5015 196.358 40.3038L198.507 41.4792ZM210.497 28.8519L211.757 30.9526C216.467 28.1267 221.641 26.7099 227.333 26.7099V24.2601V21.8103C220.78 21.8103 214.73 23.4547 209.236 26.7512L210.497 28.8519ZM227.333 24.2601V26.7099C232.53 26.7099 236.919 27.7476 240.579 29.7305L241.746 27.5764L242.913 25.4223C238.411 22.9835 233.19 21.8103 227.333 21.8103V24.2601ZM241.746 27.5764L240.633 29.7586C244.522 31.7429 247.535 34.1994 249.748 37.0982L251.695 35.612L253.643 34.1257C250.923 30.562 247.304 27.6615 242.86 25.3942L241.746 27.5764ZM251.695 35.612H254.145V25.4081H251.695H249.245V35.612H251.695ZM251.695 25.4081V27.8579H266.363V25.4081V22.9582H251.695V25.4081ZM266.363 25.4081H263.913V95.6875H266.363H268.813V25.4081H266.363ZM266.363 95.6875V93.2377H251.695V95.6875V98.1373H266.363V95.6875ZM251.695 95.6875H254.145V85.2285H251.695H249.245V95.6875H251.695ZM251.695 85.2285L249.729 83.7667C247.517 86.7416 244.464 89.2785 240.488 91.3456L241.619 93.5192L242.749 95.6927C247.277 93.3381 250.941 90.348 253.661 86.6903L251.695 85.2285ZM241.619 93.5192L240.488 91.3456C236.631 93.3517 232.181 94.3856 227.078 94.3856V96.8354V99.2853C232.86 99.2853 238.103 98.1084 242.749 95.6927L241.619 93.5192ZM227.078 96.8354V94.3856C221.478 94.3856 216.394 92.9725 211.773 90.1524L210.497 92.2437L209.221 94.3349C214.633 97.6373 220.603 99.2853 227.078 99.2853V96.8354ZM210.497 92.2437L211.798 90.1682C207.163 87.2611 203.452 83.249 200.664 78.0722L198.507 79.2337L196.35 80.3951C199.515 86.2726 203.797 90.9339 209.195 94.3192L210.497 92.2437ZM198.507 79.2337L200.685 78.1118C197.993 72.8858 196.62 66.9429 196.62 60.2289H194.17H191.721C191.721 67.6303 193.239 74.3573 196.329 80.3556L198.507 79.2337ZM251.695 60.484H254.145C254.145 55.2873 253.048 50.6439 250.761 46.6412L248.634 47.8567L246.507 49.0721C248.301 52.2122 249.245 55.987 249.245 60.484H251.695ZM248.634 47.8567L250.783 46.68C248.632 42.7526 245.734 39.6886 242.081 37.5734L240.853 39.6935L239.626 41.8137C242.435 43.4399 244.724 45.818 246.485 49.0333L248.634 47.8567ZM240.853 39.6935L242.081 37.5734C238.476 35.4862 234.566 34.4376 230.394 34.4376V36.8875V39.3373C233.706 39.3373 236.768 40.1594 239.626 41.8137L240.853 39.6935ZM230.394 36.8875V34.4376C226.223 34.4376 222.313 35.4862 218.708 37.5734L219.935 39.6935L221.163 41.8137C224.02 40.1594 227.083 39.3373 230.394 39.3373V36.8875ZM219.935 39.6935L218.75 37.5493C215.082 39.5765 212.138 42.598 209.9 46.5137L212.027 47.7291L214.154 48.9446C215.998 45.7175 218.326 43.3819 221.12 41.8377L219.935 39.6935ZM212.027 47.7291L209.891 46.5305C207.69 50.4533 206.644 55.0511 206.644 60.2289H209.094H211.544C211.544 55.713 212.453 51.9776 214.164 48.9277L212.027 47.7291ZM209.094 60.2289H206.644C206.644 65.4106 207.691 70.0717 209.867 74.1393L212.027 72.9838L214.188 71.8283C212.452 68.5831 211.544 64.7409 211.544 60.2289H209.094ZM212.027 72.9838L209.888 74.1778C212.113 78.1639 215.034 81.2988 218.667 83.4978L219.935 81.402L221.204 79.3062C218.375 77.5937 216.023 75.1165 214.166 71.7898L212.027 72.9838ZM219.935 81.402L218.732 83.5358C222.399 85.6048 226.298 86.6579 230.394 86.6579V84.2081V81.7583C227.177 81.7583 224.104 80.9407 221.139 79.2683L219.935 81.402ZM230.394 84.2081V86.6579C234.566 86.6579 238.476 85.6093 242.081 83.5222L240.853 81.402L239.626 79.2819C236.768 80.9362 233.706 81.7583 230.394 81.7583V84.2081ZM240.853 81.402L242.081 83.5222C245.734 81.407 248.632 78.3429 250.783 74.4156L248.634 73.2389L246.485 72.0622C244.724 75.2776 242.435 77.6557 239.626 79.2819L240.853 81.402ZM248.634 73.2389L250.773 74.4329C253.048 70.3576 254.145 65.6824 254.145 60.484H251.695H249.245C249.245 64.9793 248.302 68.8074 246.495 72.0449L248.634 73.2389ZM335.716 27.7039L334.57 29.869L334.578 29.8736L334.587 29.8781L335.716 27.7039ZM346.047 37.9078L343.898 39.0838V39.0838L346.047 37.9078ZM349.746 95.6875V98.1373H352.196V95.6875H349.746ZM335.333 95.6875H332.883V98.1373H335.333V95.6875ZM330.614 41.9894L328.815 43.6529L328.826 43.6643L328.837 43.6755L330.614 41.9894ZM304.721 41.9894L302.945 40.3021L302.944 40.3033L304.721 41.9894ZM300.002 95.6875V98.1373H302.452V95.6875H300.002ZM285.462 95.6875H283.012V98.1373H285.462V95.6875ZM285.462 25.4081V22.9582H283.012V25.4081H285.462ZM300.002 25.4081H302.452V22.9582H300.002V25.4081ZM300.002 33.4436H297.552V40.2721L301.893 35.001L300.002 33.4436ZM309.058 26.6835L308.087 24.4345L308.077 24.4385L308.068 24.4427L309.058 26.6835ZM320.92 24.2601V26.7099C326.099 26.7099 330.629 27.7827 334.57 29.869L335.716 27.7039L336.862 25.5388C332.13 23.0334 326.796 21.8103 320.92 21.8103V24.2601ZM335.716 27.7039L334.587 29.8781C338.563 31.9426 341.658 34.9896 343.898 39.0838L346.047 37.9078L348.196 36.7319C345.505 31.8126 341.712 28.057 336.845 25.5297L335.716 27.7039ZM346.047 37.9078L343.898 39.0838C346.125 43.1529 347.296 48.1698 347.296 54.2341H349.746H352.196C352.196 47.5435 350.902 41.6762 348.196 36.7319L346.047 37.9078ZM349.746 54.2341H347.296V95.6875H349.746H352.196V54.2341H349.746ZM349.746 95.6875V93.2377H335.333V95.6875V98.1373H349.746V95.6875ZM335.333 95.6875H337.783V56.4024H335.333H332.883V95.6875H335.333ZM335.333 56.4024H337.783C337.783 49.7219 336.11 44.2229 332.391 40.3033L330.614 41.9894L328.837 43.6755C331.41 46.3884 332.883 50.4981 332.883 56.4024H335.333ZM330.614 41.9894L332.412 40.3259C328.721 36.3352 323.726 34.4376 317.731 34.4376V36.8875V39.3373C322.621 39.3373 326.214 40.841 328.815 43.6529L330.614 41.9894ZM317.731 36.8875V34.4376C311.735 34.4376 306.714 36.3351 302.945 40.3021L304.721 41.9894L306.498 43.6767C309.191 40.8412 312.844 39.3373 317.731 39.3373V36.8875ZM304.721 41.9894L302.944 40.3033C299.226 44.2229 297.552 49.7219 297.552 56.4024H300.002H302.452C302.452 50.4981 303.925 46.3884 306.499 43.6755L304.721 41.9894ZM300.002 56.4024H297.552V95.6875H300.002H302.452V56.4024H300.002ZM300.002 95.6875V93.2377H285.462V95.6875V98.1373H300.002V95.6875ZM285.462 95.6875H287.911V25.4081H285.462H283.012V95.6875H285.462ZM285.462 25.4081V27.8579H300.002V25.4081V22.9582H285.462V25.4081ZM300.002 25.4081H297.552V33.4436H300.002H302.452V25.4081H300.002ZM300.002 33.4436L301.893 35.001C304.015 32.4245 306.717 30.3962 310.048 28.9244L309.058 26.6835L308.068 24.4427C304.086 26.2021 300.751 28.6805 298.111 31.8863L300.002 33.4436ZM309.058 26.6835L310.029 28.9326C313.457 27.4524 317.08 26.7099 320.92 26.7099V24.2601V21.8103C316.427 21.8103 312.142 22.6834 308.087 24.4345L309.058 26.6835ZM380.793 92.3712L379.578 94.4983L379.591 94.5056L379.604 94.5128L380.793 92.3712ZM368.166 79.6163L366.023 80.8033L366.027 80.8103L366.031 80.8174L368.166 79.6163ZM381.176 28.7243L380.001 26.5749V26.5749L381.176 28.7243ZM417.655 28.7243L418.831 26.5749V26.5749L417.655 28.7243ZM430.41 79.4888L428.295 78.2524L430.41 79.4888ZM417.145 92.3712L418.306 94.5283L418.318 94.5219L417.145 92.3712ZM409.237 81.5296L408.075 79.3726L408.064 79.3789L408.052 79.3854L409.237 81.5296ZM417.272 73.494L415.145 72.2785V72.2785L417.272 73.494ZM417.4 47.6016L415.251 48.7782L415.257 48.7892L415.263 48.8001L417.4 47.6016ZM388.701 39.566L387.517 37.4218L387.504 37.4285L387.492 37.4354L388.701 39.566ZM381.176 47.6016L383.335 48.7599L383.341 48.7491L383.346 48.7383L381.176 47.6016ZM384.11 78.0858L382.305 79.7428L382.323 79.762L382.341 79.7808L384.11 78.0858ZM398.778 96.8354V94.3856C392.526 94.3856 386.947 92.9872 381.983 90.2297L380.793 92.3712L379.604 94.5128C385.354 97.7075 391.764 99.2853 398.778 99.2853V96.8354ZM380.793 92.3712L382.009 90.2442C377.041 87.4056 373.148 83.4761 370.301 78.4153L368.166 79.6163L366.031 80.8174C369.307 86.6408 373.831 91.2145 379.578 94.4983L380.793 92.3712ZM368.166 79.6163L370.309 78.4294C367.477 73.315 366.024 67.357 366.024 60.484H363.574H361.125C361.125 68.0665 362.733 74.8634 366.023 80.8033L368.166 79.6163ZM363.574 60.484H366.024C366.024 53.7129 367.512 47.8052 370.423 42.6911L368.294 41.4792L366.165 40.2673C362.783 46.2075 361.125 52.9697 361.125 60.484H363.574ZM368.294 41.4792L370.423 42.6911C373.35 37.5484 377.319 33.6261 382.352 30.8737L381.176 28.7243L380.001 26.5749C374.149 29.7748 369.53 34.3558 366.165 40.2673L368.294 41.4792ZM381.176 28.7243L382.352 30.8737C387.404 28.1108 393.074 26.7099 399.416 26.7099V24.2601V21.8103C392.322 21.8103 385.833 23.3855 380.001 26.5749L381.176 28.7243ZM399.416 24.2601V26.7099C405.757 26.7099 411.427 28.1108 416.48 30.8737L417.655 28.7243L418.831 26.5749C412.998 23.3855 406.509 21.8103 399.416 21.8103V24.2601ZM417.655 28.7243L416.48 30.8737C421.513 33.6261 425.481 37.5484 428.408 42.6911L430.538 41.4792L432.667 40.2673C429.302 34.3558 424.682 29.7748 418.831 26.5749L417.655 28.7243ZM430.538 41.4792L428.408 42.6911C431.32 47.8052 432.807 53.7129 432.807 60.484H435.257H437.707C437.707 52.9697 436.048 46.2075 432.667 40.2673L430.538 41.4792ZM435.257 60.484H432.807C432.807 67.2437 431.282 73.1425 428.295 78.2524L430.41 79.4888L432.525 80.7252C436 74.7809 437.707 68.0098 437.707 60.484H435.257ZM430.41 79.4888L428.295 78.2524C425.288 83.3953 421.192 87.3731 415.972 90.2205L417.145 92.3712L418.318 94.5219C424.322 91.247 429.069 86.6365 432.525 80.7252L430.41 79.4888ZM417.145 92.3712L415.983 90.2142C410.838 92.9848 405.119 94.3856 398.778 94.3856V96.8354V99.2853C405.872 99.2853 412.397 97.71 418.306 94.5282L417.145 92.3712ZM398.778 84.2081V86.6579C402.928 86.6579 406.823 85.6627 410.422 83.6738L409.237 81.5296L408.052 79.3854C405.189 80.9678 402.111 81.7583 398.778 81.7583V84.2081ZM409.237 81.5296L410.398 83.6866C414.155 81.6637 417.153 78.6408 419.399 74.7094L417.272 73.494L415.145 72.2785C413.31 75.4899 410.951 77.8241 408.075 79.3726L409.237 81.5296ZM417.272 73.494L419.399 74.7094C421.697 70.6888 422.783 65.9109 422.783 60.484H420.334H417.884C417.884 65.261 416.929 69.1564 415.145 72.2785L417.272 73.494ZM420.334 60.484H422.783C422.783 55.0758 421.747 50.3431 419.537 46.403L417.4 47.6016L415.263 48.8001C416.965 51.8327 417.884 55.6883 417.884 60.484H420.334ZM417.4 47.6016L419.549 46.4249C417.394 42.4896 414.483 39.4549 410.804 37.4218L409.62 39.566L408.435 41.7102C411.218 43.2484 413.495 45.5708 415.251 48.7782L417.4 47.6016ZM409.62 39.566L410.804 37.4218C407.205 35.4328 403.311 34.4376 399.16 34.4376V36.8875V39.3373C402.493 39.3373 405.571 40.1278 408.435 41.7102L409.62 39.566ZM399.16 36.8875V34.4376C395.01 34.4376 391.116 35.4328 387.517 37.4218L388.701 39.566L389.886 41.7102C392.75 40.1278 395.828 39.3373 399.16 39.3373V36.8875ZM388.701 39.566L387.492 37.4354C383.891 39.4793 381.069 42.5261 379.006 46.4648L381.176 47.6016L383.346 48.7383C385.025 45.5343 387.219 43.224 389.911 41.6965L388.701 39.566ZM381.176 47.6016L379.017 46.4432C376.908 50.3741 375.92 55.0916 375.92 60.484H378.37H380.82C380.82 55.6725 381.703 51.8017 383.335 48.7599L381.176 47.6016ZM378.37 60.484H375.92C375.92 68.4544 377.94 74.9896 382.305 79.7428L384.11 78.0858L385.914 76.4287C382.626 72.8487 380.82 67.6494 380.82 60.484H378.37ZM384.11 78.0858L382.341 79.7808C386.734 84.3646 392.271 86.6579 398.778 86.6579V84.2081V81.7583C393.55 81.7583 389.309 79.97 385.878 76.3907L384.11 78.0858ZM460.218 93.9018L459.174 96.1185L459.2 96.1307L459.227 96.1423L460.218 93.9018ZM449.886 85.7387L447.909 87.1853L447.918 87.197L447.926 87.2086L449.886 85.7387ZM445.805 74.1317V71.6819H443.255L443.357 74.2296L445.805 74.1317ZM460.855 74.1317L463.296 73.9225L463.104 71.6819H460.855V74.1317ZM465.064 81.6571L463.534 83.5701L463.569 83.598L463.605 83.6246L465.064 81.6571ZM484.324 82.2949L485.719 84.3091L485.726 84.3037L485.734 84.2983L484.324 82.2949ZM483.942 70.3053L482.816 72.4812L482.831 72.489L482.846 72.4965L483.942 70.3053ZM472.08 66.0962L472.743 63.7378L472.735 63.7357L472.727 63.7335L472.08 66.0962ZM459.197 61.887L458.267 64.1535V64.1535L459.197 61.887ZM450.524 55.6371L448.656 57.2221L448.67 57.2383L448.684 57.2543L450.524 55.6371ZM450.269 34.3365L452.255 35.7708L452.264 35.758L452.273 35.745L450.269 34.3365ZM459.707 26.9386L458.742 24.6869L458.734 24.6905L458.725 24.6942L459.707 26.9386ZM493.253 30.3825L491.675 32.2564L491.692 32.2712L491.71 32.2858L493.253 30.3825ZM501.161 46.8363V49.2861H503.733L503.608 46.7169L501.161 46.8363ZM486.62 46.8363L484.178 47.0343L484.361 49.2861H486.62V46.8363ZM482.794 39.3109L484.341 37.4117V37.4117L482.794 39.3109ZM464.682 38.6731L463.266 36.674V36.674L464.682 38.6731ZM463.661 49.1321L461.986 50.9194V50.9194L463.661 49.1321ZM468.636 52.1933L467.743 54.4747L467.787 54.4918L467.831 54.5072L468.636 52.1933ZM477.309 54.8718L476.629 57.2254L476.653 57.2324L476.678 57.239L477.309 54.8718ZM489.809 59.081L488.808 61.3172L488.844 61.3329L488.879 61.3475L489.809 59.081ZM498.355 65.2033L496.511 66.8165V66.8165L498.355 65.2033ZM502.054 76.045H504.503V76.0219L504.503 75.9987L502.054 76.045ZM498.737 86.7591L496.733 85.3506H496.733L498.737 86.7591ZM489.299 94.1569L488.317 91.9125L488.308 91.9163L488.299 91.9202L489.299 94.1569ZM475.141 96.8354V94.3856C469.906 94.3856 465.276 93.4606 461.209 91.6614L460.218 93.9018L459.227 96.1423C464.002 98.2545 469.321 99.2853 475.141 99.2853V96.8354ZM460.218 93.9018L461.261 91.6852C457.239 89.7928 454.128 87.3112 451.846 84.2688L449.886 85.7387L447.926 87.2086C450.746 90.9688 454.522 93.9293 459.174 96.1185L460.218 93.9018ZM449.886 85.7387L451.863 84.292C449.595 81.1921 448.403 77.7912 448.252 74.0338L445.805 74.1317L443.357 74.2296C443.546 78.9755 445.075 83.3126 447.909 87.1853L449.886 85.7387ZM445.805 74.1317V76.5816H460.855V74.1317V71.6819H445.805V74.1317ZM460.855 74.1317L458.414 74.341C458.733 78.0522 460.513 81.1536 463.534 83.5701L465.064 81.6571L466.595 79.7441C464.513 78.079 463.488 76.1636 463.296 73.9225L460.855 74.1317ZM465.064 81.6571L463.605 83.6246C466.739 85.9502 470.552 87.0406 474.886 87.0406V84.5907V82.1409C471.396 82.1409 468.662 81.2755 466.524 79.6897L465.064 81.6571ZM474.886 84.5907V87.0406C479.224 87.0406 482.936 86.2354 485.719 84.3091L484.324 82.2949L482.93 80.2806C481.291 81.4155 478.711 82.1409 474.886 82.1409V84.5907ZM484.324 82.2949L485.734 84.2983C488.578 82.2973 490.218 79.5553 490.218 76.1725H487.768H485.318C485.318 77.7216 484.663 79.0611 482.914 80.2914L484.324 82.2949ZM487.768 76.1725H490.218C490.218 74.4425 489.793 72.8162 488.863 71.3904C487.941 69.9757 486.616 68.9033 485.037 68.1141L483.942 70.3053L482.846 72.4965C483.819 72.9827 484.407 73.526 484.759 74.067C485.105 74.5969 485.318 75.2665 485.318 76.1725H487.768ZM483.942 70.3053L485.067 68.1293C482.37 66.734 478.216 65.2772 472.743 63.7378L472.08 66.0962L471.416 68.4545C476.827 69.9763 480.582 71.3255 482.816 72.4812L483.942 70.3053ZM472.08 66.0962L472.727 63.7335C467.507 62.3022 463.317 60.9292 460.127 59.6205L459.197 61.887L458.267 64.1535C461.71 65.5659 466.108 66.999 471.432 68.4588L472.08 66.0962ZM459.197 61.887L460.127 59.6205C457.175 58.4095 454.591 56.5546 452.364 54.02L450.524 55.6371L448.684 57.2543C451.388 60.3318 454.587 62.6435 458.267 64.1535L459.197 61.887ZM450.524 55.6371L452.392 54.0522C450.473 51.7901 449.402 48.7 449.402 44.5404H446.952H444.503C444.503 49.5643 445.813 53.872 448.656 57.2221L450.524 55.6371ZM446.952 44.5404H449.402C449.402 41.319 450.342 38.4187 452.255 35.7708L450.269 34.3365L448.283 32.9021C445.773 36.3766 444.503 40.2789 444.503 44.5404H446.952ZM450.269 34.3365L452.273 35.745C454.188 33.0207 456.952 30.8179 460.689 29.1831L459.707 26.9386L458.725 24.6942C454.299 26.6307 450.772 29.3598 448.264 32.928L450.269 34.3365ZM459.707 26.9386L460.672 29.1904C464.484 27.5569 468.908 26.7099 473.993 26.7099V24.2601V21.8103C468.363 21.8103 463.264 22.749 458.742 24.6869L459.707 26.9386ZM473.993 24.2601V26.7099C481.564 26.7099 487.375 28.6357 491.675 32.2564L493.253 30.3825L494.831 28.5086C489.437 23.9661 482.408 21.8103 473.993 21.8103V24.2601ZM493.253 30.3825L491.71 32.2858C496.043 35.7968 498.404 40.6015 498.714 46.9556L501.161 46.8363L503.608 46.7169C503.237 39.1257 500.326 32.9612 494.795 28.4791L493.253 30.3825ZM501.161 46.8363V44.3864H486.62V46.8363V49.2861H501.161V46.8363ZM486.62 46.8363L489.062 46.6383C488.757 42.8757 487.191 39.734 484.341 37.4117L482.794 39.3109L481.246 41.2101C482.988 42.6292 483.973 44.5044 484.178 47.0343L486.62 46.8363ZM482.794 39.3109L484.341 37.4117C481.485 35.0847 477.776 34.055 473.483 34.055V36.5048V38.9546C477.012 38.9546 479.51 39.7957 481.246 41.2101L482.794 39.3109ZM473.483 36.5048V34.055C469.401 34.055 465.887 34.8172 463.266 36.674L464.682 38.6731L466.098 40.6723C467.558 39.638 469.912 38.9546 473.483 38.9546V36.5048ZM464.682 38.6731L463.266 36.674C460.615 38.5515 459.171 41.1912 459.171 44.4128H461.621H464.07C464.07 42.8727 464.667 41.6859 466.098 40.6722L464.682 38.6731ZM461.621 44.4128H459.171C459.171 46.9583 460.13 49.1791 461.986 50.9194L463.661 49.1321L465.337 47.3449C464.472 46.5342 464.07 45.6088 464.07 44.4128H461.621ZM463.661 49.1321L461.986 50.9194C463.6 52.433 465.534 53.6102 467.743 54.4747L468.636 52.1933L469.529 49.9119C467.826 49.2459 466.443 48.3822 465.337 47.3449L463.661 49.1321ZM468.636 52.1933L467.831 54.5072C469.85 55.2094 472.791 56.1168 476.629 57.2254L477.309 54.8718L477.989 52.5183C474.174 51.4161 471.333 50.5377 469.441 49.8795L468.636 52.1933ZM477.309 54.8718L476.678 57.239C481.709 58.5805 485.739 59.9441 488.808 61.3172L489.809 59.081L490.809 56.8447C487.416 55.3267 483.114 53.8843 477.94 52.5047L477.309 54.8718ZM489.809 59.081L488.879 61.3475C491.841 62.5627 494.378 64.3785 496.511 66.8165L498.355 65.2033L500.198 63.5901C497.57 60.586 494.409 58.3203 490.739 56.8145L489.809 59.081ZM498.355 65.2033L496.511 66.8165C498.425 69.0039 499.527 72.015 499.604 76.0912L502.054 76.045L504.503 75.9987C504.41 71.0615 503.046 66.8448 500.198 63.5901L498.355 65.2033ZM502.054 76.045H499.604C499.604 79.5584 498.642 82.6338 496.733 85.3506L498.737 86.7591L500.742 88.1676C503.254 84.592 504.503 80.5246 504.503 76.045H502.054ZM498.737 86.7591L496.733 85.3506C494.819 88.0748 492.054 90.2776 488.317 91.9125L489.299 94.1569L490.281 96.4013C494.707 94.4648 498.234 91.7357 500.742 88.1676L498.737 86.7591ZM489.299 94.1569L488.299 91.9202C484.684 93.5356 480.32 94.3856 475.141 94.3856V96.8354V99.2853C480.846 99.2853 485.92 98.3496 490.298 96.3936L489.299 94.1569Z" fill="url(#paint0_linear_2633_1858)" mask="url(#path-1-outside-1_2633_1858)"/>
<defs>
<linearGradient id="paint0_linear_2633_1858" x1="508.395" y1="51.1875" x2="-6.60547" y2="51.1875" gradientUnits="userSpaceOnUse">
<stop stop-color="#F6D809"/>
<stop offset="0.264423" stop-color="#F26D33"/>
<stop offset="0.509615" stop-color="#E12991"/>
<stop offset="0.759615" stop-color="#A15DB0"/>
<stop offset="1" stop-color="#53B7E7"/>
</linearGradient>
</defs>
</svg>
