<svg width="463" height="255" viewBox="0 0 463 255" fill="none" xmlns="http://www.w3.org/2000/svg">
<mask id="mask0_2569_3757" style="mask-type:luminance" maskUnits="userSpaceOnUse" x="213" y="25" width="205" height="140">
<path d="M367.194 96.513C359.52 96.513 351.685 97.3146 343.934 98.7489C337.031 100.03 330.668 96.2868 330.668 89.2646V36.2857C330.668 30.0766 325.633 25.041 319.424 25.041H225.405C219.314 25.041 214.333 29.8887 214.164 35.9789L213.922 44.7039C213.742 51.3272 219.288 56.6427 225.903 56.2324C228.032 56.0981 231.173 56.0406 233.712 56.0406C271.358 56.0406 301.778 77.878 307.04 114.366C308.106 121.748 308.363 128.383 308.137 135.217C307.891 142.581 314.71 148.161 321.89 146.516L344.966 141.223C350.254 140.011 355.601 142.773 357.798 147.732C362.496 158.336 372.287 164.959 385.001 164.959C404.645 164.959 417.228 151.149 417.228 132.425C417.22 103.88 391.133 96.513 367.194 96.513Z" fill="white"/>
</mask>
<g mask="url(#mask0_2569_3757)">
<path d="M462.522 -0.248047H3.25V194.747H462.522V-0.248047Z" fill="url(#paint0_linear_2569_3757)"/>
</g>
<mask id="mask1_2569_3757" style="mask-type:luminance" maskUnits="userSpaceOnUse" x="369" y="25" width="94" height="55">
<path d="M451.43 25.041H380.76C374.654 25.041 369.657 29.904 369.488 36.0057L369.239 45.0759C369.055 51.6992 374.597 57.0646 381.208 56.6389C383.414 56.497 385.803 56.4356 388.441 56.4356C410.908 56.4356 430.114 63.5077 443.614 76.3248C450.832 83.1744 462.709 78.2193 462.709 68.2709V36.3164C462.705 30.0881 457.658 25.041 451.43 25.041Z" fill="white"/>
</mask>
<g mask="url(#mask1_2569_3757)">
<path d="M462.518 -0.248047H3.24609V194.747H462.518V-0.248047Z" fill="url(#paint1_linear_2569_3757)"/>
</g>
<mask id="mask2_2569_3757" style="mask-type:luminance" maskUnits="userSpaceOnUse" x="3" y="0" width="259" height="184">
<path d="M211.925 96.5118C204.727 96.5118 197.398 97.2136 190.122 98.4907C188.366 98.809 186.621 99.1542 184.872 99.5339C184.12 99.695 183.411 99.3114 183.108 98.6748C183.008 98.4639 182.954 98.2338 182.954 97.9768C182.954 97.9691 182.954 97.9615 182.954 97.9615C182.954 81.8653 180.27 68.0472 175.399 56.2886C170.11 43.5252 162.225 33.1856 152.38 25.0359C131.164 7.46322 100.832 0 67.6542 0H4.84578C3.97136 0 3.26953 0.701834 3.26953 1.57625V183.969L166.62 146.507L181.735 143.044H181.75L189.697 141.218C191.211 140.869 192.734 140.846 194.188 141.119C197.789 141.767 200.96 144.187 202.521 147.723C205.244 153.863 209.666 158.672 215.388 161.625C219.542 163.773 224.374 164.95 229.724 164.95C249.372 164.95 261.951 151.14 261.951 132.424C261.951 103.879 235.864 96.5118 211.925 96.5118ZM90.2893 126.403C73.1001 126.403 59.167 112.47 59.167 95.2807C59.167 78.0915 73.1001 64.1584 90.2893 64.1584C107.486 64.1584 121.419 78.0915 121.419 95.2807C121.419 112.47 107.486 126.403 90.2893 126.403Z" fill="white"/>
</mask>
<g mask="url(#mask2_2569_3757)">
<path d="M455.584 -0.25H-3.6875V194.745H455.584V-0.25Z" fill="url(#paint2_linear_2569_3757)"/>
</g>
<mask id="mask3_2569_3757" style="mask-type:luminance" maskUnits="userSpaceOnUse" x="148" y="162" width="34" height="33">
<path d="M165.225 162.244C156.228 162.244 148.938 169.539 148.938 178.532C148.938 187.525 156.228 194.82 165.225 194.82C174.223 194.82 181.513 187.525 181.513 178.532C181.513 169.539 174.223 162.244 165.225 162.244Z" fill="white"/>
</mask>
<g mask="url(#mask3_2569_3757)">
<path d="M462.518 -0.248047H3.24609V194.747H462.518V-0.248047Z" fill="url(#paint3_linear_2569_3757)"/>
</g>
<path d="M10.2841 218.448C12.8041 218.448 15.0062 218.936 16.8905 219.912C18.7975 220.866 20.2618 222.251 21.2834 224.067C22.3277 225.86 22.8498 227.96 22.8498 230.367C22.8498 232.773 22.3277 234.862 21.2834 236.633C20.2618 238.403 18.7975 239.766 16.8905 240.719C15.0062 241.65 12.8041 242.115 10.2841 242.115H2.554V218.448H10.2841ZM10.2841 238.948C13.0538 238.948 15.1765 238.199 16.6521 236.701C18.1278 235.202 18.8656 233.091 18.8656 230.367C18.8656 227.62 18.1278 225.474 16.6521 223.931C15.1765 222.387 13.0538 221.615 10.2841 221.615H6.43609V238.948H10.2841ZM43.8943 232.274C43.8943 232.978 43.8489 233.613 43.7581 234.181H29.4216C29.5351 235.679 30.0913 236.882 31.0902 237.79C32.0891 238.699 33.315 239.153 34.768 239.153C36.8566 239.153 38.3322 238.279 39.1949 236.53H43.3835C42.8159 238.256 41.783 239.675 40.2846 240.787C38.809 241.877 36.9701 242.422 34.768 242.422C32.9745 242.422 31.3626 242.024 29.9324 241.23C28.5249 240.413 27.4124 239.277 26.5952 237.825C25.8006 236.349 25.4033 234.646 25.4033 232.716C25.4033 230.787 25.7892 229.095 26.5611 227.643C27.3557 226.167 28.4567 225.032 29.8643 224.237C31.2945 223.443 32.9291 223.045 34.768 223.045C36.5388 223.045 38.1166 223.431 39.5014 224.203C40.8862 224.975 41.9646 226.065 42.7365 227.472C43.5083 228.857 43.8943 230.458 43.8943 232.274ZM39.8419 231.048C39.8192 229.618 39.3084 228.471 38.3095 227.608C37.3106 226.746 36.0734 226.314 34.5977 226.314C33.2583 226.314 32.1118 226.746 31.1583 227.608C30.2048 228.448 29.6373 229.595 29.4556 231.048H39.8419ZM54.5253 242.422C53.0497 242.422 51.7216 242.161 50.5411 241.638C49.3833 241.094 48.4638 240.367 47.7828 239.459C47.1017 238.528 46.7385 237.495 46.693 236.36H50.7113C50.7795 237.155 51.154 237.825 51.8351 238.369C52.5389 238.892 53.4129 239.153 54.4572 239.153C55.5469 239.153 56.3869 238.948 56.9772 238.54C57.5901 238.108 57.8966 237.563 57.8966 236.905C57.8966 236.201 57.5561 235.679 56.875 235.339C56.2166 234.998 55.161 234.623 53.708 234.215C52.3005 233.829 51.154 233.454 50.2687 233.091C49.3833 232.728 48.6114 232.172 47.953 231.422C47.3174 230.673 46.9995 229.686 46.9995 228.46C46.9995 227.461 47.2947 226.553 47.8849 225.736C48.4752 224.896 49.3152 224.237 50.4049 223.76C51.5173 223.284 52.7886 223.045 54.2188 223.045C56.3529 223.045 58.0669 223.59 59.3609 224.68C60.6776 225.747 61.3814 227.211 61.4722 229.073H57.5901C57.522 228.233 57.1815 227.563 56.5685 227.064C55.9556 226.564 55.1269 226.314 54.0826 226.314C53.061 226.314 52.2778 226.507 51.7329 226.893C51.1881 227.279 50.9157 227.79 50.9157 228.426C50.9157 228.925 51.0973 229.345 51.4605 229.686C51.8238 230.026 52.2665 230.299 52.7886 230.503C53.3108 230.685 54.0826 230.923 55.1042 231.218C56.4664 231.581 57.5788 231.956 58.4415 232.342C59.3269 232.705 60.0874 233.25 60.723 233.976C61.3587 234.703 61.6879 235.668 61.7106 236.871C61.7106 237.938 61.4155 238.892 60.8252 239.731C60.2349 240.571 59.395 241.23 58.3053 241.707C57.2382 242.183 55.9783 242.422 54.5253 242.422ZM67.8804 220.866C67.1766 220.866 66.5863 220.628 66.1096 220.151C65.6328 219.674 65.3945 219.084 65.3945 218.38C65.3945 217.676 65.6328 217.086 66.1096 216.609C66.5863 216.132 67.1766 215.894 67.8804 215.894C68.5614 215.894 69.1403 216.132 69.6171 216.609C70.0938 217.086 70.3322 217.676 70.3322 218.38C70.3322 219.084 70.0938 219.674 69.6171 220.151C69.1403 220.628 68.5614 220.866 67.8804 220.866ZM69.7874 223.352V242.115H65.9053V223.352H69.7874ZM82.444 223.045C83.897 223.045 85.1797 223.34 86.2921 223.931C87.4272 224.498 88.3126 225.213 88.9482 226.076V223.352H92.8644V242.422C92.8644 244.147 92.5012 245.679 91.7747 247.019C91.0482 248.381 89.9926 249.448 88.6077 250.22C87.2456 250.992 85.611 251.378 83.704 251.378C81.1614 251.378 79.0501 250.776 77.3701 249.573C75.6901 248.392 74.7366 246.781 74.5096 244.737H78.3576C78.6528 245.714 79.2771 246.497 80.2306 247.087C81.2068 247.7 82.3646 248.006 83.704 248.006C85.2705 248.006 86.5305 247.53 87.484 246.576C88.4601 245.623 88.9482 244.238 88.9482 242.422V239.289C88.2899 240.174 87.3931 240.923 86.258 241.536C85.1456 242.127 83.8743 242.422 82.444 242.422C80.8095 242.422 79.3111 242.013 77.949 241.196C76.6096 240.356 75.5426 239.198 74.748 237.722C73.9761 236.224 73.5902 234.533 73.5902 232.648C73.5902 230.764 73.9761 229.095 74.748 227.643C75.5426 226.19 76.6096 225.066 77.949 224.271C79.3111 223.454 80.8095 223.045 82.444 223.045ZM88.9482 232.716C88.9482 231.422 88.6758 230.299 88.131 229.345C87.6088 228.392 86.9164 227.665 86.0537 227.166C85.191 226.666 84.2602 226.417 83.2613 226.417C82.2624 226.417 81.3316 226.666 80.469 227.166C79.6063 227.643 78.9025 228.358 78.3576 229.311C77.8355 230.242 77.5744 231.354 77.5744 232.648C77.5744 233.942 77.8355 235.078 78.3576 236.054C78.9025 237.03 79.6063 237.779 80.469 238.301C81.3543 238.801 82.2851 239.05 83.2613 239.05C84.2602 239.05 85.191 238.801 86.0537 238.301C86.9164 237.802 87.6088 237.075 88.131 236.122C88.6758 235.146 88.9482 234.011 88.9482 232.716ZM107.43 223.045C108.906 223.045 110.223 223.352 111.38 223.965C112.561 224.578 113.48 225.486 114.139 226.689C114.797 227.892 115.126 229.345 115.126 231.048V242.115H111.278V231.627C111.278 229.947 110.858 228.664 110.018 227.779C109.178 226.871 108.032 226.417 106.579 226.417C105.126 226.417 103.968 226.871 103.105 227.779C102.265 228.664 101.845 229.947 101.845 231.627V242.115H97.9633V223.352H101.845V225.497C102.481 224.725 103.287 224.124 104.263 223.692C105.262 223.261 106.318 223.045 107.43 223.045ZM153.851 218.448V242.115H149.969V225.906L142.75 242.115H140.059L132.806 225.906V242.115H128.924V218.448H133.113L141.422 237.007L149.697 218.448H153.851ZM157.659 232.648C157.659 230.764 158.045 229.095 158.817 227.643C159.612 226.19 160.679 225.066 162.018 224.271C163.38 223.454 164.879 223.045 166.513 223.045C167.989 223.045 169.272 223.34 170.361 223.931C171.474 224.498 172.359 225.213 173.018 226.076V223.352H176.934V242.115H173.018V239.323C172.359 240.208 171.462 240.946 170.327 241.536C169.192 242.127 167.898 242.422 166.445 242.422C164.833 242.422 163.358 242.013 162.018 241.196C160.679 240.356 159.612 239.198 158.817 237.722C158.045 236.224 157.659 234.533 157.659 232.648ZM173.018 232.716C173.018 231.422 172.745 230.299 172.2 229.345C171.678 228.392 170.986 227.665 170.123 227.166C169.26 226.666 168.33 226.417 167.331 226.417C166.332 226.417 165.401 226.666 164.538 227.166C163.676 227.643 162.972 228.358 162.427 229.311C161.905 230.242 161.644 231.354 161.644 232.648C161.644 233.942 161.905 235.078 162.427 236.054C162.972 237.03 163.676 237.779 164.538 238.301C165.424 238.801 166.354 239.05 167.331 239.05C168.33 239.05 169.26 238.801 170.123 238.301C170.986 237.802 171.678 237.075 172.2 236.122C172.745 235.146 173.018 234.011 173.018 232.716ZM180.739 232.716C180.739 230.787 181.125 229.095 181.896 227.643C182.691 226.167 183.781 225.032 185.166 224.237C186.55 223.443 188.14 223.045 189.933 223.045C192.203 223.045 194.076 223.59 195.552 224.68C197.05 225.747 198.06 227.279 198.583 229.277H194.394C194.053 228.346 193.509 227.62 192.759 227.098C192.01 226.576 191.068 226.314 189.933 226.314C188.344 226.314 187.073 226.882 186.119 228.017C185.188 229.13 184.723 230.696 184.723 232.716C184.723 234.737 185.188 236.315 186.119 237.45C187.073 238.585 188.344 239.153 189.933 239.153C192.181 239.153 193.668 238.165 194.394 236.19H198.583C198.038 238.097 197.016 239.618 195.518 240.753C194.019 241.866 192.158 242.422 189.933 242.422C188.14 242.422 186.55 242.024 185.166 241.23C183.781 240.413 182.691 239.277 181.896 237.825C181.125 236.349 180.739 234.646 180.739 232.716ZM209.875 232.751L218.525 242.115H213.28L206.333 234.045V242.115H202.451V216.916H206.333V231.559L213.144 223.352H218.525L209.875 232.751Z" fill="white"/>
<defs>
<linearGradient id="paint0_linear_2569_3757" x1="3.25092" y1="97.2494" x2="462.522" y2="97.2494" gradientUnits="userSpaceOnUse">
<stop stop-color="#4AB7E8"/>
<stop offset="0.0656" stop-color="#55ACE1"/>
<stop offset="0.1823" stop-color="#738DCF"/>
<stop offset="0.3367" stop-color="#A35CB1"/>
<stop offset="0.503" stop-color="#DF1F8D"/>
<stop offset="0.5079" stop-color="#DF218B"/>
<stop offset="0.751" stop-color="#EC8441"/>
<stop offset="0.9201" stop-color="#F4C212"/>
<stop offset="1" stop-color="#F7DA00"/>
</linearGradient>
<linearGradient id="paint1_linear_2569_3757" x1="3.24701" y1="97.2494" x2="462.518" y2="97.2494" gradientUnits="userSpaceOnUse">
<stop stop-color="#4AB7E8"/>
<stop offset="0.0656" stop-color="#55ACE1"/>
<stop offset="0.1823" stop-color="#738DCF"/>
<stop offset="0.3367" stop-color="#A35CB1"/>
<stop offset="0.503" stop-color="#DF1F8D"/>
<stop offset="0.5079" stop-color="#DF218B"/>
<stop offset="0.751" stop-color="#EC8441"/>
<stop offset="0.9201" stop-color="#F4C212"/>
<stop offset="1" stop-color="#F7DA00"/>
</linearGradient>
<linearGradient id="paint2_linear_2569_3757" x1="-3.68658" y1="97.2475" x2="455.584" y2="97.2475" gradientUnits="userSpaceOnUse">
<stop stop-color="#4AB7E8"/>
<stop offset="0.0656" stop-color="#55ACE1"/>
<stop offset="0.1823" stop-color="#738DCF"/>
<stop offset="0.3367" stop-color="#A35CB1"/>
<stop offset="0.503" stop-color="#DF1F8D"/>
<stop offset="0.5079" stop-color="#DF218B"/>
<stop offset="0.751" stop-color="#EC8441"/>
<stop offset="0.9201" stop-color="#F4C212"/>
<stop offset="1" stop-color="#F7DA00"/>
</linearGradient>
<linearGradient id="paint3_linear_2569_3757" x1="3.24701" y1="97.2494" x2="462.518" y2="97.2494" gradientUnits="userSpaceOnUse">
<stop stop-color="#4AB7E8"/>
<stop offset="0.0656" stop-color="#55ACE1"/>
<stop offset="0.1823" stop-color="#738DCF"/>
<stop offset="0.3367" stop-color="#A35CB1"/>
<stop offset="0.503" stop-color="#DF1F8D"/>
<stop offset="0.5079" stop-color="#DF218B"/>
<stop offset="0.751" stop-color="#EC8441"/>
<stop offset="0.9201" stop-color="#F4C212"/>
<stop offset="1" stop-color="#F7DA00"/>
</linearGradient>
</defs>
</svg>
